<?xml version="1.0" encoding="utf-8"?>
<!-- Generator: Adobe Illustrator 16.0.0, SVG Export Plug-In . SVG Version: 6.00 Build 0)  -->
<!DOCTYPE svg PUBLIC "-//W3C//DTD SVG 1.1//EN" "http://www.w3.org/Graphics/SVG/1.1/DTD/svg11.dtd">
<svg version="1.1" id="Camada_1" xmlns="http://www.w3.org/2000/svg" xmlns:xlink="http://www.w3.org/1999/xlink" x="0px" y="0px"
	 width="180px" height="150px" viewBox="0 0 180 150" enable-background="new 0 0 180 150" xml:space="preserve">
<g>
	<g>
		<path fill-rule="evenodd" clip-rule="evenodd" fill="#494849" d="M97.961,10.732C77.657,7.787,58.717,21.73,55.541,42.055
			c-0.018,0.117-0.036,0.236-0.053,0.354l5.912,0.561l0.012-0.078c0.998-6.279,3.8-11.855,7.795-16.262
			c0.008-0.01,0.016-0.018,0.023-0.027c6.821-7.506,17.105-11.609,27.815-10.01c0.015,0.002,0.027,0.004,0.04,0.006
			c0.012,0.002,0.024,0.002,0.035,0.006l0.613-4.281L97.961,10.732z"/>
		<path fill-rule="evenodd" clip-rule="evenodd" fill="#000002" d="M69.964,25.748l0.027-0.029
			C69.982,25.729,69.973,25.738,69.964,25.748z"/>
		<path fill-rule="evenodd" clip-rule="evenodd" fill="#000002" d="M61.696,54.162c-0.004-0.012-0.006-0.023-0.009-0.033
			C61.69,54.139,61.692,54.15,61.696,54.162z"/>
		<path fill-rule="evenodd" clip-rule="evenodd" fill="#000002" d="M70.312,70.09c-0.018-0.018-0.037-0.037-0.056-0.055
			C70.275,70.053,70.294,70.072,70.312,70.09z"/>
		<path fill-rule="evenodd" clip-rule="evenodd" fill="#494849" d="M92.612,89.049c22.702,0,41.105-18.404,41.105-41.105
			c0-11.273-4.54-21.486-11.889-28.912l-0.019,0.018l-2.561,2.57c14.37,14.646,14.304,38.168-0.222,52.729
			c-0.098,0.098-0.195,0.197-0.295,0.293c-14.546,14.271-37.849,14.299-52.434,0.062l-2.523,2.529
			C71.194,84.539,81.375,89.049,92.612,89.049z"/>
		<path fill-rule="evenodd" clip-rule="evenodd" fill="#494849" d="M115.146,47.84c-0.007-5.672-2.13-11.344-6.368-15.725
			c-0.096-0.1-0.193-0.197-0.292-0.297c-8.863-8.842-23.216-8.822-32.057,0.039l6.629,6.613c5.188-5.201,13.613-5.211,18.815-0.023
			c0.098,0.1,0.196,0.197,0.289,0.299c2.409,2.553,3.616,5.83,3.62,9.105c0.005,3.404-1.29,6.811-3.884,9.412
			c-0.099,0.098-0.198,0.195-0.298,0.289c-5.108,4.816-13.099,4.826-18.22,0.021c-0.101-0.094-0.2-0.189-0.298-0.287l-6.612,6.629
			c0.098,0.098,0.196,0.195,0.295,0.291c8.785,8.453,22.702,8.436,31.465-0.039c0.1-0.096,0.199-0.193,0.296-0.293
			C112.948,59.445,115.154,53.641,115.146,47.84z"/>
		<path fill-rule="evenodd" clip-rule="evenodd" fill="#646664" d="M83.003,57.201c-2.545-2.584-3.82-5.947-3.825-9.318
			c-0.005-3.275,1.193-6.553,3.595-9.113c0.028-0.029,0.057-0.061,0.085-0.09c0.021-0.021,0.041-0.043,0.061-0.064
			c0.048-0.049,0.096-0.096,0.144-0.145l-6.63-6.613c8.841-8.863,23.193-8.881,32.057-0.039c0.099,0.098,0.195,0.195,0.292,0.295
			c4.238,4.381,6.362,10.053,6.369,15.725c0.007,5.803-2.199,11.607-6.618,16.037c-0.099,0.1-0.198,0.195-0.297,0.293
			c-8.764,8.473-22.68,8.492-31.465,0.039c-0.099-0.098-0.198-0.193-0.296-0.293l6.613-6.627
			C83.058,57.258,83.031,57.229,83.003,57.201L83.003,57.201z M65.935,21.387c14.624-14.66,38.362-14.688,53.025-0.064l0.289,0.297
			l2.564-2.572C105.573,2.85,79.274,2.883,63.074,19.123l0.58,0.574l2,1.977L65.935,21.387L65.935,21.387z M76.289,32.004
			c-0.03,0.029-0.06,0.061-0.09,0.092c-0.019,0.021-0.037,0.039-0.056,0.061c-4.227,4.391-6.336,10.066-6.328,15.74
			c0.007,5.783,2.214,11.562,6.619,15.979l-6.241,6.336c0.097,0.1,0.196,0.197,0.295,0.291
			c12.265,11.926,31.814,11.902,44.048-0.051c0.098-0.098,0.197-0.193,0.295-0.291c6.154-6.172,9.226-14.254,9.213-22.332
			c0-1.586-0.121-3.172-0.36-4.742c-0.265-1.732-0.674-3.449-1.227-5.127c-0.018-0.057-0.037-0.111-0.056-0.166
			c-1.498-4.453-3.961-8.459-7.14-11.773c-0.066-0.068-0.131-0.137-0.198-0.205c-0.096-0.098-0.193-0.197-0.292-0.295
			c-0.316-0.316-0.639-0.625-0.964-0.924c-2.331-2.137-4.983-3.928-7.877-5.293c-4.092-1.932-8.665-3.008-13.489-3.002
			C88.22,16.307,84,17.154,80.054,18.842c-0.002,0.002-0.003,0.002-0.005,0.002c-3.73,1.602-7.089,3.898-9.915,6.729
			c-0.047,0.051-0.095,0.1-0.143,0.146L76.289,32.004z"/>
		<path fill-rule="evenodd" clip-rule="evenodd" fill="#9A9A99" d="M66.125,74.289c-14.563-14.527-14.692-38.047-0.361-52.729
			l-1.994-1.988l-0.014-0.014L63.197,19l-3.301-3.293C41.88,33.77,41.916,63.02,59.98,81.037l6.439-6.457
			C66.322,74.482,66.224,74.387,66.125,74.289L66.125,74.289z M69.991,25.719c-0.009,0.01-0.018,0.021-0.027,0.029
			C69.973,25.738,69.981,25.729,69.991,25.719L69.991,25.719z M69.935,47.775c0.008,5.781,2.215,11.562,6.62,15.977l-6.242,6.338
			c-0.018-0.018-0.037-0.037-0.056-0.055c-0.036-0.037-0.072-0.074-0.108-0.111c-4.428-4.48-7.25-9.984-8.453-15.762
			c-0.435-2.102-0.654-4.238-0.657-6.377c0-0.395,0.007-0.785,0.02-1.176c0.123-3.41,0.794-6.807,2.017-10.039
			c0.005-0.018,0.012-0.035,0.018-0.051c1.485-3.91,3.775-7.586,6.871-10.771c0.008-0.01,0.017-0.02,0.027-0.029
			c0.041-0.039,0.08-0.08,0.12-0.121l6.299,6.285c-0.031,0.029-0.061,0.061-0.091,0.092c-0.019,0.021-0.038,0.037-0.056,0.059
			C72.036,36.426,69.927,42.102,69.935,47.775z"/>
	</g>
	<path fill-rule="evenodd" clip-rule="evenodd" fill="#646664" d="M5.205,117.631c-0.486,0.486-0.78,1.09-0.78,1.801v5.205
		c0.371-0.01,0.836-0.002,1.366,0.006c2.078,0.031,5.153,0.08,7.253-0.924h0.001c1.118-0.525,1.793-1.402,2.065-2.373
		c0.126-0.451,0.167-0.922,0.125-1.387c-0.042-0.465-0.167-0.926-0.37-1.357c-0.468-0.996-1.358-1.828-2.614-2.184
		c-0.763-0.199-1.578-0.301-2.393-0.301c-0.814,0-1.629,0.102-2.393,0.301l0,0C6.562,116.67,5.76,117.078,5.205,117.631
		L5.205,117.631z M105.895,114.213h-4.537v19.174h5.604v-9.52c0-2.758,1.958-5.205,4.627-5.205c2.669,0,4.627,2.447,4.627,5.205
		v9.52h5.427v-9.52c0-5.65-4.226-10.189-9.387-10.189c-1.957,0-3.959,0.891-5.473,2.227L105.895,114.213L105.895,114.213z
		 M136.322,127.559c-0.89,0.889-2.091,1.424-3.292,1.424c-1.29,0-2.491-0.535-3.424-1.557c-0.49-0.535-0.845-1.156-1.113-1.869
		h14.325c0.133-0.621,0.178-1.199,0.178-1.822c0-5.65-4.583-10.188-10.187-10.188c-5.605,0-10.188,4.537-10.188,10.188
		c0,5.604,4.583,10.188,10.188,10.188c3.069,0,5.872-1.381,7.696-3.561L136.322,127.559L136.322,127.559z M128.404,122.176
		c0.267-0.801,0.668-1.557,1.202-2.178c0.934-0.979,2.134-1.514,3.424-1.514c1.247,0,2.492,0.535,3.382,1.514
		c0.579,0.621,0.979,1.377,1.201,2.178H128.404L128.404,122.176z M162.922,114.213l-7.029,9.832l6.629,9.342h-6.45l-3.648-5.117
		l-4.049,5.117h-6.005l6.628-9.342l-7.028-9.832h6.451l4.003,5.65l4.048-5.65H162.922L162.922,114.213z M173.464,114.213v-7.117
		h-5.65v7.117h-4.004v5.205h4.004v13.969h5.65v-13.969h4.448v-5.205H173.464L173.464,114.213z M6.078,126.742
		c-0.584-0.023-1.139-0.045-1.653-0.047v1.949c0,0.314,0.03,0.6,0.103,0.867l0,0c0.072,0.268,0.188,0.518,0.363,0.771
		c0.33,0.443,0.795,0.822,1.346,1.121c0.574,0.312,1.243,0.539,1.954,0.658l0.001,0.002c0.541,0.1,1.064,0.15,1.587,0.15
		c0.522,0,1.044-0.051,1.585-0.15l0.007-0.002c0.779-0.105,1.524-0.32,2.182-0.682c0.588-0.322,1.108-0.764,1.521-1.344l0.068-0.098
		L15.244,130l1.753,1.061l0.11,0.068l-0.068,0.109c-0.603,0.979-1.416,1.678-2.341,2.172c-0.921,0.49-1.953,0.781-3.004,0.945l0,0
		c-0.618,0.102-1.206,0.166-1.792,0.176c-0.588,0.008-1.178-0.031-1.797-0.135l0,0c-1.074-0.168-2.096-0.5-2.981-0.975
		c-0.854-0.457-1.583-1.051-2.113-1.766l-0.003-0.004c-0.333-0.48-0.564-0.982-0.712-1.512c-0.145-0.527-0.208-1.078-0.208-1.658
		v-9.051c0-1.305,0.467-2.377,1.246-3.223c0.865-0.941,2.116-1.604,3.535-1.996c0.97-0.268,1.981-0.402,2.99-0.402
		s2.019,0.135,2.989,0.402l0.003,0.002c1.81,0.541,3.118,1.711,3.866,3.127c0.384,0.727,0.622,1.518,0.704,2.318
		c0.082,0.805,0.01,1.623-0.224,2.4c-0.437,1.459-1.44,2.785-3.06,3.641C11.822,126.957,8.658,126.838,6.078,126.742L6.078,126.742z
		 M36.435,116.982c-0.794,0.559-1.337,1.369-1.41,2.455v14.75v0.129h-0.129h-2.038h-0.129v-0.129v-14.719
		c-0.074-1.129-0.607-1.982-1.384-2.562c-0.903-0.676-2.138-0.992-3.375-0.973c-1.349,0.043-2.699,0.494-3.669,1.273
		c-0.858,0.688-1.422,1.637-1.422,2.783v14.197v0.129h-0.129H20.67h-0.129v-0.129v-19.973v-0.129h0.129h2.079h0.129v0.129v1.553
		c0.651-0.648,1.399-1.104,2.187-1.41c1.049-0.408,2.169-0.559,3.228-0.559c1.312,0,2.592,0.271,3.643,0.805
		c0.902,0.457,1.636,1.109,2.076,1.953c0.536-0.822,1.343-1.447,2.275-1.887c1.132-0.529,2.455-0.789,3.704-0.789l0.002,0.002
		c1.936,0.023,3.875,0.562,5.254,1.664c1.192,0.951,1.966,2.318,1.966,4.131v14.51v0.129h-0.129h-2.078h-0.13v-0.129v-14.551
		c0-1.154-0.513-2.01-1.304-2.596c-0.943-0.699-2.281-1.025-3.62-1.025C38.66,116.016,37.373,116.326,36.435,116.982L36.435,116.982
		z M53.153,132.484v10.467v0.129h-0.13h-2.039h-0.127v-0.129v-28.695v-0.129h0.127h1.876h0.128v0.129v1.863
		c0.824-0.982,2.096-1.666,3.511-2.037c1.664-0.436,3.534-0.439,5.116,0.01c1.396,0.369,2.634,1.031,3.495,1.973
		c0.778,0.855,1.248,1.938,1.248,3.246v9.252c0,1.691-0.747,3.037-1.903,4.014c-0.746,0.629-1.663,1.107-2.657,1.426
		c-0.993,0.32-2.064,0.48-3.124,0.48C56.543,134.482,54.457,133.828,53.153,132.484L53.153,132.484z M54.602,117.221
		c-0.865,0.67-1.448,1.646-1.448,2.986v8.682c0,1.559,1.423,2.607,3.238,3.078c0.71,0.184,1.481,0.277,2.247,0.279
		c0.768,0,1.534-0.092,2.238-0.279c1.77-0.473,3.146-1.561,3.146-3.322v-9.334v-0.129h0.037c-0.033-0.658-0.322-1.219-0.785-1.676
		c-0.56-0.553-1.372-0.959-2.295-1.211l0,0c-0.342-0.094-0.713-0.162-1.095-0.209c-0.42-0.047-0.854-0.07-1.276-0.07
		C57.213,116.016,55.685,116.381,54.602,117.221L54.602,117.221z M72.056,119.867v14.32v0.129h-0.13h-2.079h-0.128v-0.129v-9.07
		v-5.209v-5.693v-0.129h0.128h1.997h0.13v0.129v1.82c0.825-0.996,2.006-1.631,3.306-1.967c1.66-0.432,3.518-0.377,5.074,0.023
		l0.114,0.027l-0.019,0.117l-0.326,1.914l-0.026,0.15l-0.142-0.049c-0.523-0.174-1.157-0.258-1.833-0.258
		c-1.193,0-2.52,0.268-3.627,0.783c-1.097,0.514-1.98,1.268-2.305,2.244C72.103,119.285,72.056,119.568,72.056,119.867
		L72.056,119.867z M85.419,117.631c-0.486,0.486-0.78,1.09-0.78,1.801v5.205c0.37-0.01,0.836-0.002,1.365,0.006
		c2.08,0.031,5.154,0.08,7.254-0.924h0.001c1.118-0.525,1.793-1.402,2.066-2.373c0.125-0.451,0.166-0.922,0.125-1.387
		c-0.042-0.465-0.167-0.926-0.37-1.357c-0.469-0.996-1.358-1.828-2.614-2.184c-0.763-0.199-1.578-0.301-2.393-0.301
		c-0.814,0-1.629,0.102-2.393,0.301l0,0C86.778,116.67,85.974,117.078,85.419,117.631L85.419,117.631z M86.292,126.742
		c-0.584-0.023-1.139-0.045-1.653-0.047v1.949c0,0.314,0.029,0.6,0.103,0.867l0,0c0.072,0.268,0.188,0.518,0.363,0.771
		c0.33,0.443,0.795,0.822,1.346,1.121c0.574,0.312,1.243,0.539,1.953,0.658l0.002,0.002c0.542,0.1,1.063,0.15,1.586,0.15
		c0.523,0,1.046-0.051,1.588-0.15l0.005-0.002c0.779-0.105,1.525-0.32,2.182-0.682c0.588-0.322,1.108-0.764,1.521-1.344l0.069-0.098
		L95.46,130l1.752,1.061l0.111,0.068l-0.068,0.109c-0.604,0.979-1.416,1.678-2.341,2.172c-0.92,0.49-1.953,0.781-3.005,0.945l0,0
		c-0.616,0.102-1.205,0.166-1.792,0.176c-0.589,0.008-1.178-0.031-1.796-0.135l0,0c-1.075-0.168-2.097-0.5-2.981-0.975
		c-0.854-0.457-1.583-1.051-2.114-1.766l-0.003-0.004c-0.333-0.48-0.564-0.982-0.711-1.512c-0.146-0.527-0.208-1.078-0.208-1.658
		v-9.051c0-1.305,0.468-2.377,1.246-3.223c0.865-0.941,2.116-1.604,3.535-1.996c0.971-0.268,1.98-0.402,2.99-0.402
		c1.009,0,2.019,0.135,2.989,0.402l0.003,0.002c1.811,0.541,3.118,1.711,3.867,3.127c0.383,0.727,0.621,1.518,0.703,2.318
		c0.082,0.805,0.011,1.623-0.223,2.4c-0.438,1.459-1.442,2.785-3.061,3.641C92.037,126.957,88.872,126.838,86.292,126.742z"/>
</g>
</svg>
