<?xml version="1.0" encoding="utf-8"?>
<!-- Generator: Adobe Illustrator 16.0.0, SVG Export Plug-In . SVG Version: 6.00 Build 0)  -->
<!DOCTYPE svg PUBLIC "-//W3C//DTD SVG 1.1//EN" "http://www.w3.org/Graphics/SVG/1.1/DTD/svg11.dtd">
<svg version="1.1" id="Camada_1" xmlns="http://www.w3.org/2000/svg" xmlns:xlink="http://www.w3.org/1999/xlink" x="0px" y="0px"
	 width="180px" height="150px" viewBox="0 0 180 150" enable-background="new 0 0 180 150" xml:space="preserve">
<g>
	<defs>
		<rect id="SVGID_1_" x="-29.739" y="29.606" width="82.5" height="61.5"/>
	</defs>
	<clipPath id="SVGID_2_">
		<use xlink:href="#SVGID_1_"  overflow="visible"/>
	</clipPath>
</g>
<g>
	<g>
		<path fill="#454545" d="M60.65,79.198c0,2.399-1.964,4.364-4.363,4.364H12.926c-2.398,0-4.364-1.965-4.364-4.364V36.806
			c0-2.4,1.965-4.364,4.364-4.364h43.361c2.399,0,4.363,1.964,4.363,4.364V79.198z"/>
	</g>
	<g>
		<path fill="#646664" d="M116.336,79.198c0,2.399-1.965,4.364-4.365,4.364H68.609c-2.402,0-4.363-1.965-4.363-4.364V36.806
			c0-2.4,1.961-4.364,4.363-4.364h43.36c2.4,0,4.365,1.964,4.365,4.364L116.336,79.198L116.336,79.198z"/>
	</g>
	<g>
		<path fill="#454545" d="M172.017,79.198c0,2.399-1.963,4.364-4.364,4.364h-43.359c-2.4,0-4.365-1.965-4.365-4.364V36.806
			c0-2.4,1.965-4.364,4.365-4.364h43.359c2.401,0,4.364,1.964,4.364,4.364V79.198z"/>
	</g>
	<text transform="matrix(1 0 0 1 7.9761 107.9951)" fill="#494849" font-family="'Arial-BoldMT'" font-size="25.4031">INFO</text>
	<text transform="matrix(0.9856 0 0 1 69.0723 107.9951)" fill="#9A9A99" font-family="'Arial-BoldMT'" font-size="25.4031">SYSTEM</text>
	<g id="Your_Icon">
		<g>
			<path fill="#9A9A99" d="M40.415,45.093L21.697,63.809l8.989,8.99c5.173,5.168,13.548,5.168,18.718,0
				c5.164-5.172,5.164-13.553,0-18.72L40.415,45.093z"/>
			<path fill="#9A9A99" d="M20.998,42.197l8.963,8.961l8.251-8.253C33.404,38.423,26.071,38.185,20.998,42.197z"/>
			<path fill="#9A9A99" d="M27.763,53.354l-8.962-8.959c-4.011,5.072-3.775,12.407,0.709,17.214L27.763,53.354z"/>
		</g>
	</g>
	<g>
		<polygon fill="#9A9A99" points="134.49,56.529 134.484,56.523 134.484,56.529 		"/>
		<polygon fill="#9A9A99" points="126.824,53.91 131.716,59.74 137.479,57.644 132.582,51.812 		"/>
		<g>
			<rect x="161.16" y="64.39" fill="#9A9A99" width="3.957" height="11.092"/>
			<rect x="151.644" y="55.672" fill="#9A9A99" width="3.177" height="13.474"/>
			<rect x="151.644" y="68.352" fill="#9A9A99" width="12.683" height="3.171"/>
		</g>
		<g>
			<path fill="#9A9A99" d="M133.931,50.182l8.812,10.5l22.119-8.052l-4.408-12.104L133.931,50.182z M149.277,53.221
				c0-0.971,0.788-1.757,1.758-1.757c0.973,0,1.758,0.786,1.758,1.757s-0.783,1.758-1.758,1.758
				C150.065,54.979,149.277,54.189,149.277,53.221z"/>
		</g>
	</g>
	<path fill="#9A9A99" d="M102.125,39.07H78.459c-2.6,0-4.736,2.13-4.736,4.735v28.399c0,2.602,2.138,4.733,4.736,4.733h23.668
		c2.602,0,4.729-2.133,4.729-4.733V43.806C106.854,41.2,104.728,39.07,102.125,39.07z M90.289,75.755
		c-1.308,0-2.365-1.061-2.365-2.365c0-1.307,1.06-2.369,2.365-2.369c1.312,0,2.367,1.062,2.367,2.369
		C92.654,74.695,91.599,75.755,90.289,75.755z M102.125,69.838H78.459V43.806h23.668v26.032H102.125z"/>
</g>
</svg>
