<?xml version="1.0" encoding="utf-8"?>
<!-- Generator: Adobe Illustrator 16.0.0, SVG Export Plug-In . SVG Version: 6.00 Build 0)  -->
<!DOCTYPE svg PUBLIC "-//W3C//DTD SVG 1.1//EN" "http://www.w3.org/Graphics/SVG/1.1/DTD/svg11.dtd">
<svg version="1.1"
	 id="svg2" sodipodi:docname="Logo Cognisense.ai" inkscape:version="0.48.3.1 r9886" xmlns:dc="http://purl.org/dc/elements/1.1/" xmlns:cc="http://creativecommons.org/ns#" xmlns:rdf="http://www.w3.org/1999/02/22-rdf-syntax-ns#" xmlns:svg="http://www.w3.org/2000/svg" xmlns:sodipodi="http://sodipodi.sourceforge.net/DTD/sodipodi-0.dtd" xmlns:inkscape="http://www.inkscape.org/namespaces/inkscape"
	 xmlns="http://www.w3.org/2000/svg" xmlns:xlink="http://www.w3.org/1999/xlink" x="0px" y="0px" width="301.175px"
	 height="102.916px" viewBox="0 0 301.175 102.916" enable-background="new 0 0 301.175 102.916" xml:space="preserve">
<g id="g10" transform="matrix(1.25,0,0,-1.25,0,102.91625)" inkscape:groupmode="layer" inkscape:label="Logo Cognisense">
	<g id="g12">
		<g>
			<defs>
				<rect id="SVGID_1_" x="-30.118" y="-10.291" width="301.175" height="102.916"/>
			</defs>
			<clipPath id="SVGID_2_">
				<use xlink:href="#SVGID_1_"  overflow="visible"/>
			</clipPath>
			<g id="g14" clip-path="url(#SVGID_2_)">
				<g id="g20" transform="translate(231.1758,69.3022)">
					<path id="path22" fill="#535353" d="M0,0c1.592-3.717-0.131-8.021-3.848-9.614c-3.717-1.592-8.021,0.128-9.615,3.848
						c-1.593,3.716,0.129,8.021,3.849,9.614C-5.898,5.44-1.594,3.718,0,0"/>
				</g>
				<g id="g24" transform="translate(213.709,75.6826)">
					<path id="path26" fill="#535353" d="M0,0c1.273-2.977-0.104-6.426-3.081-7.701C-6.06-8.977-9.508-7.597-10.784-4.62
						c-1.276,2.978,0.105,6.426,3.081,7.703C-4.725,4.358-1.275,2.978,0,0"/>
				</g>
				<g id="g28" transform="translate(197.7988,78.0903)">
					<path id="path30" fill="#535353" d="M0,0c1.004-2.347-0.085-5.066-2.43-6.07c-2.345-1.007-5.066,0.081-6.072,2.429
						c-1.006,2.347,0.083,5.064,2.43,6.071C-3.726,3.436-1.007,2.349,0,0"/>
				</g>
				<g id="g32" transform="translate(185.8428,77.999)">
					<path id="path34" fill="#535353" d="M0.001,0C0.76-1.773-0.061-3.829-1.836-4.589c-1.775-0.76-3.83,0.062-4.591,1.836
						c-0.759,1.776,0.062,3.83,1.839,4.59C-2.814,2.598-0.76,1.775,0.001,0"/>
				</g>
				<g id="g36" transform="translate(176.248,75.7974)">
					<path id="path38" fill="#535353" d="M0,0c0.533-1.245-0.043-2.688-1.288-3.221C-2.535-3.755-3.977-3.178-4.51-1.932
						c-0.533,1.246,0.042,2.688,1.288,3.223C-1.977,1.823-0.532,1.247,0,0"/>
				</g>
				<g id="g40" transform="translate(170.7861,71.5488)">
					<path id="path42" fill="#535353" d="M-0.001,0c0.397-0.925-0.031-1.995-0.956-2.392c-0.924-0.396-1.994,0.034-2.391,0.957
						C-3.743-0.509-3.315,0.56-2.391,0.956C-1.465,1.352-0.396,0.924-0.001,0"/>
				</g>
				<g id="g44" transform="translate(14.4033,14.583)">
					<path id="path46" fill="#535353" d="M0,0c-1.436,3.78,0.465,8.01,4.246,9.445c3.781,1.436,8.01-0.464,9.445-4.245
						c1.436-3.781-0.464-8.01-4.246-9.445C5.665-5.682,1.436-3.781,0,0"/>
				</g>
				<g id="g48" transform="translate(31.5884,7.4775)">
					<path id="path50" fill="#535353" d="M0,0c-1.15,3.029,0.373,6.416,3.4,7.566c3.029,1.152,6.417-0.373,7.566-3.402
						c1.151-3.027-0.372-6.416-3.4-7.564C4.537-4.552,1.15-3.029,0,0"/>
				</g>
				<g id="g52" transform="translate(47.3838,4.4072)">
					<path id="path54" fill="#535353" d="M0,0c-0.906,2.387,0.294,5.059,2.682,5.962C5.068,6.871,7.74,5.67,8.646,3.283
						c0.906-2.387-0.294-5.058-2.681-5.965C3.578-3.588,0.907-2.389,0,0"/>
				</g>
				<g id="g56" transform="translate(59.3325,3.9971)">
					<path id="path58" fill="#535353" d="M0,0c-0.686,1.805,0.222,3.824,2.027,4.51c1.804,0.684,3.824-0.221,4.51-2.027
						C7.222,0.678,6.313-1.34,4.508-2.027C2.705-2.713,0.686-1.806,0,0"/>
				</g>
				<g id="g60" transform="translate(69.0098,5.7959)">
					<path id="path62" fill="#535353" d="M0,0c-0.481,1.267,0.156,2.684,1.423,3.166C2.69,3.646,4.107,3.01,4.587,1.742
						c0.482-1.266-0.154-2.68-1.421-3.163C1.898-1.902,0.482-1.268,0,0"/>
				</g>
				<g id="g64" transform="translate(74.6455,9.8135)">
					<path id="path66" fill="#535353" d="M0,0c-0.357,0.941,0.116,1.992,1.056,2.35c0.94,0.357,1.992-0.116,2.348-1.057
						c0.358-0.939-0.114-1.99-1.055-2.348C1.408-1.413,0.356-0.939,0,0"/>
				</g>
				<g id="g68" transform="translate(25.0078,38.04)">
					<path id="path70" fill="#535353" d="M0,0v-0.179C0-5.93-2.534-8.805-7.599-8.805h-7.733c-4.857,0-7.285,3.009-7.285,9.028
						v5.855c0,1.49,0.163,2.794,0.492,3.911c0.327,1.118,0.849,2.093,1.564,2.927c1.52,1.669,3.337,2.504,5.453,2.504h7.509
						c2.325,0,4.142-0.671,5.453-2.011C-0.715,11.89,0,9.699,0,6.838c0-0.297-0.119-0.446-0.358-0.446h-2.503
						c-0.239,0-0.357,0.149-0.357,0.446v0.046c0,3.247-1.46,4.871-4.381,4.871h-7.509c-1.46,0-2.526-0.476-3.196-1.429
						c-0.671-0.955-1.006-2.37-1.006-4.247V0.223c0-1.609,0.365-2.905,1.095-3.889c0.731-0.983,1.692-1.475,2.883-1.475h7.733
						c2.921,0,4.381,1.625,4.381,4.873v0.089c0,0.269,0.118,0.402,0.357,0.402h2.503h0.045c0.029,0,0.059-0.016,0.09-0.045L0,0z"/>
				</g>
				<g id="g72" transform="translate(47.8027,43.9399)">
					<path id="path74" fill="#A8A8A8" d="M0,0c0,3.904-1.609,5.855-4.827,5.855h-6.392c-3.218,0-4.827-1.966-4.827-5.899v-5.141
						c0-3.934,1.609-5.9,4.827-5.9h6.392c3.218,0,4.827,1.966,4.827,5.9V0z M1.14-12.314c-1.386-1.594-3.3-2.391-5.744-2.391h-6.883
						c-5.274,0-7.912,3.173-7.912,9.52v5.141c0,3.188,0.686,5.603,2.057,7.24c0.744,0.745,1.593,1.319,2.547,1.721
						c0.954,0.404,2.056,0.604,3.308,0.604h6.883c2.414,0,4.321-0.79,5.722-2.369c0.744-0.834,1.281-1.848,1.609-3.04
						c0.327-1.191,0.491-2.578,0.491-4.156v-5.141C3.218-8.343,2.525-10.72,1.14-12.314"/>
				</g>
				<g id="g76" transform="translate(73.728,43.3589)">
					<path id="path78" fill="#A8A8A8" d="M0,0c0,4.41-1.669,6.615-5.007,6.615h-5.721c-1.818,0-3.1-0.416-3.844-1.25
						c-0.418-0.508-0.753-1.186-1.005-2.035c-0.254-0.849-0.381-1.884-0.381-3.106v-4.738c0-3.963,1.744-5.945,5.23-5.945h5.721
						c1.49,0,2.696,0.5,3.621,1.498C-0.463-7.963,0-6.481,0-4.514V0z M2.659-19.622c-0.343-1.163-0.887-2.086-1.631-2.771
						c-1.312-1.164-3.159-1.744-5.543-1.744h-6.883c-1.819,0-3.368,0.477-4.649,1.43c-0.775,0.597-1.363,1.334-1.766,2.211
						c-0.402,0.881-0.603,1.888-0.603,3.019c0,0.269,0.134,0.402,0.402,0.402h2.727c0.238,0,0.358-0.133,0.358-0.402
						c0-1.102,0.431-1.891,1.295-2.367h-0.044c0.327-0.18,0.708-0.33,1.14-0.448c0.432-0.119,0.901-0.179,1.408-0.179h6.437
						c3.068,0,4.603,1.699,4.603,5.096v2.859c-0.893-1.071-2.369-1.608-4.425-1.608h-7.062c-5.126,0-7.688,3.055-7.688,9.162v5.498
						c0,6.495,2.473,9.745,7.419,9.745h7.242c1.042,0,2.018-0.142,2.927-0.426c0.909-0.284,1.714-0.745,2.414-1.385
						c0.7-0.642,1.266-1.483,1.699-2.525c0.431-1.044,0.677-2.325,0.737-3.845v-17.566C3.173-17.075,3.001-18.46,2.659-19.622"/>
				</g>
				<g id="g80" transform="translate(100.188,29.2354)">
					<path id="path82" fill="#A8A8A8" d="M0,0c-0.239,0-0.357,0.134-0.357,0.402v14.08c0,1.877-0.433,3.346-1.297,4.403
						c-0.865,1.058-1.966,1.587-3.307,1.587h-6.571c-1.311,0-2.414-0.536-3.308-1.61c-0.893-1.071-1.341-2.532-1.341-4.38V0.401
						C-16.181,0.134-16.33,0-16.627,0h-2.503c-0.239,0-0.358,0.134-0.358,0.402v13.634c0,3.218,0.7,5.714,2.1,7.486
						c1.401,1.773,3.353,2.659,5.856,2.659h6.571c2.473,0,4.402-0.87,5.788-2.614c1.386-1.744,2.078-4.269,2.078-7.576V0.401
						C2.905,0.134,2.771,0,2.503,0H0z"/>
				</g>
				<g id="g84" transform="translate(106.6245,29.2354)">
					<path id="path86" fill="#A8A8A8" d="M0,0c-0.209,0-0.313,0.134-0.313,0.402v23.6c0,0.27,0.104,0.404,0.313,0.404h2.37
						c0.178,0,0.268-0.134,0.268-0.404v-23.6C2.638,0.134,2.548,0,2.37,0H0z M0,29.679c-0.209,0-0.313,0.149-0.313,0.447v3.397
						c0,0.269,0.104,0.402,0.313,0.402h2.37c0.178,0,0.268-0.133,0.268-0.402v-3.397c0-0.298-0.09-0.447-0.268-0.447H0z"/>
				</g>
				<g id="g88" transform="translate(131.3418,45.2358)">
					<path id="path90" fill="#535353" d="M0,0c-0.24,0-0.357,0.15-0.357,0.448c0,0.864-0.06,1.587-0.179,2.168
						c-0.12,0.58-0.269,0.99-0.447,1.23c-0.478,0.476-1.371,0.713-2.683,0.713h-9.477c-1.043,0-1.757-0.26-2.145-0.782
						c-0.387-0.521-0.581-1.512-0.581-2.971c0-0.389,0.037-0.679,0.112-0.872c0.074-0.194,0.201-0.336,0.38-0.424
						c0.179-0.091,0.417-0.142,0.715-0.157c0.298-0.016,0.67-0.039,1.118-0.066c0.148,0,0.297-0.032,0.446-0.091
						c0-0.06,0.409-0.097,1.23-0.112c0.819-0.015,2.005-0.052,3.553-0.111c0.477-0.03,0.939-0.044,1.385-0.044
						c0.477,0,0.984-0.016,1.521-0.046c1.28,0,2.376-0.18,3.284-0.539c0.909-0.361,1.677-0.795,2.302-1.304
						c0.865-0.691,1.498-1.62,1.899-2.788C2.481-6.917,2.682-8.311,2.682-9.93c0-4.048-2.13-6.07-6.393-6.07h-9.431
						c-1.072,0-2.019,0.139-2.838,0.423c-0.82,0.284-1.452,0.723-1.899,1.319c-0.805,1.162-1.208,3.189-1.208,6.08
						c0,0.269,0.12,0.402,0.358,0.402h2.458c0.269,0,0.403-0.133,0.403-0.402c0-1.788,0.194-2.936,0.581-3.444
						c0.15-0.297,0.432-0.498,0.849-0.602c0.417-0.105,0.938-0.157,1.565-0.157h9.117c1.163,0,2.005,0.255,2.527,0.769
						c0.52,0.513,0.782,1.524,0.782,3.03c0,0.873-0.298,1.567-0.894,2.081C-1.938-5.99-2.704-5.597-3.643-5.326
						c-0.939,0.27-1.967,0.445-3.084,0.52c-1.119,0.075-2.2,0.113-3.241,0.113h-1.476c-0.983,0-1.93,0.027-2.838,0.089
						c-0.909,0.059-1.706,0.223-2.391,0.492c-0.954,0.327-1.587,1.049-1.9,2.168c-0.313,1.117-0.47,2.436-0.47,3.955
						c0,2.057,0.641,3.695,1.922,4.917c1.223,0.863,2.623,1.297,4.202,1.297h8.895c2.384,0,4.097-0.522,5.141-1.566
						C2.22,5.379,2.771,3.309,2.771,0.448C2.771,0.15,2.652,0,2.413,0H0z"/>
				</g>
				<g id="g92" transform="translate(142.7168,48.3657)">
					<path id="path94" fill="#A8A8A8" d="M0,0c-0.729-0.955-1.125-2.146-1.184-3.576h16.091c-0.088,1.519-0.53,2.733-1.319,3.642
						c-0.789,0.91-1.764,1.363-2.927,1.363H2.748C1.646,1.429,0.73,0.954,0,0 M17.655-14.863c-0.312-0.909-0.811-1.706-1.495-2.39
						c-1.164-1.252-2.67-1.877-4.516-1.877H3.24c-5.155,0-7.73,3.039-7.73,9.117v5.633c0,2.83,0.714,5.14,2.145,6.927
						c1.548,1.699,3.38,2.549,5.498,2.549h7.195c1.103,0,2.094-0.179,2.973-0.537c0.878-0.357,1.675-0.865,2.391-1.52
						c0.804-0.776,1.408-1.72,1.81-2.838s0.604-2.333,0.604-3.642v-3.398c0-0.298-0.135-0.448-0.402-0.448H-1.184v-2.279
						c0-3.933,1.445-5.9,4.336-5.9h8.134c1.312,0,2.273,0.373,2.883,1.117c0.61,0.746,0.917,2.013,0.917,3.8v0.452
						c0.388,0.061,0.699,0.098,0.938,0.114c0.239,0.013,0.448,0.022,0.627,0.022h0.715c0.507,0,0.76-0.149,0.76-0.447v-1.347
						C18.125-12.917,17.968-13.955,17.655-14.863"/>
				</g>
				<g id="g96" transform="translate(183.9951,29.2354)">
					<path id="path98" fill="#A8A8A8" d="M0,0c-0.239,0-0.356,0.134-0.356,0.402v14.08c0,1.877-0.434,3.346-1.298,4.403
						c-0.866,1.058-1.966,1.587-3.308,1.587h-6.57c-1.312,0-2.414-0.536-3.309-1.61c-0.895-1.071-1.341-2.532-1.341-4.38V0.401
						c0-0.267-0.15-0.402-0.447-0.402h-2.503c-0.239,0-0.356,0.134-0.356,0.402v13.634c0,3.218,0.701,5.714,2.1,7.486
						c1.401,1.773,3.353,2.659,5.856,2.659h6.57c2.474,0,4.402-0.87,5.788-2.614c1.386-1.744,2.078-4.269,2.078-7.576V0.401
						C2.905,0.134,2.771,0,2.503,0H0z"/>
				</g>
				<g id="g100" transform="translate(209.6963,45.2358)">
					<path id="path102" fill="#A8A8A8" d="M0,0c-0.239,0-0.357,0.15-0.357,0.448c0,0.864-0.062,1.587-0.18,2.168
						c-0.119,0.58-0.267,0.99-0.447,1.23c-0.477,0.476-1.37,0.713-2.683,0.713h-9.477c-1.042,0-1.756-0.26-2.145-0.782
						c-0.387-0.521-0.58-1.512-0.58-2.971c0-0.389,0.037-0.679,0.111-0.872c0.073-0.194,0.203-0.336,0.38-0.424
						c0.181-0.091,0.418-0.142,0.716-0.157c0.299-0.016,0.672-0.039,1.117-0.066c0.149,0,0.299-0.032,0.446-0.091
						c0-0.06,0.411-0.097,1.23-0.112c0.822-0.015,2.005-0.052,3.555-0.111c0.475-0.03,0.937-0.044,1.384-0.044
						c0.478,0,0.984-0.016,1.52-0.046c1.281,0,2.377-0.18,3.285-0.539c0.909-0.361,1.677-0.795,2.302-1.304
						c0.864-0.691,1.497-1.62,1.898-2.788C2.481-6.917,2.681-8.311,2.681-9.93c0-4.048-2.131-6.07-6.392-6.07h-9.433
						c-1.072,0-2.016,0.139-2.836,0.423c-0.82,0.284-1.452,0.723-1.9,1.319c-0.805,1.162-1.208,3.189-1.208,6.08
						c0,0.269,0.12,0.402,0.358,0.402h2.459c0.27,0,0.402-0.133,0.402-0.402c0-1.788,0.194-2.936,0.58-3.444
						c0.149-0.297,0.432-0.498,0.85-0.602c0.417-0.105,0.938-0.157,1.564-0.157h9.12c1.161,0,2.002,0.255,2.525,0.769
						c0.52,0.513,0.783,1.524,0.783,3.03c0,0.873-0.298,1.567-0.895,2.081C-1.938-5.99-2.704-5.597-3.644-5.326
						c-0.938,0.27-1.966,0.445-3.084,0.52C-7.846-4.73-8.927-4.692-9.969-4.692h-1.473c-0.985,0-1.931,0.027-2.84,0.089
						c-0.909,0.059-1.704,0.223-2.39,0.492c-0.955,0.327-1.588,1.049-1.902,2.168c-0.314,1.117-0.467,2.436-0.467,3.955
						c0,2.057,0.638,3.695,1.92,4.917c1.222,0.863,2.622,1.297,4.202,1.297h8.895c2.384,0,4.097-0.522,5.142-1.566
						c1.101-1.281,1.652-3.351,1.652-6.212C2.771,0.15,2.651,0,2.412,0H0z"/>
				</g>
				<g id="g104" transform="translate(221.0723,48.3657)">
					<path id="path106" fill="#A8A8A8" d="M0,0c-0.73-0.955-1.126-2.146-1.185-3.576h16.091c-0.088,1.519-0.53,2.733-1.319,3.642
						c-0.789,0.91-1.765,1.363-2.928,1.363H2.748C1.646,1.429,0.729,0.954,0,0 M17.654-14.863c-0.312-0.909-0.811-1.706-1.495-2.39
						c-1.164-1.252-2.67-1.877-4.516-1.877H3.239c-5.155,0-7.73,3.039-7.73,9.117v5.633c0,2.83,0.714,5.14,2.145,6.927
						c1.547,1.699,3.38,2.549,5.496,2.549h7.197c1.102,0,2.093-0.179,2.973-0.537c0.878-0.357,1.675-0.865,2.391-1.52
						c0.805-0.776,1.408-1.72,1.811-2.838c0.402-1.118,0.603-2.333,0.603-3.642v-3.398c0-0.298-0.134-0.448-0.402-0.448H-1.185
						v-2.279c0-3.933,1.445-5.9,4.335-5.9h8.135c1.312,0,2.273,0.373,2.883,1.117c0.61,0.746,0.917,2.013,0.917,3.8v0.452
						c0.387,0.061,0.698,0.098,0.938,0.114c0.238,0.013,0.447,0.022,0.627,0.022h0.713c0.508,0,0.761-0.149,0.761-0.447v-1.347
						C18.124-12.917,17.968-13.955,17.654-14.863"/>
				</g>
			</g>
		</g>
	</g>
</g>
</svg>
