<?xml version="1.0" encoding="utf-8"?>
<!-- Generator: Adobe Illustrator 16.0.0, SVG Export Plug-In . SVG Version: 6.00 Build 0)  -->
<!DOCTYPE svg PUBLIC "-//W3C//DTD SVG 1.1//EN" "http://www.w3.org/Graphics/SVG/1.1/DTD/svg11.dtd">
<svg version="1.1" id="Camada_1" xmlns="http://www.w3.org/2000/svg" xmlns:xlink="http://www.w3.org/1999/xlink" x="0px" y="0px"
	 width="180px" height="150px" viewBox="0 0 180 150" enable-background="new 0 0 180 150" xml:space="preserve">
<g>
	<path fill="#FFFFFF" d="M99.081,82.537c-6.258,0-13.159-0.045-13.159-0.045l0.043-7.543l-10.114-0.043l-0.042,7.576
		c0,0-3.086-0.023-4.114,0c-1.705,0.037-5.272,0.354-8.315,3.912v-3.912h-1.586l9.321-7.506l-12.798,0.018l-6.674,9.222
		c0,0-2.192-1.509-5.879-1.733H31.364l-0.03-7.518H14.648c0,0-9.487,0.332-10.287,8.564c-0.083,0.876,0,3.85,0,3.85
		s0.344,4.972,5.101,6.9c0.986,0.43,3.729,1.072,5.186,1.072h5.743c0,0,1.243,0.084,1.328,0.342
		c0.084,0.258,0.042,2.014,0.042,2.014s0.087,0.43-1.027,0.43H4.748v9.258h16.586c0,0,6.644,0.129,9.729-4.028
		c2.1,3.642,5.038,3.775,7.285,4.028h25.031v-4.028c0,0,2.614,3.642,7.328,4.09c0.772,0.022,15.173,0,15.173,0v-1.776
		c0,0,1.929,1.584,5.486,1.776c0.643-0.019,16.34,0,16.34,0V89.998C107.706,85.556,103.632,82.537,99.081,82.537"/>
	<path fill="#9A9A99" d="M99.081,82.537c-6.258,0-13.159-0.045-13.159-0.045l0.043-7.543l-10.114-0.043l-0.042,7.576
		c0,0-3.086-0.023-4.114,0c-1.705,0.037-5.272,0.354-8.315,3.912v-3.912h-1.586l9.321-7.506l-12.798,0.018l-6.674,9.222
		c0,0-2.192-1.509-5.879-1.733H31.364l-0.03-7.518H14.648c0,0-9.487,0.332-10.287,8.564c-0.083,0.876,0,3.85,0,3.85
		s0.344,4.972,5.101,6.9c0.986,0.43,3.729,1.072,5.186,1.072h5.743c0,0,1.243,0.084,1.328,0.342
		c0.084,0.258,0.042,2.014,0.042,2.014s0.087,0.43-1.027,0.43H4.748v9.258h16.586c0,0,6.644,0.129,9.729-4.028
		c2.1,3.642,5.038,3.775,7.285,4.028h25.031v-4.028c0,0,2.614,3.642,7.328,4.09c0.772,0.022,15.173,0,15.173,0v-1.776
		c0,0,1.929,1.584,5.486,1.776c0.643-0.019,16.34,0,16.34,0V89.998C107.706,85.556,103.632,82.537,99.081,82.537z"/>
	<g>
		<defs>
			<path id="SVGID_1_" d="M16.592,76.977c-6.909,0-10.361,2.61-10.361,7.821v1.582c0,4.68,3.211,7.014,9.636,7.014h4.29
				c2.303,0,3.456,0.839,3.456,2.517v1.66c0,1.81-1.19,2.718-3.568,2.718H6.564v5.105h13.513c6.962,0,10.441-2.606,10.441-7.823
				v-1.66c0-4.678-3.212-7.017-9.639-7.017h-4.288c-2.304,0-3.452-0.837-3.452-2.514v-1.582c0-1.808,1.148-2.714,3.452-2.714h12.533
				v-5.107H16.592z"/>
		</defs>
		<clipPath id="SVGID_2_">
			<use xlink:href="#SVGID_1_"  overflow="visible"/>
		</clipPath>
		
			<linearGradient id="SVGID_3_" gradientUnits="userSpaceOnUse" x1="384.0879" y1="-255.2344" x2="384.4531" y2="-255.2344" gradientTransform="matrix(0 -77.7474 -77.7474 0 -19825.4375 29967.1797)">
			<stop  offset="0" style="stop-color:#25A6DF"/>
			<stop  offset="0.1133" style="stop-color:#219BD3"/>
			<stop  offset="0.3594" style="stop-color:#1986C1"/>
			<stop  offset="0.5952" style="stop-color:#1279B5"/>
			<stop  offset="0.8143" style="stop-color:#0B71AF"/>
			<stop  offset="1" style="stop-color:#096FAD"/>
		</linearGradient>
		<rect x="6.231" y="76.977" clip-path="url(#SVGID_2_)" fill="url(#SVGID_3_)" width="24.288" height="28.417"/>
	</g>
	<path fill="#646664" d="M6.564,105.394v-5.105h13.481c2.378,0,3.568-0.908,3.568-2.718v-1.658c0-1.68-1.153-2.519-3.456-2.519
		h-4.29c-6.425,0-9.636-2.334-9.636-7.014v-1.582c0-5.211,3.452-7.821,10.361-7.821h12.533v5.107H16.592
		c-2.304,0-3.453,0.906-3.453,2.714v1.582c0,1.677,1.149,2.514,3.453,2.514h4.289c6.426,0,9.639,2.339,9.639,7.019v1.658
		c0,5.217-3.48,7.823-10.442,7.823H6.564z"/>
	<g>
		<defs>
			<path id="SVGID_4_" d="M37.822,99.395v-1.218c0-1.052,0.606-1.575,1.814-1.575h7.412v4.213h-7.412
				C38.428,100.814,37.822,100.339,37.822,99.395 M33.788,84.595v4.95h10.841c1.612,0,2.42,0.714,2.42,2.147v1.175H38.83
				c-4.403,0-6.604,1.623-6.604,4.865v2.026c0,3.759,2.185,5.635,6.554,5.635h14.016V91.529c0-4.621-2.724-6.935-8.167-6.935H33.788
				z"/>
		</defs>
		<use xlink:href="#SVGID_4_"  overflow="visible" fill="#646664"/>
		<clipPath id="SVGID_5_">
			<use xlink:href="#SVGID_4_"  overflow="visible"/>
		</clipPath>
		<rect x="32.225" y="84.595" clip-path="url(#SVGID_5_)" fill="#646664" width="20.57" height="20.799"/>
	</g>
	<path fill="#646664" d="M38.779,105.394c-4.369,0-6.554-1.876-6.554-5.635v-2.026c0-3.24,2.201-4.865,6.604-4.865h8.219v-1.175
		c0-1.434-0.808-2.147-2.42-2.147H33.787v-4.95h10.841c5.443,0,8.167,2.313,8.167,6.935v13.864H38.779z M47.048,96.602h-7.413
		c-1.208,0-1.813,0.523-1.813,1.575v1.218c0,0.946,0.606,1.42,1.813,1.42h7.413V96.602z"/>
	<g>
		<defs>
			<path id="SVGID_6_" d="M55.053,105.394h6.051V84.595h-6.051V105.394z M55.254,82.424l3.06,0.09l6.609-5.411l-5.763-0.046
				L55.254,82.424z"/>
		</defs>
		<use xlink:href="#SVGID_6_"  overflow="visible" fill="#646664"/>
		<clipPath id="SVGID_7_">
			<use xlink:href="#SVGID_6_"  overflow="visible"/>
		</clipPath>
		<rect x="55.053" y="77.057" clip-path="url(#SVGID_7_)" fill="#646664" width="9.87" height="28.337"/>
	</g>
	<path fill="#646664" d="M58.314,82.514l-3.06-0.09l3.905-5.367l5.764,0.046L58.314,82.514z M55.053,84.595h6.051v20.799h-6.051
		V84.595z"/>
	<g>
		<defs>
			<path id="SVGID_8_" d="M68.562,97.463c-0.309-1.551-0.131-3.373,0.044-4.657c0.313-1.463,1.553-3.235,3.461-3.415l5.56,0.045
				v11.355l-5.293,0.045C70.249,100.791,68.962,99.016,68.562,97.463 M77.627,76.977v7.618h-6.201c-4.55,0-7.431,3.155-8.542,6.748
				c-0.531,2.747-0.546,4.948,0.178,7.494c1.111,3.641,4.349,6.699,8.364,6.557h12.201V76.977H77.627z"/>
		</defs>
		<use xlink:href="#SVGID_8_"  overflow="visible" fill="#646664"/>
		<clipPath id="SVGID_9_">
			<use xlink:href="#SVGID_8_"  overflow="visible"/>
		</clipPath>
		<rect x="62.337" y="76.977" clip-path="url(#SVGID_9_)" fill="#646664" width="21.29" height="28.56"/>
	</g>
	<g>
		<defs>
			<path id="SVGID_10_" d="M90.826,99.395v-1.218c0-1.052,0.603-1.575,1.815-1.575h7.411v4.213h-7.411
				C91.429,100.814,90.826,100.339,90.826,99.395 M86.791,84.595v4.95h10.84c1.611,0,2.42,0.714,2.42,2.147v1.175h-8.217
				c-4.404,0-6.605,1.623-6.605,4.865v2.026c0,3.759,2.184,5.635,6.555,5.635h14.015V91.529c0-4.621-2.721-6.935-8.167-6.935H86.791
				z"/>
		</defs>
		<use xlink:href="#SVGID_10_"  overflow="visible" fill="#646664"/>
		<clipPath id="SVGID_11_">
			<use xlink:href="#SVGID_10_"  overflow="visible"/>
		</clipPath>
		<rect x="85.229" y="84.595" clip-path="url(#SVGID_11_)" fill="#646664" width="20.569" height="20.799"/>
	</g>
	<path fill="#646664" d="M91.784,105.394c-4.371,0-6.555-1.876-6.555-5.635v-2.026c0-3.24,2.201-4.865,6.605-4.865h8.218v-1.175
		c0-1.434-0.81-2.147-2.421-2.147h-10.84v-4.95h10.84c5.447,0,8.167,2.313,8.167,6.935v13.864H91.784z M100.052,96.602h-7.411
		c-1.212,0-1.815,0.523-1.815,1.575v1.218c0,0.946,0.603,1.42,1.815,1.42h7.411V96.602z"/>
	<path fill="#FFFFFF" d="M113.387,102.873l3.063,7.171c0,0,2.353,5.505,8.834,4.085c1.021-0.355,46.434-19.531,46.434-19.531
		s6.038-3.198,3.196-10.034c-0.444-1.154-19-45.104-19-45.104s-3.019-5.459-9.5-3.328c-0.933,0.397-44.985,18.941-44.985,18.941
		s-6.245,2.899-4.025,9.767c0.812,2.515,5.682,13.332,5.682,13.332L113.387,102.873z"/>
	<path fill="#9A9A99" d="M113.387,102.873l3.063,7.171c0,0,2.353,5.505,8.834,4.085c1.021-0.355,46.434-19.531,46.434-19.531
		s6.038-3.198,3.196-10.034c-0.444-1.154-19-45.104-19-45.104s-3.019-5.459-9.5-3.328c-0.933,0.397-44.985,18.941-44.985,18.941
		s-6.245,2.899-4.025,9.767c0.812,2.515,5.682,13.332,5.682,13.332L113.387,102.873z"/>
	<path fill="#646664" d="M173.122,85.79c1.186,2.815-0.139,6.055-2.953,7.241l-44.648,18.792c-2.816,1.185-6.058-0.137-7.243-2.954
		L99.483,64.221c-1.185-2.812,0.138-6.058,2.954-7.241l44.649-18.793c2.815-1.188,6.057,0.135,7.244,2.954L173.122,85.79z"/>
	<path fill="#494849" d="M133.374,43.979l25.273,7.453c0,0-3.168-7.652-4.274-10.144c-0.85-2.458-4.065-4.524-7.375-3.058
		C143.311,39.786,133.374,43.979,133.374,43.979"/>
	<polygon fill="#FFFFFF" points="117.575,98.837 107.071,74.29 112.891,74.29 120.156,92.09 127.47,74.29 133.062,74.29 
		122.975,98.837 	"/>
	<polygon fill="none" stroke="#A6A8AC" stroke-width="0.1827" stroke-miterlimit="10" points="117.575,98.837 107.071,74.29 
		112.891,74.29 120.156,92.09 127.47,74.29 133.062,74.29 122.975,98.837 	"/>
	<rect x="134.447" y="74.29" fill="#FFFFFF" width="5.4" height="24.547"/>
	
		<rect x="134.447" y="74.29" fill="none" stroke="#A6A8AC" stroke-width="0.1827" stroke-miterlimit="10" width="5.4" height="24.547"/>
	<path fill="#FFFFFF" d="M142.494,98.837V74.29h12.827c5.834,0,8.751,2.147,8.751,6.44v3.083c0,4.157-2.908,6.232-8.722,6.232
		h-7.712v8.791H142.494z M158.062,80.712c-0.407-1.314-1.96-2.012-3.347-2.012h-7.077v7.033h7.077c1.581,0,2.971-0.664,3.347-2.059
		C158.384,82.488,158.436,81.93,158.062,80.712"/>
	<path fill="none" stroke="#A6A8AC" stroke-width="0.1827" stroke-miterlimit="10" d="M142.494,98.837V74.29h12.827
		c5.834,0,8.751,2.147,8.751,6.44v3.083c0,4.157-2.908,6.232-8.722,6.232h-7.712v8.791H142.494z M158.062,80.712
		c-0.407-1.314-1.96-2.012-3.347-2.012h-7.077v7.033h7.077c1.581,0,2.971-0.664,3.347-2.059
		C158.384,82.488,158.436,81.93,158.062,80.712z"/>
</g>
</svg>
