<?xml version="1.0" encoding="utf-8"?>
<!-- Generator: Adobe Illustrator 16.0.0, SVG Export Plug-In . SVG Version: 6.00 Build 0)  -->
<!DOCTYPE svg PUBLIC "-//W3C//DTD SVG 1.1//EN" "http://www.w3.org/Graphics/SVG/1.1/DTD/svg11.dtd">
<svg version="1.1" xmlns="http://www.w3.org/2000/svg" xmlns:xlink="http://www.w3.org/1999/xlink" x="0px" y="0px" width="1200px"
	 height="1311.322px" viewBox="0 0 1200 1311.322" enable-background="new 0 0 1200 1311.322" xml:space="preserve">
<g id="Layer_1" display="none">
	
		<image display="inline" overflow="visible" width="1200" height="1100" xlink:href="bg-banner-neovu.jpg"  transform="matrix(1 0 0 1 0 211.3218)">
	</image>
</g>
<g id="Layer_2">
	<g>
		<defs>
			<circle id="SVGID_1_" cx="-372.031" cy="1437.353" r="126"/>
		</defs>
		<clipPath id="SVGID_2_">
			<use xlink:href="#SVGID_1_"  overflow="visible"/>
		</clipPath>
		<g id="lNABI5_1_" clip-path="url(#SVGID_2_)">
			
				<image overflow="visible" width="450" height="470" id="lNABI5" xlink:href="134D1470A2A64BC3.jpg"  transform="matrix(1.3311 -0.3586 0.3586 1.3311 -650.9941 1375.8628)">
			</image>
		</g>
	</g>
	<g>
		<ellipse fill="#EDEDEE" cx="600.664" cy="1271.031" rx="579.336" ry="21.291"/>
		<g>
			<g>
				<path fill="#40B1A4" d="M1180,1212.919c0,33.194-27.158,60.353-60.353,60.353H810.053c-33.194,0-60.353-27.158-60.353-60.353
					V325.109c0-33.193,27.158-60.352,60.353-60.352h309.595c33.194,0,60.353,27.159,60.353,60.352V1212.919z"/>
			</g>
			<g>
				<path fill="#3C3D70" d="M1135.177,1212.919c0,33.194-27.158,60.353-60.353,60.353H765.229
					c-33.194,0-60.353-27.158-60.353-60.353V325.109c0-33.193,27.158-60.352,60.353-60.352h309.595
					c33.194,0,60.353,27.159,60.353,60.352V1212.919z"/>
			</g>
			<circle fill="#380137" cx="920.027" cy="1219.485" r="44.823"/>
			<g>
				<path fill="#FFD638" d="M1101.56,1146.268c0,6.988-5.718,12.706-12.706,12.706H755.683c-6.988,0-12.706-5.718-12.706-12.706
					v-758.99c0-6.988,5.718-12.706,12.706-12.706h333.171c6.988,0,12.706,5.718,12.706,12.706V1146.268z"/>
			</g>
			<g>
				<path fill="#4A013C" d="M964.85,330.871c0,6.779-5.718,12.326-12.706,12.326H887.91c-6.988,0-12.706-5.547-12.706-12.326
					s5.718-12.326,12.706-12.326h64.233C959.132,318.544,964.85,324.091,964.85,330.871z"/>
			</g>
			<g>
				<path fill="#C9EEDF" d="M1168.794,483.824c0,5.241-4.288,9.529-9.529,9.529h-3.353c-5.241,0-9.529-4.288-9.529-9.529v-99.722
					c0-5.241,4.288-9.529,9.529-9.529h3.353c5.241,0,9.529,4.288,9.529,9.529V483.824z"/>
			</g>
		</g>
		<polygon fill="#AB016F" points="462.833,1236.444 518.862,1273.272 801.246,780.705 729.53,762.291 		"/>
		<circle fill="#45003A" cx="126.662" cy="1250.861" r="22.411"/>
		<circle fill="#45003A" cx="374.308" cy="1250.861" r="22.411"/>
		<circle fill="#45003A" cx="620.834" cy="1250.861" r="22.412"/>
		<g>
			<path fill="#2E9B91" d="M140.109,1238.155c0,6.988-5.042,12.706-11.206,12.706c-6.164,0-11.206-5.718-11.206-12.706v-57.511
				c0-6.988,5.042-12.706,11.206-12.706c6.163,0,11.206,5.718,11.206,12.706V1238.155z"/>
		</g>
		<g>
			<path fill="#2E9B91" d="M386.635,1238.155c0,6.988-5.042,12.706-11.206,12.706c-6.163,0-11.206-5.718-11.206-12.706v-57.511
				c0-6.988,5.042-12.706,11.206-12.706c6.164,0,11.206,5.718,11.206,12.706V1238.155z"/>
		</g>
		<g>
			<path fill="#2E9B91" d="M632.04,1238.155c0,6.988-5.043,12.706-11.206,12.706c-6.162,0-11.205-5.718-11.205-12.706v-57.511
				c0-6.988,5.043-12.706,11.205-12.706c6.163,0,11.206,5.718,11.206,12.706V1238.155z"/>
		</g>
		<polygon fill="#F3F4F4" points="666.777,1185.868 375.429,1185.868 375.429,957.271 628.679,957.271 		"/>
		<polygon fill="#C1EADB" points="418.011,1185.868 79.598,1185.868 113.215,957.271 384.394,957.271 		"/>
		<g>
			<path fill="#B30272" d="M477.562,890.674c-11.662,19.488-37.149,25.892-56.638,14.229l-2.196-1.314
				c-19.488-11.662-25.892-37.149-14.229-56.638l138.173-230.897c11.662-19.489,37.149-25.892,56.638-14.23l2.197,1.315
				c19.488,11.662,25.892,37.149,14.229,56.637L477.562,890.674z"/>
		</g>
		<path fill="#FF3C38" d="M1008.354,1158.974h76.198c0,0-255.945-562.714-341.575-578.353c-17.729,0-181.263,0-181.263,0
			l-20.17,31.513c0,0-19.518,114.298,72.369,168.086c132.228,59.889,177.05-4.482,177.05-4.482L1008.354,1158.974z"/>
		<g>
			<path fill="#FC7500" d="M634.223,874.773c-11.662,19.488-37.149,25.892-56.638,14.229l-2.197-1.314
				c-19.488-11.662-25.892-37.149-14.229-56.638l138.174-230.897c11.662-19.488,37.149-25.892,56.638-14.23l2.198,1.315
				c19.488,11.662,25.892,37.149,14.229,56.637L634.223,874.773z"/>
		</g>
		<circle fill="#FFE542" cx="595.643" cy="860.849" r="44.823"/>
		<circle fill="#3C3C6F" cx="592.282" cy="878.208" r="47.647"/>
		
			<line fill="none" stroke="#FFFFFF" stroke-width="15.688" stroke-linecap="round" stroke-linejoin="round" stroke-miterlimit="10" x1="1045.531" y1="402.729" x2="922.269" y2="559.608"/>
		
			<line fill="none" stroke="#FFFFFF" stroke-width="25.376" stroke-linecap="round" stroke-linejoin="round" stroke-miterlimit="10" x1="1082.971" y1="402.729" x2="884.829" y2="658.078"/>
		<g>
			<path fill="#3B0137" d="M633.078,491.104c-10.122-18.358-33.425-25.098-51.784-14.975l-15.523,8.559
				c-18.359,10.123-25.098,33.425-14.976,51.784l44.349,80.436c10.122,18.358,33.425,25.098,51.784,14.975l15.523-8.559
				c18.359-10.123,25.098-33.425,14.976-51.784L633.078,491.104z"/>
		</g>
		<g>
			<path fill="#FB739C" d="M619.631,467.343c-10.122-18.358-33.425-25.098-51.784-14.975l-15.523,8.559
				c-18.359,10.123-25.098,33.425-14.976,51.784l44.349,80.436c10.123,18.358,33.425,25.098,51.784,14.976l15.523-8.56
				c18.359-10.122,25.098-33.425,14.976-51.783L619.631,467.343z"/>
		</g>
		<circle fill="#FB739C" cx="584.438" cy="558.488" r="42.933"/>
		<circle fill="#FB739C" cx="632.1" cy="497.642" r="13.447"/>
		<path fill="none" stroke="#359F9C" stroke-width="28.0143" stroke-miterlimit="10" d="M614.111,957.271
			c0-87.361-157.889-58.064-208.427-58.271"/>
		<circle fill="#B6E4D0" cx="563.685" cy="894.441" r="53.788"/>
		<circle fill="#FFE542" cx="439.884" cy="872.054" r="44.823"/>
		<circle fill="#3C3C6F" cx="430.92" cy="889.414" r="47.647"/>
		
			<line fill="none" stroke="#3E0239" stroke-width="8.9646" stroke-linecap="round" stroke-linejoin="round" stroke-miterlimit="10" x1="420.292" y1="1207.569" x2="523.305" y2="1270.621"/>
		<path fill="#380035" d="M624.706,499.949c0.976-2.508,1.954-5.015,2.931-7.523c3.218-8.271-1.504-15.723-6.208-22.158
			c-2.062-2.82-4.072-5.678-6.116-8.51c-0.473-0.655-2.226-4.073-3.076-4.264c-0.003,0-39.784-8.907-39.784-8.907
			s-9.772,13.623-9.796,13.656c1.507-2.127-6.49-10.772-7.719-11.875c-4.83-4.332-11.38-5.551-18.076-4.183
			c-21.292,4.351-22.31,29.968-9.87,43.585c3.778,4.135,8.985,8.883,14.006,11.438c4.992,2.54,10.929,3.648,16.369,4.819
			c9.695,2.086,20.669-0.585,28.846-6.026c4.635-3.084,9.146-6.737,12.43-11.279c2.369-3.277,3.239-7.163,3.909-11.08
			c0.577-3.369,2.452-8.47,1.687-11.805c1.873,3.404,3.749,6.808,5.622,10.212L624.706,499.949z"/>
		<g>
			<g>
				<path fill="#F7332F" d="M629.437,475.213c-1.003,3.347-4.562,5.265-7.909,4.262l-57.417-17.205
					c-3.347-1.003-5.265-4.562-4.262-7.909l5.681-18.958c1.003-3.347,4.562-5.265,7.909-4.262l57.416,17.204
					c3.348,1.003,5.266,4.562,4.263,7.909L629.437,475.213z"/>
			</g>
			
				<rect x="558.704" y="456.514" transform="matrix(0.9579 0.287 -0.287 0.9579 158.3536 -151.2474)" fill="#FFD638" width="72.644" height="15.895"/>
		</g>
		<g>
			<polygon fill="#F9D7A0" points="475.16,776.311 475.16,955.603 391.091,955.603 391.091,780.793 406.231,795.934 429.49,772.676 
				447.419,790.605 			"/>
			<polygon fill="#FFB877" points="257.769,783.035 257.769,957.844 392.237,957.844 392.237,783.035 363.129,812.143 
				340.717,789.732 327.244,803.205 302.592,778.552 280.18,800.964 			"/>
			<polygon fill="#FFB877" points="475.16,954.482 434.793,914.116 391.091,957.818 			"/>
		</g>
		<g>
			<polyline fill="none" stroke="#FBDA39" stroke-width="8.9646" stroke-miterlimit="10" points="180.98,823.725 228.414,823.725 
				228.414,869.386 			"/>
			<rect x="188.403" y="863.823" fill="#ACE0D2" width="78.432" height="11.129"/>
			<polygon fill="#FF403A" points="251.98,958.154 205.968,958.154 194.762,874.952 262.065,874.952 			"/>
		</g>
	</g>
</g>
</svg>
