<?xml version="1.0" encoding="utf-8"?>
<!-- Generator: Adobe Illustrator 16.0.0, SVG Export Plug-In . SVG Version: 6.00 Build 0)  -->
<!DOCTYPE svg PUBLIC "-//W3C//DTD SVG 1.1//EN" "http://www.w3.org/Graphics/SVG/1.1/DTD/svg11.dtd">
<svg version="1.1" xmlns="http://www.w3.org/2000/svg" xmlns:xlink="http://www.w3.org/1999/xlink" x="0px" y="0px" width="1200px"
	 height="1100px" viewBox="0 0 1200 1100" enable-background="new 0 0 1200 1100" xml:space="preserve">
<g id="Layer_1" display="none">
	<image display="inline" overflow="visible" width="1200" height="1100" xlink:href="bg-banner-neovu.jpg" >
	</image>
</g>
<g id="Layer_2">
	<ellipse fill="#EDEDEE" cx="573" cy="998" rx="517" ry="19"/>
	<g>
		<g>
			<path fill="#40B1A4" d="M1090,946.142c0,29.622-24.236,53.858-53.858,53.858H759.858C730.236,1000,706,975.764,706,946.142
				V153.858C706,124.236,730.236,100,759.858,100h276.283c29.622,0,53.858,24.236,53.858,53.858V946.142z"/>
		</g>
		<g>
			<path fill="#3C3D70" d="M1050,946.142c0,29.622-24.236,53.858-53.858,53.858H719.858C690.236,1000,666,975.764,666,946.142
				V153.858C666,124.236,690.236,100,719.858,100h276.283c29.622,0,53.858,24.236,53.858,53.858V946.142z"/>
		</g>
		<circle fill="#380137" cx="858" cy="952" r="40"/>
		<g>
			<path fill="#FFD638" d="M1020,886.661c0,6.236-5.103,11.339-11.339,11.339H711.339c-6.236,0-11.339-5.103-11.339-11.339V209.338
				c0-6.236,5.103-11.338,11.339-11.338h297.322c6.236,0,11.339,5.103,11.339,11.338V886.661z"/>
		</g>
		<g>
			<path fill="#4A013C" d="M898,159c0,6.05-5.103,11-11.339,11h-57.322c-6.236,0-11.339-4.95-11.339-11s5.103-11,11.339-11h57.322
				C892.897,148,898,152.95,898,159z"/>
		</g>
		<g>
			<path fill="#C9EEDF" d="M1080,295.496c0,4.677-3.827,8.504-8.504,8.504h-2.992c-4.677,0-8.504-3.827-8.504-8.504v-88.992
				c0-4.677,3.827-8.504,8.504-8.504h2.992c4.677,0,8.504,3.827,8.504,8.504V295.496z"/>
		</g>
	</g>
	<polygon fill="#AB016F" points="450,967.135 500,1000 752,560.433 688,544 	"/>
	<circle fill="#45003A" cx="150" cy="980" r="20"/>
	<circle fill="#45003A" cx="371" cy="980" r="20"/>
	<circle fill="#45003A" cx="591" cy="980" r="20"/>
	<g>
		<path fill="#2E9B91" d="M162,968.661c0,6.236-4.5,11.339-10,11.339s-10-5.103-10-11.339v-51.322c0-6.236,4.5-11.339,10-11.339
			s10,5.103,10,11.339V968.661z"/>
	</g>
	<g>
		<path fill="#2E9B91" d="M382,968.661c0,6.236-4.5,11.339-10,11.339s-10-5.103-10-11.339v-51.322c0-6.236,4.5-11.339,10-11.339
			s10,5.103,10,11.339V968.661z"/>
	</g>
	<g>
		<path fill="#2E9B91" d="M601,968.661c0,6.236-4.5,11.339-10,11.339s-10-5.103-10-11.339v-51.322c0-6.236,4.5-11.339,10-11.339
			s10,5.103,10,11.339V968.661z"/>
	</g>
	<polygon fill="#F3F4F4" points="632,922 372,922 372,718 598,718 	"/>
	<polygon fill="#C1EADB" points="410,922 108,922 138,718 380,718 	"/>
	<g>
		<path fill="#B30272" d="M463.144,658.569c-10.408,17.392-33.152,23.105-50.544,12.698l-1.96-1.173
			c-17.392-10.407-23.106-33.152-12.699-50.544l123.306-206.052c10.407-17.392,33.152-23.106,50.543-12.699l1.962,1.174
			c17.392,10.407,23.106,33.151,12.698,50.543L463.144,658.569z"/>
	</g>
	<path fill="#FF3C38" d="M936.822,898h68c0,0-228.406-502.167-304.822-516.123c-15.822,0-161.759,0-161.759,0l-18,28.123
		c0,0-17.418,102,64.582,150c118,53.444,158-4,158-4L936.822,898z"/>
	<g>
		<path fill="#FC7500" d="M602.947,644.379c-10.407,17.392-33.152,23.105-50.543,12.698l-1.96-1.173
			c-17.392-10.407-23.106-33.152-12.699-50.544l123.306-206.052c10.408-17.392,33.152-23.106,50.544-12.699l1.962,1.173
			c17.391,10.407,23.105,33.152,12.697,50.543L602.947,644.379z"/>
	</g>
	<circle fill="#FFE542" cx="568.52" cy="631.953" r="40"/>
	<circle fill="#3C3C6F" cx="565.521" cy="647.444" r="42.52"/>
	
		<line fill="none" stroke="#FFFFFF" stroke-width="14" stroke-linecap="round" stroke-linejoin="round" stroke-miterlimit="10" x1="970" y1="223.126" x2="860" y2="363.126"/>
	
		<line fill="none" stroke="#FFFFFF" stroke-width="22.6456" stroke-linecap="round" stroke-linejoin="round" stroke-miterlimit="10" x1="1003.411" y1="223.126" x2="826.589" y2="451"/>
	<g>
		<defs>
			<circle id="SVGID_1_" cx="-372.031" cy="1226.031" r="126"/>
		</defs>
		<clipPath id="SVGID_2_">
			<use xlink:href="#SVGID_1_"  overflow="visible"/>
		</clipPath>
		<g id="lNABI5_1_" clip-path="url(#SVGID_2_)">
			
				<image overflow="visible" width="450" height="470" id="lNABI5" xlink:href="134D1470A2A64BC4.jpg"  transform="matrix(1.3311 -0.3586 0.3586 1.3311 -650.9941 1164.541)">
			</image>
		</g>
	</g>
	<g>
		<path fill="#3B0137" d="M601.926,301.993c-9.033-16.383-29.829-22.397-46.212-13.364l-13.853,7.638
			c-16.383,9.033-22.397,29.829-13.364,46.212l39.577,71.781c9.033,16.383,29.829,22.397,46.212,13.364l13.854-7.638
			c16.384-9.033,22.397-29.829,13.364-46.212L601.926,301.993z"/>
	</g>
	<g>
		<path fill="#FB739C" d="M589.926,280.788c-9.034-16.384-29.829-22.397-46.212-13.364l-13.853,7.638
			c-16.383,9.033-22.397,29.829-13.364,46.212l39.577,71.781c9.033,16.383,29.829,22.397,46.212,13.364l13.854-7.638
			c16.384-9.033,22.397-29.829,13.364-46.212L589.926,280.788z"/>
	</g>
	<circle fill="#FB739C" cx="558.52" cy="362.126" r="38.313"/>
	<circle fill="#FB739C" cx="601.054" cy="307.827" r="12"/>
	<path fill="none" stroke="#359F9C" stroke-width="25" stroke-miterlimit="10" d="M585,718c0-77.961-140.899-51.816-186-52"/>
	<circle fill="#B6E4D0" cx="540" cy="661.931" r="48"/>
	<circle fill="#FFE542" cx="429.52" cy="641.953" r="40"/>
	<circle fill="#3C3C6F" cx="421.521" cy="657.444" r="42.52"/>
	
		<line fill="none" stroke="#3E0239" stroke-width="8" stroke-linecap="round" stroke-linejoin="round" stroke-miterlimit="10" x1="412.036" y1="941.366" x2="503.964" y2="997.634"/>
	<path fill="#380035" d="M594.455,309.886c0.872-2.238,1.745-4.475,2.616-6.713c2.872-7.381-1.341-14.031-5.54-19.774
		c-1.84-2.517-3.633-5.067-5.458-7.595c-0.422-0.584-1.987-3.635-2.746-3.805c-0.002,0-35.502-7.948-35.502-7.948
		s-8.721,12.157-8.743,12.187c1.345-1.898-5.792-9.613-6.889-10.597c-4.311-3.866-10.157-4.954-16.131-3.733
		c-19,3.883-19.909,26.743-8.807,38.896c3.371,3.69,8.018,7.928,12.499,10.207c4.455,2.266,9.753,3.256,14.607,4.3
		c8.653,1.862,18.446-0.522,25.743-5.378c4.136-2.752,8.161-6.013,11.093-10.065c2.115-2.924,2.891-6.392,3.488-9.887
		c0.514-3.007,2.188-7.559,1.504-10.535c1.672,3.038,3.346,6.076,5.019,9.113L594.455,309.886z"/>
	<g>
		<g>
			<path fill="#F7332F" d="M598.676,287.812c-0.895,2.987-4.07,4.698-7.057,3.803l-51.239-15.353
				c-2.987-0.895-4.698-4.071-3.803-7.058l5.069-16.918c0.895-2.987,4.071-4.698,7.058-3.804l51.238,15.353
				c2.986,0.895,4.699,4.071,3.805,7.058L598.676,287.812z"/>
		</g>
		
			<rect x="535.554" y="271.124" transform="matrix(0.9579 0.287 -0.287 0.9579 103.7549 -151.316)" fill="#FFD638" width="64.828" height="14.185"/>
	</g>
	<g>
		<polygon fill="#F9D7A0" points="461,556.512 461,716.512 385.977,716.512 385.977,560.512 399.488,574.023 420.244,553.268 
			436.244,569.268 		"/>
		<polygon fill="#FFB877" points="266,560.512 266,716.512 386,716.512 386,560.512 360.023,586.488 340.023,566.488 328,578.512 
			306,556.512 286,576.512 		"/>
		<polygon fill="#FFB877" points="461,715.512 424.977,679.488 385.977,718.488 		"/>
	</g>
	<g>
		<polyline fill="none" stroke="#FBDA39" stroke-width="8" stroke-miterlimit="10" points="198.474,598.824 240.803,598.824 
			240.803,639.572 		"/>
		<rect x="205.098" y="634.607" fill="#ACE0D2" width="69.993" height="9.931"/>
		<polygon fill="#FF403A" points="261.834,718.788 220.772,718.788 210.772,644.538 270.834,644.538 		"/>
	</g>
</g>
</svg>
