<?xml version="1.0" encoding="utf-8"?>
<!-- Generator: Adobe Illustrator 16.0.0, SVG Export Plug-In . SVG Version: 6.00 Build 0)  -->
<!DOCTYPE svg PUBLIC "-//W3C//DTD SVG 1.1//EN" "http://www.w3.org/Graphics/SVG/1.1/DTD/svg11.dtd">
<svg version="1.1" id="Layer_1" xmlns="http://www.w3.org/2000/svg" xmlns:xlink="http://www.w3.org/1999/xlink" x="0px" y="0px"
	 width="200.012px" height="200.012px" viewBox="0 0 200.012 200.012" enable-background="new 0 0 200.012 200.012"
	 xml:space="preserve">
<g>
	<defs>
		<circle id="SVGID_9_" cx="100.006" cy="100.005" r="88.413"/>
	</defs>
	<use xlink:href="#SVGID_9_"  overflow="visible" fill="#EACA5D"/>
	<clipPath id="SVGID_2_">
		<use xlink:href="#SVGID_9_"  overflow="visible"/>
	</clipPath>
	<g clip-path="url(#SVGID_2_)">
		<g>
			<g>
				<path fill="#414141" d="M143.297,115.967c0,1.06-0.866,1.926-1.926,1.926H16.132c-1.059,0-1.926-0.866-1.926-1.926V44.821
					c0-1.059,0.867-1.926,1.926-1.926h125.239c1.06,0,1.926,0.867,1.926,1.926V115.967z"/>
				<path fill="none" stroke="#404040" stroke-width="1.6985" stroke-miterlimit="10" d="M143.297,115.967
					c0,1.06-0.866,1.926-1.926,1.926H16.132c-1.059,0-1.926-0.866-1.926-1.926V44.821c0-1.059,0.867-1.926,1.926-1.926h125.239
					c1.06,0,1.926,0.867,1.926,1.926V115.967z"/>
			</g>
			<g>
				<rect x="18.512" y="47.42" fill="#545454" width="120.048" height="65.735"/>
			</g>
			<polygon fill="#EDEDED" points="98.042,155.393 58.818,155.393 62.262,137.725 96.099,137.725 			"/>
			<rect x="53.211" y="153.454" fill="#C1D7D3" width="50.65" height="3.664"/>
			
				<rect x="14.207" y="116.6" fill="#DCDBDB" stroke="#DBDBDB" stroke-width="1.6985" stroke-linecap="round" stroke-linejoin="round" stroke-miterlimit="10" width="129.091" height="21.125"/>
			<rect x="22.613" y="51.732" fill="#10D1AC" width="112.067" height="6.893"/>
			<rect x="22.613" y="63.8" fill="#FFFFFF" width="28.875" height="22.2"/>
			<rect x="22.613" y="93.756" fill="#FBD764" width="28.875" height="5.819"/>
			<circle fill="#FBD764" cx="70.236" cy="74.9" r="7.219"/>
			<circle fill="#FBD764" cx="95.401" cy="74.9" r="7.218"/>
			<circle fill="#FBD764" cx="121.052" cy="74.9" r="7.219"/>
			
				<line fill="none" stroke="#FFFFFF" stroke-width="1.6985" stroke-miterlimit="10" x1="58.818" y1="87.725" x2="80.686" y2="87.725"/>
			
				<line fill="none" stroke="#FFFFFF" stroke-width="1.6985" stroke-miterlimit="10" x1="58.818" y1="90.957" x2="80.686" y2="90.957"/>
			
				<line fill="none" stroke="#FFFFFF" stroke-width="1.6985" stroke-miterlimit="10" x1="58.818" y1="94.188" x2="80.686" y2="94.188"/>
			
				<line fill="none" stroke="#FFFFFF" stroke-width="1.6985" stroke-miterlimit="10" x1="58.818" y1="97.419" x2="80.686" y2="97.419"/>
			
				<line fill="none" stroke="#FFFFFF" stroke-width="1.6985" stroke-miterlimit="10" x1="84.467" y1="87.725" x2="106.335" y2="87.725"/>
			
				<line fill="none" stroke="#FFFFFF" stroke-width="1.6985" stroke-miterlimit="10" x1="84.467" y1="90.957" x2="106.335" y2="90.957"/>
			
				<line fill="none" stroke="#FFFFFF" stroke-width="1.6985" stroke-miterlimit="10" x1="84.467" y1="94.188" x2="106.335" y2="94.188"/>
			
				<line fill="none" stroke="#FFFFFF" stroke-width="1.6985" stroke-miterlimit="10" x1="84.467" y1="97.419" x2="106.335" y2="97.419"/>
			
				<line fill="none" stroke="#FFFFFF" stroke-width="1.6985" stroke-miterlimit="10" x1="110.117" y1="87.725" x2="131.985" y2="87.725"/>
			
				<line fill="none" stroke="#FFFFFF" stroke-width="1.6985" stroke-miterlimit="10" x1="110.117" y1="90.957" x2="131.985" y2="90.957"/>
			
				<line fill="none" stroke="#FFFFFF" stroke-width="1.6985" stroke-miterlimit="10" x1="110.117" y1="94.188" x2="131.985" y2="94.188"/>
			
				<line fill="none" stroke="#FFFFFF" stroke-width="1.6985" stroke-miterlimit="10" x1="110.117" y1="97.419" x2="131.985" y2="97.419"/>
		</g>
		<g>
			<g>
				<path fill="#545454" d="M185.185,153.01c-0.023,2.259-1.892,4.088-4.15,4.064l-25.843-0.268
					c-2.259-0.023-4.088-1.892-4.064-4.15l0.58-54.821c0.023-2.259,1.892-4.088,4.15-4.064l25.841,0.271
					c2.259,0.023,4.088,1.892,4.064,4.15L185.185,153.01z"/>
			</g>
			<polygon fill="#FFFFFF" points="183.055,148.407 153.72,148.098 154.202,102.086 183.538,102.399 			"/>
			
				<rect x="163.445" y="151.15" transform="matrix(0.9999 0.011 -0.011 0.9999 1.6854 -1.8389)" fill="#404040" width="9.785" height="2.895"/>
			
				<line fill="none" stroke="#404040" stroke-width="2.8983" stroke-miterlimit="10" x1="166.562" y1="97.862" x2="173.804" y2="97.938"/>
			<polygon fill="#F8AB59" points="175.876,142.534 161.385,142.375 161.438,137.667 175.923,137.827 			"/>
			<path fill="#FBD764" d="M177.226,116.813c-0.045,4.816-3.977,8.662-8.783,8.613c-4.799-0.049-8.65-3.984-8.602-8.791
				c0.051-4.801,3.986-8.652,8.785-8.602C173.427,108.084,177.285,112.02,177.226,116.813z"/>
			
				<line fill="none" stroke="#404040" stroke-width="1.4492" stroke-miterlimit="10" x1="161.519" y1="129.336" x2="177.094" y2="129.5"/>
			
				<line fill="none" stroke="#404040" stroke-width="1.4492" stroke-miterlimit="10" x1="163.667" y1="131.889" x2="173.444" y2="131.997"/>
		</g>
	</g>
</g>
</svg>
