<?xml version="1.0" encoding="utf-8"?>
<!-- Generator: Adobe Illustrator 16.0.0, SVG Export Plug-In . SVG Version: 6.00 Build 0)  -->
<!DOCTYPE svg PUBLIC "-//W3C//DTD SVG 1.1//EN" "http://www.w3.org/Graphics/SVG/1.1/DTD/svg11.dtd">
<svg version="1.1" id="Layer_1" xmlns="http://www.w3.org/2000/svg" xmlns:xlink="http://www.w3.org/1999/xlink" x="0px" y="0px"
	 width="200px" height="200px" viewBox="0 0 200 200" enable-background="new 0 0 200 200" xml:space="preserve">
<g>
	<g>
		<g>
			<circle id="SVGID_5_" fill="#191919" cx="100" cy="100" r="88.413"/>
		</g>
		<g>
			<defs>
				<circle id="SVGID_1_" cx="100" cy="100" r="88.413"/>
			</defs>
			<clipPath id="SVGID_2_">
				<use xlink:href="#SVGID_1_"  overflow="visible"/>
			</clipPath>
			<polygon clip-path="url(#SVGID_2_)" fill="#B0B0B0" points="154.068,106.208 174.301,106.208 174.301,110.645 174.301,131.409 
				154.068,131.409 			"/>
		</g>
		<g>
			<defs>
				<circle id="SVGID_3_" cx="100" cy="100" r="88.413"/>
			</defs>
			<clipPath id="SVGID_4_">
				<use xlink:href="#SVGID_3_"  overflow="visible"/>
			</clipPath>
			<polygon clip-path="url(#SVGID_4_)" fill="#B0B0B0" points="44.626,106.208 24.394,106.208 24.394,110.645 24.394,131.409 
				44.626,131.409 			"/>
		</g>
		<g>
			<defs>
				<circle id="SVGID_6_" cx="100" cy="100" r="88.413"/>
			</defs>
			<clipPath id="SVGID_7_">
				<use xlink:href="#SVGID_6_"  overflow="visible"/>
			</clipPath>
			<g clip-path="url(#SVGID_7_)">
				<rect x="43.454" y="132.718" fill="#434343" width="112.553" height="74.651"/>
				<rect x="43.454" y="130.027" opacity="0.5" fill="#191919" enable-background="new    " width="111.888" height="18.646"/>
				<rect x="24.267" y="131.445" fill="#737373" width="23.976" height="41.957"/>
				<rect x="150.652" y="131.445" fill="#404040" width="23.976" height="41.957"/>
				<circle fill="#AFAFAF" cx="75.208" cy="65.149" r="25.308"/>
				<circle fill="#7D7D7D" cx="125.271" cy="65.149" r="25.308"/>
				<path fill="#CBCBCB" d="M155.342,132.718c0,3.664-2.97,6.634-6.633,6.634H50.087c-3.664,0-6.633-2.97-6.633-6.634V71.391
					c0-3.662,2.969-6.632,6.633-6.632h98.622c3.663,0,6.633,2.97,6.633,6.632V132.718z"/>
				<rect x="53.038" y="139.352" fill="#7D7D7D" width="1.924" height="68.019"/>
				<rect x="68.416" y="139.352" fill="#7D7D7D" width="1.924" height="68.019"/>
				<rect x="83.794" y="139.352" fill="#7D7D7D" width="1.924" height="68.019"/>
				<rect x="99.172" y="139.352" fill="#7D7D7D" width="1.924" height="68.019"/>
				<rect x="114.55" y="139.352" fill="#7D7D7D" width="1.925" height="68.019"/>
				<rect x="129.927" y="139.352" fill="#7D7D7D" width="1.925" height="68.019"/>
				<rect x="145.305" y="139.352" fill="#7D7D7D" width="1.924" height="68.019"/>
				<path fill="#8D8D8D" d="M147.355,129.42c0,1.629-1.32,2.95-2.949,2.95h-90.73c-1.629,0-2.951-1.321-2.951-2.95V73.773
					c0-1.629,1.322-2.949,2.951-2.949h90.73c1.629,0,2.949,1.32,2.949,2.949V129.42z"/>
				<circle fill="#3B3B3B" cx="100" cy="68.05" r="1.822"/>
			</g>
		</g>
	</g>
	<g>
		<ellipse fill="#B0B0B0" cx="39.656" cy="110.673" rx="9.939" ry="11.27"/>
		<path fill="#B0B0B0" d="M31.707,93.204c0.455-0.505,0.917-1.003,1.384-1.497c2.668-2.825,5.334-5.652,8-8.479
			c0.773-0.819,1.543-1.641,2.315-2.461c0,0,0,9.564,0,9.584c0-0.925,4.282-4.824,5.152-5.323c1.709-0.984,4.851-1.04,6.51,0.542
			c1.657,1.579,0.819,4.485,0.229,6.379l-10.471,8.964l-4.082,9.76c0,0-16.141-1.687-16.15-1.687
			c-0.638-0.066,0.426-6.12,0.676-6.707c0.803-1.894,2.208-3.554,3.363-5.237C29.562,95.686,30.61,94.424,31.707,93.204z"/>
	</g>
	<g>
		<ellipse fill="#B0B0B0" cx="159.038" cy="112.331" rx="9.938" ry="11.271"/>
		<path fill="#B0B0B0" d="M166.986,93.204c-0.454-0.505-0.918-1.003-1.385-1.497c-2.666-2.825-5.332-5.652-8-8.479
			c-0.771-0.819-1.543-1.641-2.314-2.461c0,0,0,9.564,0,9.584c0-0.925-4.281-4.824-5.151-5.323c-1.709-0.984-4.851-1.04-6.511,0.542
			c-1.657,1.579-0.818,4.485-0.229,6.379l10.472,8.964l4.082,9.76c0,0,16.141-1.687,16.149-1.687
			c0.639-0.066-0.427-6.12-0.676-6.707c-0.803-1.894-2.209-3.554-3.363-5.237C169.131,95.686,168.084,94.424,166.986,93.204z"/>
	</g>
	<path fill="#717171" d="M46.093,87.67c0.001,0.001,3.273,3.759,3.285,3.772c0.311,0.356,1.686-0.605,1.957-0.822
		c0.638-0.507,1.364-1.037,1.61-1.853c0.278-0.927,0.199-2.531-0.464-3.289c-0.893-1.019-2.896-1.394-3.871-0.423
		C48.401,85.265,46.085,87.661,46.093,87.67z"/>
	<path fill="#3B3B3B" d="M152.602,87.67c0,0.001-3.273,3.759-3.285,3.772c-0.312,0.356-1.687-0.605-1.957-0.822
		c-0.637-0.507-1.364-1.037-1.609-1.853c-0.279-0.927-0.199-2.531,0.463-3.289c0.893-1.019,2.896-1.394,3.871-0.423
		C150.293,85.265,152.607,87.661,152.602,87.67z"/>
</g>
<g id="logotype_2_" opacity="0.5">
	<g>
		<path fill="none" stroke="#FFFFFF" stroke-width="0.9106" stroke-miterlimit="10" d="M124.153,101.566
			c0,13.4-10.863,24.264-24.265,24.264c-13.402,0-24.265-10.863-24.265-24.264c0-13.402,10.864-24.265,24.265-24.265
			S124.153,88.165,124.153,101.566z"/>
		<g>
			<g>
				<defs>
					<circle id="SVGID_8_" cx="99.888" cy="101.566" r="24.265"/>
				</defs>
				<clipPath id="SVGID_9_">
					<use xlink:href="#SVGID_8_"  overflow="visible"/>
				</clipPath>
				<path clip-path="url(#SVGID_9_)" fill="#FFFFFF" d="M108.255,103.094c0.07-0.534,0.156-1.014,0.265-1.367
					c0.505-1.652,1.975-4.499,2.295-6.564c0.322-2.066,0.46-6.473-0.779-10.192c-0.775-2.324-1.818-2.46-2.493-2.235
					c-0.372,0.124-0.682,0.391-0.886,0.727c-0.145,0.238-0.325,0.525-0.355,0.921c-0.025,0.323-0.077,3.021-0.353,3.572
					s-1.285,4.178-1.285,4.958h-0.01c-0.001-0.01-0.001-0.02-0.006-0.03c-0.616-1.253-2.28-1.581-2.899-1.661
					c-0.086-0.011-0.114-0.119-0.047-0.171l1.174-0.909c0.069-0.054,0.036-0.167-0.052-0.173c-2.603-0.189-4.34,0.767-4.838,1.084
					c-0.064,0.041-0.147-0.006-0.147-0.082v-1.216c0-0.068-0.069-0.113-0.134-0.089c-1.261,0.472-2.284,2.652-2.533,3.219
					c-0.004,0.009-0.003,0.019-0.004,0.028h-0.053c0-0.78-1.01-4.407-1.286-4.958c-0.275-0.551-0.327-3.249-0.352-3.573
					c-0.03-0.395-0.211-0.683-0.356-0.921c-0.205-0.335-0.513-0.602-0.887-0.727c-0.673-0.225-1.717-0.088-2.492,2.236
					c-1.24,3.718-1.102,8.126-0.78,10.192c0.321,2.065,1.79,4.912,2.295,6.564c0.113,0.369,0.203,0.877,0.274,1.44
					c0.685-0.61,1.962-1.363,3.66-0.645c0,0-0.49,1.837-2.144,2.97c-1.652,1.132-0.612-2.052-0.612-2.052l-0.85,0.195
					c0.172,1.642,0.213,3.562,0.221,4.039c-0.546,0.46-2.845,2.58-2.845,5.737c0,3.58,0,12.418,0,12.418h10.928h10.926
					c0,0,0-8.838,0-12.418c0-3.157-2.299-5.277-2.845-5.737c0.008-0.479,0.049-2.413,0.224-4.06l-0.76-0.175
					c0,0,1.04,3.184-0.613,2.052c-1.652-1.133-2.142-2.97-2.142-2.97C106.308,101.833,107.552,102.5,108.255,103.094z
					 M93.943,94.473c-0.004,0.079-0.039,0.152-0.094,0.209c-1.38,1.407-1.656,2.84-1.679,3.677
					c-0.005,0.202-0.271,0.271-0.378,0.099c-0.448-0.726-1.139-2.025-1.53-3.648c-0.612-2.541-0.306-6.458,0-7.927
					c0.306-1.47,1.316-3,1.906-2.663c0.543,0.31,0.221,1.568,0.266,2.305c0.025,0.408,0.021,1.822,0.827,3.602
					C94.034,91.829,93.972,93.948,93.943,94.473z M102.175,109.374c-0.135,0.027-0.267,0.04-0.396,0.04
					c-0.142,0-0.277-0.02-0.41-0.046c-0.496,0.431-1.74,1.217-3.182-0.005c-0.138,0.029-0.278,0.051-0.427,0.051
					c-0.129,0-0.261-0.013-0.396-0.04c-1.503-0.303-1.686-1.974-1.692-2.045c-0.015-0.15,0.094-0.283,0.244-0.298
					c0.151-0.018,0.284,0.093,0.299,0.243c0.006,0.055,0.153,1.342,1.257,1.564c0.98,0.199,1.809-0.701,2.024-0.959v-1.978
					c-0.22-0.047-0.501-0.181-0.546-0.566c-0.077-0.647-0.19-0.819-0.515-0.819s-0.401,0.591-0.401,0.591s-0.023,0.25-0.381,0.229
					c-0.306-0.019-0.311-0.422-0.297-0.61c0.006-0.062,0.039-0.169,0.062-0.228c0.095-0.239,0.391-0.866,0.999-1.068
					c0.743-0.248,1.086,0,1.086,0s0.152,0.119,0.267,0.114c0.115,0.005,0.268-0.114,0.268-0.114s0.343-0.248,1.086,0
					c0.607,0.202,0.904,0.829,0.999,1.068c0.022,0.059,0.056,0.165,0.062,0.228c0.014,0.188,0.01,0.592-0.297,0.61
					c-0.357,0.021-0.382-0.229-0.382-0.229s-0.076-0.591-0.4-0.591s-0.438,0.172-0.515,0.819c-0.045,0.386-0.325,0.52-0.546,0.566
					v1.978c0.215,0.258,1.044,1.157,2.023,0.959c1.111-0.225,1.256-1.551,1.257-1.563c0.016-0.15,0.142-0.267,0.299-0.245
					c0.15,0.015,0.26,0.148,0.245,0.299C103.861,107.4,103.678,109.071,102.175,109.374z M106.515,90.127
					c0.808-1.78,0.803-3.193,0.827-3.602c0.045-0.737-0.277-1.995,0.267-2.305c0.59-0.337,1.6,1.193,1.906,2.663
					c0.307,1.469,0.612,5.387,0,7.927c-0.392,1.623-1.083,2.922-1.53,3.648c-0.107,0.172-0.373,0.103-0.378-0.099
					c-0.022-0.837-0.299-2.27-1.679-3.677c-0.056-0.057-0.09-0.13-0.094-0.209C105.805,93.948,105.743,91.829,106.515,90.127z"/>
			</g>
		</g>
	</g>
</g>
</svg>
