<?xml version="1.0" encoding="utf-8"?>
<!-- Generator: Adobe Illustrator 16.0.0, SVG Export Plug-In . SVG Version: 6.00 Build 0)  -->
<!DOCTYPE svg PUBLIC "-//W3C//DTD SVG 1.1//EN" "http://www.w3.org/Graphics/SVG/1.1/DTD/svg11.dtd">
<svg version="1.1" id="Layer_1" xmlns="http://www.w3.org/2000/svg" xmlns:xlink="http://www.w3.org/1999/xlink" x="0px" y="0px"
	 width="200px" height="200px" viewBox="0 0 200 200" enable-background="new 0 0 200 200" xml:space="preserve">
<g>
	<g>
		<defs>
			<circle id="SVGID_1_" cx="100" cy="100" r="88.413"/>
		</defs>
		<clipPath id="SVGID_2_">
			<use xlink:href="#SVGID_1_"  overflow="visible"/>
		</clipPath>
		<rect x="7.487" y="6.453" clip-path="url(#SVGID_2_)" fill="#FEAC6F" width="199.179" height="194.253"/>
	</g>
	<g>
		<defs>
			<circle id="SVGID_3_" cx="100" cy="100" r="88.413"/>
		</defs>
		<clipPath id="SVGID_4_">
			<use xlink:href="#SVGID_3_"  overflow="visible"/>
		</clipPath>
		<rect x="7.487" y="6.453" clip-path="url(#SVGID_4_)" fill="#DA4072" width="136.72" height="200.214"/>
	</g>
	<g>
		<defs>
			<circle id="SVGID_5_" cx="100" cy="100" r="88.413"/>
		</defs>
		<clipPath id="SVGID_6_">
			<use xlink:href="#SVGID_5_"  overflow="visible"/>
		</clipPath>
		<g clip-path="url(#SVGID_6_)">
			<rect x="8.992" y="103.787" fill="#D53B6D" width="54.139" height="91.963"/>
			<path fill="#AB0069" d="M61.626,105.292v88.954h-51.13v-88.954H61.626 M64.636,102.282H7.487v94.973h57.148v-94.973H64.636z"/>
		</g>
	</g>
	<g>
		<defs>
			<circle id="SVGID_7_" cx="100" cy="100" r="88.413"/>
		</defs>
		<clipPath id="SVGID_8_">
			<use xlink:href="#SVGID_7_"  overflow="visible"/>
		</clipPath>
		<g clip-path="url(#SVGID_8_)">
			<path fill="#A8006B" d="M96.579,71.294c0,2.521-2.043,4.563-4.563,4.563H41.249c-2.521,0-4.563-2.043-4.563-4.563v-5.418
				c0-2.521,2.043-4.563,4.563-4.563h50.766c2.521,0,4.563,2.043,4.563,4.563L96.579,71.294L96.579,71.294z"/>
			<circle fill="#A8006B" cx="40.964" cy="71.152" r="9.412"/>
		</g>
	</g>
	<g>
		<defs>
			<circle id="SVGID_9_" cx="100" cy="100" r="88.413"/>
		</defs>
		<clipPath id="SVGID_10_">
			<use xlink:href="#SVGID_9_"  overflow="visible"/>
		</clipPath>
		<g clip-path="url(#SVGID_10_)">
			<path fill="#7DB69E" d="M128.617,134.355c0,13.039-10.57,23.608-23.608,23.608h-3.932c-13.039,0-23.609-10.569-23.609-23.608
				V96.651c0-13.039,10.57-23.608,23.609-23.608h3.932c13.039,0,23.608,10.57,23.608,23.608V134.355z"/>
			<path fill="#7DB69E" d="M128.809,91.965c0,13.087-10.609,23.698-23.697,23.698h-3.947c-13.087,0,15.093-10.611,15.093-23.698
				L77.468,54.12c0-13.087,10.609-23.696,23.696-23.696h3.947c13.087,0,23.697,10.609,23.697,23.696V91.965z"/>
		</g>
	</g>
	<g>
		<defs>
			<circle id="SVGID_11_" cx="100" cy="100" r="88.413"/>
		</defs>
		<clipPath id="SVGID_12_">
			<use xlink:href="#SVGID_11_"  overflow="visible"/>
		</clipPath>
		<circle clip-path="url(#SVGID_12_)" fill="#FEBA3F" cx="103.139" cy="56.107" r="17.968"/>
	</g>
	<g>
		<defs>
			<circle id="SVGID_13_" cx="100" cy="100" r="88.413"/>
		</defs>
		<clipPath id="SVGID_14_">
			<use xlink:href="#SVGID_13_"  overflow="visible"/>
		</clipPath>
		<g clip-path="url(#SVGID_14_)">
			<path fill="#F9D02F" d="M110.838,58.817c0,2.52-2.043,4.563-4.562,4.563H55.509c-2.521,0-4.563-2.043-4.563-4.563v-5.418
				c0-2.521,2.043-4.563,4.563-4.563h50.767c2.521,0,4.562,2.043,4.562,4.563V58.817z"/>
			<circle fill="#F9D02F" cx="55.224" cy="58.674" r="9.412"/>
		</g>
	</g>
	<g>
		<defs>
			<circle id="SVGID_15_" cx="100" cy="100" r="88.413"/>
		</defs>
		<clipPath id="SVGID_16_">
			<use xlink:href="#SVGID_15_"  overflow="visible"/>
		</clipPath>
	</g>
</g>
<g id="logotype_2_">
	<g>
		<path fill="none" stroke="#FFFFFF" stroke-width="0.5244" stroke-miterlimit="10" d="M117.291,117.104
			c0,7.716-6.255,13.971-13.972,13.971s-13.972-6.255-13.972-13.971c0-7.717,6.255-13.973,13.972-13.973
			S117.291,109.387,117.291,117.104z"/>
		<g>
			<g>
				<defs>
					<circle id="SVGID_17_" cx="103.319" cy="117.104" r="13.972"/>
				</defs>
				<clipPath id="SVGID_18_">
					<use xlink:href="#SVGID_17_"  overflow="visible"/>
				</clipPath>
				<path clip-path="url(#SVGID_18_)" fill="#FFFFFF" d="M108.137,117.982c0.04-0.307,0.09-0.584,0.152-0.787
					c0.291-0.951,1.137-2.59,1.321-3.779c0.186-1.19,0.265-3.728-0.448-5.869c-0.447-1.338-1.048-1.417-1.437-1.287
					c-0.214,0.071-0.392,0.225-0.51,0.418c-0.083,0.137-0.188,0.303-0.204,0.531c-0.015,0.186-0.045,1.739-0.203,2.057
					c-0.159,0.316-0.74,2.405-0.74,2.854h-0.006c0-0.005,0-0.011-0.003-0.017c-0.355-0.723-1.313-0.91-1.67-0.957
					c-0.049-0.006-0.065-0.068-0.026-0.098l0.676-0.523c0.04-0.031,0.021-0.097-0.03-0.101c-1.499-0.108-2.499,0.442-2.786,0.624
					c-0.037,0.024-0.084-0.003-0.084-0.047v-0.7c0-0.039-0.04-0.065-0.078-0.052c-0.726,0.272-1.314,1.527-1.458,1.854
					c-0.002,0.006-0.002,0.012-0.003,0.017h-0.03c0-0.449-0.581-2.538-0.74-2.854c-0.158-0.317-0.188-1.871-0.202-2.058
					c-0.018-0.228-0.122-0.394-0.205-0.53c-0.118-0.193-0.295-0.347-0.511-0.418c-0.387-0.13-0.989-0.051-1.435,1.287
					c-0.714,2.141-0.635,4.679-0.449,5.869c0.185,1.188,1.031,2.828,1.322,3.779c0.065,0.213,0.117,0.506,0.158,0.83
					c0.395-0.352,1.129-0.785,2.107-0.371c0,0-0.282,1.058-1.234,1.71c-0.951,0.651-0.353-1.182-0.353-1.182l-0.489,0.112
					c0.099,0.945,0.123,2.051,0.127,2.325c-0.314,0.266-1.638,1.486-1.638,3.304c0,2.062,0,7.15,0,7.15h6.292h6.291
					c0,0,0-5.089,0-7.15c0-1.817-1.323-3.038-1.638-3.304c0.004-0.275,0.028-1.389,0.129-2.337l-0.438-0.101
					c0,0,0.599,1.833-0.354,1.182c-0.951-0.652-1.233-1.71-1.233-1.71C107.016,117.257,107.731,117.641,108.137,117.982z
					 M99.896,113.02c-0.002,0.045-0.022,0.087-0.054,0.119c-0.795,0.811-0.954,1.636-0.967,2.117
					c-0.003,0.117-0.156,0.156-0.218,0.058c-0.258-0.418-0.656-1.166-0.881-2.101c-0.353-1.463-0.176-3.719,0-4.564
					s0.758-1.728,1.098-1.533c0.313,0.179,0.127,0.902,0.153,1.327c0.014,0.235,0.012,1.05,0.476,2.074
					C99.948,111.496,99.913,112.717,99.896,113.02z M104.636,121.599c-0.078,0.017-0.153,0.023-0.228,0.023
					c-0.082,0-0.16-0.012-0.236-0.026c-0.285,0.248-1.002,0.7-1.832-0.003c-0.08,0.017-0.16,0.029-0.246,0.029
					c-0.074,0-0.15-0.007-0.229-0.023c-0.865-0.174-0.97-1.136-0.974-1.177c-0.009-0.087,0.054-0.163,0.141-0.172
					c0.087-0.01,0.163,0.054,0.173,0.14c0.003,0.032,0.088,0.773,0.723,0.901c0.564,0.114,1.042-0.404,1.166-0.553V119.6
					c-0.127-0.026-0.289-0.104-0.314-0.326c-0.045-0.372-0.11-0.472-0.297-0.472s-0.23,0.341-0.23,0.341s-0.014,0.144-0.22,0.131
					c-0.177-0.011-0.179-0.242-0.171-0.351c0.004-0.036,0.022-0.098,0.035-0.132c0.055-0.138,0.225-0.498,0.575-0.615
					c0.428-0.143,0.626,0,0.626,0s0.087,0.069,0.152,0.066c0.066,0.003,0.154-0.066,0.154-0.066s0.197-0.143,0.626,0
					c0.35,0.117,0.521,0.478,0.575,0.615c0.013,0.034,0.032,0.096,0.035,0.132c0.008,0.108,0.006,0.34-0.171,0.351
					c-0.206,0.013-0.22-0.131-0.22-0.131s-0.044-0.341-0.23-0.341c-0.188,0-0.253,0.1-0.297,0.472
					c-0.025,0.223-0.188,0.3-0.314,0.326v1.139c0.124,0.148,0.602,0.667,1.165,0.553c0.641-0.13,0.724-0.894,0.725-0.9
					c0.009-0.087,0.081-0.153,0.172-0.142c0.086,0.009,0.149,0.086,0.141,0.173C105.606,120.463,105.501,121.425,104.636,121.599z
					 M107.135,110.517c0.465-1.024,0.462-1.839,0.476-2.074c0.026-0.425-0.159-1.148,0.154-1.327
					c0.339-0.194,0.921,0.688,1.098,1.533c0.176,0.846,0.353,3.102,0,4.564c-0.226,0.935-0.624,1.683-0.882,2.101
					c-0.062,0.099-0.215,0.06-0.218-0.058c-0.013-0.481-0.172-1.307-0.966-2.117c-0.032-0.032-0.052-0.074-0.055-0.119
					C106.726,112.717,106.69,111.496,107.135,110.517z"/>
			</g>
		</g>
	</g>
</g>
</svg>
