<?xml version="1.0" encoding="utf-8"?>
<!-- Generator: Adobe Illustrator 16.0.0, SVG Export Plug-In . SVG Version: 6.00 Build 0)  -->
<!DOCTYPE svg PUBLIC "-//W3C//DTD SVG 1.1//EN" "http://www.w3.org/Graphics/SVG/1.1/DTD/svg11.dtd">
<svg version="1.1" id="Layer_1" xmlns="http://www.w3.org/2000/svg" xmlns:xlink="http://www.w3.org/1999/xlink" x="0px" y="0px"
	 width="200.012px" height="200.012px" viewBox="0 0 200.012 200.012" enable-background="new 0 0 200.012 200.012"
	 xml:space="preserve">
<g>
	<defs>
		<circle id="SVGID_5_" cx="100.006" cy="100.005" r="88.413"/>
	</defs>
	<use xlink:href="#SVGID_5_"  overflow="visible" fill="#A9A9A9"/>
	<clipPath id="SVGID_2_">
		<use xlink:href="#SVGID_5_"  overflow="visible"/>
	</clipPath>
	<g clip-path="url(#SVGID_2_)">
		
			<rect x="22.37" y="44.558" transform="matrix(0.9904 -0.1382 0.1382 0.9904 -13.1824 15.5809)" fill="#9A9A9A" width="166.435" height="116.284"/>
		<g>
			
				<rect x="29.672" y="52.025" transform="matrix(0.9904 -0.1382 0.1382 0.9904 -13.1811 15.5791)" opacity="0.3" fill="none" stroke="#FFFFFF" stroke-width="4.4089" stroke-miterlimit="10" width="151.821" height="101.344"/>
			
				<line opacity="0.3" fill="none" stroke="#FFFFFF" stroke-width="4.4089" stroke-miterlimit="10" x1="35.508" y1="61.313" x2="49.515" y2="161.685"/>
			
				<line opacity="0.3" fill="none" stroke="#FFFFFF" stroke-width="4.4089" stroke-miterlimit="10" x1="48.393" y1="59.515" x2="62.401" y2="159.885"/>
			
				<line opacity="0.3" fill="none" stroke="#FFFFFF" stroke-width="4.4089" stroke-miterlimit="10" x1="61.279" y1="57.716" x2="75.287" y2="158.088"/>
			
				<line opacity="0.3" fill="none" stroke="#FFFFFF" stroke-width="4.4089" stroke-miterlimit="10" x1="74.167" y1="55.917" x2="88.175" y2="156.29"/>
			
				<line opacity="0.3" fill="none" stroke="#FFFFFF" stroke-width="4.4089" stroke-miterlimit="10" x1="87.053" y1="54.12" x2="101.061" y2="154.491"/>
			
				<line opacity="0.3" fill="none" stroke="#FFFFFF" stroke-width="4.4089" stroke-miterlimit="10" x1="99.939" y1="52.321" x2="113.946" y2="152.692"/>
			
				<line opacity="0.3" fill="none" stroke="#FFFFFF" stroke-width="4.4089" stroke-miterlimit="10" x1="112.825" y1="50.523" x2="126.833" y2="150.895"/>
			
				<line opacity="0.3" fill="none" stroke="#FFFFFF" stroke-width="4.4089" stroke-miterlimit="10" x1="125.713" y1="48.725" x2="139.721" y2="149.095"/>
			
				<line opacity="0.3" fill="none" stroke="#FFFFFF" stroke-width="4.4089" stroke-miterlimit="10" x1="138.596" y1="46.926" x2="152.606" y2="147.296"/>
			
				<line opacity="0.3" fill="none" stroke="#FFFFFF" stroke-width="4.4089" stroke-miterlimit="10" x1="151.483" y1="45.128" x2="165.491" y2="145.5"/>
			
				<line opacity="0.3" fill="none" stroke="#FFFFFF" stroke-width="4.4089" stroke-miterlimit="10" x1="164.372" y1="43.329" x2="178.379" y2="143.7"/>
			
				<line opacity="0.3" fill="none" stroke="#FFFFFF" stroke-width="4.4089" stroke-miterlimit="10" x1="25.14" y1="75.497" x2="175.504" y2="54.512"/>
			
				<line opacity="0.3" fill="none" stroke="#FFFFFF" stroke-width="4.4089" stroke-miterlimit="10" x1="26.938" y1="88.384" x2="177.303" y2="67.398"/>
			
				<line opacity="0.3" fill="none" stroke="#FFFFFF" stroke-width="4.4089" stroke-miterlimit="10" x1="28.737" y1="101.27" x2="179.102" y2="80.285"/>
			
				<line opacity="0.3" fill="none" stroke="#FFFFFF" stroke-width="4.4089" stroke-miterlimit="10" x1="30.536" y1="114.157" x2="180.901" y2="93.172"/>
			
				<line opacity="0.3" fill="none" stroke="#FFFFFF" stroke-width="4.4089" stroke-miterlimit="10" x1="32.334" y1="127.043" x2="182.7" y2="106.059"/>
			
				<line opacity="0.3" fill="none" stroke="#FFFFFF" stroke-width="4.4089" stroke-miterlimit="10" x1="34.132" y1="139.93" x2="184.497" y2="118.946"/>
			
				<line opacity="0.3" fill="none" stroke="#FFFFFF" stroke-width="4.4089" stroke-miterlimit="10" x1="35.931" y1="152.815" x2="186.295" y2="131.829"/>
		</g>
		<path fill="none" stroke="#FFFFFF" stroke-width="4.0549" stroke-miterlimit="10" d="M142.026,97.605
			c2.812,20.135-11.227,38.727-31.353,41.535c-20.136,2.81-38.728-11.227-41.538-31.362C66.327,87.652,80.365,69.06,100.5,66.249
			C120.626,63.44,139.218,77.479,142.026,97.605z"/>
		<path fill="none" stroke="#FFFFFF" stroke-width="2.5993" stroke-miterlimit="10" d="M128.946,99.432
			c1.802,12.911-7.196,24.825-20.1,26.626c-12.91,1.802-24.824-7.193-26.626-20.105c-1.801-12.903,7.194-24.818,20.105-26.62
			C115.228,77.532,127.144,86.529,128.946,99.432z"/>
		<g>
			
				<rect x="114.369" y="3.523" transform="matrix(-0.3824 -0.924 0.924 -0.3824 117.8956 188.6876)" fill="#D5D5D5" width="15.283" height="102.837"/>
			
				<line fill="none" stroke="#909090" stroke-width="2.2044" stroke-miterlimit="10" x1="79.851" y1="69.849" x2="77.823" y2="64.949"/>
			
				<line fill="none" stroke="#909090" stroke-width="2.2044" stroke-miterlimit="10" x1="85.261" y1="67.612" x2="83.234" y2="62.712"/>
			
				<line fill="none" stroke="#909090" stroke-width="2.2044" stroke-miterlimit="10" x1="90.673" y1="65.374" x2="88.646" y2="60.473"/>
			
				<line fill="none" stroke="#909090" stroke-width="2.2044" stroke-miterlimit="10" x1="96.083" y1="63.135" x2="94.056" y2="58.234"/>
			
				<line fill="none" stroke="#909090" stroke-width="2.2044" stroke-miterlimit="10" x1="101.493" y1="60.897" x2="99.467" y2="55.996"/>
			
				<line fill="none" stroke="#909090" stroke-width="2.2044" stroke-miterlimit="10" x1="106.905" y1="58.658" x2="104.877" y2="53.757"/>
			
				<line fill="none" stroke="#909090" stroke-width="2.2044" stroke-miterlimit="10" x1="112.315" y1="56.42" x2="110.288" y2="51.519"/>
			
				<line fill="none" stroke="#909090" stroke-width="2.2044" stroke-miterlimit="10" x1="117.725" y1="54.182" x2="115.7" y2="49.282"/>
			
				<line fill="none" stroke="#909090" stroke-width="2.2044" stroke-miterlimit="10" x1="123.135" y1="51.944" x2="121.11" y2="47.044"/>
			
				<line fill="none" stroke="#909090" stroke-width="2.2044" stroke-miterlimit="10" x1="128.549" y1="49.707" x2="126.522" y2="44.805"/>
			
				<line fill="none" stroke="#909090" stroke-width="2.2044" stroke-miterlimit="10" x1="133.959" y1="47.467" x2="131.932" y2="42.566"/>
			
				<line fill="none" stroke="#909090" stroke-width="2.2044" stroke-miterlimit="10" x1="139.37" y1="45.229" x2="137.342" y2="40.328"/>
			
				<line fill="none" stroke="#909090" stroke-width="2.2044" stroke-miterlimit="10" x1="144.78" y1="42.991" x2="142.752" y2="38.09"/>
			
				<line fill="none" stroke="#909090" stroke-width="2.2044" stroke-miterlimit="10" x1="150.192" y1="40.752" x2="148.165" y2="35.852"/>
			
				<line fill="none" stroke="#909090" stroke-width="2.2044" stroke-miterlimit="10" x1="155.602" y1="38.514" x2="153.575" y2="33.615"/>
			
				<line fill="none" stroke="#909090" stroke-width="2.2044" stroke-miterlimit="10" x1="161.012" y1="36.276" x2="158.985" y2="31.376"/>
		</g>
		
			<rect x="171.292" y="59.387" transform="matrix(0.9904 -0.138 0.138 0.9904 -11.5597 25.056)" fill="#D5D5D5" width="7.174" height="72.979"/>
		
			<rect x="177.135" y="134.464" transform="matrix(0.9904 -0.1383 0.1383 0.9904 -17.3123 26.3166)" fill="#969696" width="7.174" height="6.553"/>
		
			<rect x="176.512" y="132.002" transform="matrix(0.9904 -0.1383 0.1383 0.9904 -16.7015 26.1876)" fill="#B4B4B4" width="7.174" height="2.557"/>
		
			<rect x="166.667" y="45.8" transform="matrix(0.9904 -0.1382 0.1382 0.9904 -4.8883 23.7032)" fill="#404040" width="3.116" height="2.497"/>
		<polygon fill="#FFFFFF" points="169.942,48.07 166.854,48.501 166.284,60.232 173.387,59.239 		"/>
		<g>
			<g>
				<path fill="#545454" d="M51.636,156.972c-0.34,3.121-3.171,5.397-6.292,5.058l-35.699-3.88c-3.121-0.34-5.396-3.171-5.057-6.292
					l8.244-75.728c0.34-3.121,3.171-5.396,6.292-5.057l35.699,3.883c3.121,0.339,5.396,3.171,5.057,6.292L51.636,156.972z"/>
			</g>
			<polygon fill="#FFFFFF" points="49.317,150.318 8.791,145.908 15.706,82.344 56.231,86.761 			"/>
			<polygon fill="#404040" points="34.934,156.852 21.419,155.375 21.853,151.375 35.367,152.851 			"/>
			
				<line fill="none" stroke="#404040" stroke-width="4.0272" stroke-miterlimit="10" x1="33.374" y1="78.183" x2="43.378" y2="79.271"/>
			<polygon fill="#B9B9B9" points="40.187,141.221 20.168,139.035 20.879,132.53 40.89,134.717 			"/>
			<path fill="#D5D5D5" d="M45.545,105.838c-0.716,6.65-6.676,11.438-13.315,10.719c-6.629-0.721-11.421-6.688-10.702-13.328
				c0.723-6.631,6.688-11.422,13.319-10.7C41.478,93.251,46.278,99.217,45.545,105.838z"/>
			
				<line fill="none" stroke="#404040" stroke-width="2.0136" stroke-miterlimit="10" x1="22.124" y1="121.021" x2="43.639" y2="123.364"/>
			
				<line fill="none" stroke="#404040" stroke-width="2.0136" stroke-miterlimit="10" x1="24.748" y1="124.844" x2="38.253" y2="126.32"/>
		</g>
	</g>
</g>
</svg>
