<?xml version="1.0" encoding="utf-8"?>
<!-- Generator: Adobe Illustrator 16.0.0, SVG Export Plug-In . SVG Version: 6.00 Build 0)  -->
<!DOCTYPE svg PUBLIC "-//W3C//DTD SVG 1.1//EN" "http://www.w3.org/Graphics/SVG/1.1/DTD/svg11.dtd">
<svg version="1.1" xmlns="http://www.w3.org/2000/svg" xmlns:xlink="http://www.w3.org/1999/xlink" x="0px" y="0px" width="660px"
	 height="420.357px" viewBox="0 0 660 420.357" enable-background="new 0 0 660 420.357" xml:space="preserve">
<g id="guide" display="none">
</g>
<g id="logotype">
	<g>
		<path fill="#5A5B5B" d="M330.001,12.381c-84.217,0-152.486,68.266-152.486,152.489c0,59.507,34.096,111.048,83.816,136.168
			c0-18.242,0-46.292,0-60.735c0-19.833,14.446-33.161,17.878-36.047c-0.07-4.372-0.579-27.973-3.452-37.378
			c-3.173-10.388-12.406-28.275-14.426-41.258c-2.02-12.983-2.885-40.681,4.904-64.049c4.87-14.606,11.429-15.464,15.663-14.052
			c2.344,0.781,4.285,2.457,5.567,4.569c0.907,1.494,2.044,3.304,2.237,5.785c0.159,2.034,0.48,18.988,2.211,22.451
			c1.73,3.461,8.078,26.253,8.078,31.158h0.334c0.008-0.059,0.004-0.117,0.028-0.175c1.561-3.562,7.998-17.264,15.918-20.23
			c0.404-0.151,0.84,0.129,0.84,0.562v7.643c0,0.476,0.524,0.771,0.926,0.515c3.13-1.994,14.046-8.001,30.406-6.816
			c0.553,0.04,0.763,0.75,0.325,1.089l-7.376,5.712c-0.428,0.333-0.245,1.012,0.292,1.082c3.895,0.501,14.345,2.556,18.221,10.433
			c0.031,0.062,0.028,0.124,0.036,0.187h0.062c0-4.904,6.348-27.696,8.077-31.158c1.731-3.463,2.055-20.417,2.213-22.451
			c0.192-2.481,1.328-4.29,2.236-5.785c1.283-2.11,3.226-3.788,5.568-4.567c4.233-1.412,10.793-0.556,15.661,14.05
			c7.79,23.368,6.925,51.067,4.905,64.049c-2.02,12.983-11.251,30.872-14.427,41.258c-2.873,9.405-3.382,33.006-3.451,37.378
			c3.432,2.886,17.878,16.214,17.878,36.047c0,14.444,0,42.495,0,60.737c49.723-25.12,83.819-76.661,83.819-136.17
			C482.485,80.649,414.218,12.381,330.001,12.381z"/>
		<path fill="#5A5B5B" d="M281.498,145.708c0.144-5.259,1.877-14.259,10.552-23.104c0.347-0.354,0.562-0.816,0.59-1.309
			c0.184-3.304,0.566-16.616-4.282-27.314c-5.068-11.186-5.041-20.068-5.198-22.63c-0.284-4.634,1.744-12.543-1.672-14.492
			c-3.708-2.115-10.056,7.503-11.979,16.734c-1.923,9.232-3.848,33.853,0,49.816c2.458,10.202,6.802,18.362,9.617,22.924
			C279.796,147.416,281.464,146.98,281.498,145.708z"/>
		<path fill="#5A5B5B" d="M378.502,145.708c-0.143-5.259-1.876-14.259-10.552-23.104c-0.347-0.354-0.562-0.816-0.59-1.309
			c-0.183-3.304-0.566-16.616,4.282-27.314c5.068-11.186,5.041-20.068,5.198-22.63c0.283-4.634-1.745-12.543,1.672-14.492
			c3.708-2.115,10.057,7.503,11.979,16.734c1.923,9.232,3.848,33.853,0,49.816c-2.458,10.202-6.802,18.362-9.618,22.924
			C380.204,147.416,378.536,146.98,378.502,145.708z"/>
		<path fill="#5A5B5B" d="M300.476,171.878c0,0-3.076,11.541-13.463,18.657c-10.388,7.116-3.849-12.887-3.849-12.887l-9.232,2.116
			C273.932,179.765,284.126,164.953,300.476,171.878z"/>
		<path fill="#5A5B5B" d="M360.102,171.878c0,0,3.078,11.541,13.464,18.657c10.387,7.116,3.848-12.887,3.848-12.887l9.232,2.116
			C386.645,179.765,376.45,164.953,360.102,171.878z"/>
		<g>
			<path fill="#5A5B5B" d="M344.42,185.72c-0.029-0.394-0.239-1.06-0.386-1.428c-0.597-1.508-2.457-5.444-6.271-6.717
				c-4.672-1.557-6.829,0-6.829,0s-0.959,0.749-1.678,0.72c-0.719,0.029-1.677-0.72-1.677-0.72s-2.157-1.557-6.83,0
				c-3.815,1.272-5.674,5.209-6.272,6.717c-0.145,0.366-0.354,1.034-0.386,1.428c-0.092,1.184-0.061,3.722,1.865,3.838
				c2.246,0.134,2.397-1.439,2.397-1.439s0.479-3.712,2.516-3.712c2.036,0,2.756,1.078,3.234,5.151
				c0.479,4.072,5.152,3.714,5.152,3.714s4.673,0.358,5.152-3.714c0.48-4.073,1.197-5.151,3.234-5.151
				c2.036,0,2.517,3.712,2.517,3.712s0.149,1.573,2.396,1.439C344.481,189.44,344.512,186.902,344.42,185.72z"/>
			<g>
				
					<path fill="none" stroke="#5A5B5B" stroke-width="3" stroke-linecap="round" stroke-linejoin="round" stroke-miterlimit="10" d="
					M353.299,201.909c0,0-0.958,9.665-9.266,11.343s-14.777-7.108-14.777-7.108v-14.317"/>
				
					<path fill="none" stroke="#5A5B5B" stroke-width="3" stroke-linecap="round" stroke-linejoin="round" stroke-miterlimit="10" d="
					M305.213,201.909c0,0,0.96,9.665,9.267,11.343c8.308,1.678,14.777-7.108,14.777-7.108v-14.317"/>
			</g>
			<path fill="#5A5B5B" stroke="#5A5B5B" stroke-width="2" stroke-miterlimit="10" d="M340.778,213.465c0,0-10.576,12.466-23.044,0
				c0,0,5.594,0.059,11.522-7.322C329.257,206.144,333.668,212.249,340.778,213.465z"/>
		</g>
		<path fill="#5A5B5B" d="M441.962,336.024h7.122v31.381c0.164,13.442,12.696,24.341,28.088,24.341
			c15.396,0,27.923-10.898,28.086-24.341v-31.381h7.124v31.381c-0.159,17.365-15.889,31.453-35.21,31.453
			c-19.311,0-35.054-14.088-35.21-31.453V336.024z M154.739,398.644h-7.121V367.09c0.158-17.369,15.885-31.455,35.207-31.455
			c19.319,0,35.05,14.086,35.211,31.455v31.554h-7.121V367.09c-0.168-13.453-12.693-24.344-28.09-24.344
			c-15.397,0-27.923,10.891-28.086,24.344V398.644z M259.729,391.896c11.746-0.08,19.386-4.798,25.436-14.148l7.8,0.013
			c-6.117,14.585-20.387,21.249-33.235,21.249c-19.417,0-35.21-14.396-35.21-31.888c0-1.001,0.059-2.078,0.164-3.063
			c1.757-16.021,16.81-28.657,35.046-28.657c18.12,0,35.061,12.882,35.061,32.599h-63.143
			C232.176,381.162,244.564,392,259.729,391.896z M405.797,394.827c-1.048,2.069-2.729,4.215-8.776,4.215
			c-5.078,0-7.326-2.146-8.771-4.215c-0.835-1.201-16.451-23.619-16.785-24.146c-2.006,15.784-16.863,28.361-34.911,28.361
			c-19.422,0-35.217-14.233-35.217-31.724c0-17.492,15.795-31.719,35.217-31.719c13.516,0,24.211,5.653,31.444,16.679l20.453,29.438
			c2.31,3.358,6.055,8.712,6.055,8.712c0.668,0.962,2.075,0.962,2.515,0.962s1.695,0.024,2.196-0.962
			c0.562-1.084,27.031-53.919,27.277-54.403c0,0,8.58-0.009,8.583,0C435.077,336.024,406.588,393.337,405.797,394.827z
			 M336.554,342.711c-15.502,0-28.107,11.038-28.107,24.607c0,13.57,12.605,24.609,28.107,24.609
			c15.492,0,28.099-11.039,28.099-24.609C364.652,353.749,352.046,342.711,336.554,342.711z M259.729,342.517
			c-13.038,0-24.025,7.812-27.185,18.366h54.388C283.771,350.188,272.748,342.517,259.729,342.517z"/>
	</g>
</g>
<g id="others" display="none">
	<g display="inline">
		<g>
			<path fill="#333333" d="M175.481,97.686c44.541,0,80.777,36.231,80.777,80.767c0,44.537-36.236,80.771-80.777,80.771
				s-80.777-36.234-80.777-80.771C94.704,133.917,130.94,97.686,175.481,97.686 M175.481,95.096
				c-46.041,0-83.367,37.319-83.367,83.356c0,46.041,37.326,83.361,83.367,83.361c46.046,0,83.367-37.32,83.367-83.361
				C258.848,132.415,221.527,95.096,175.481,95.096L175.481,95.096z"/>
		</g>
		<g>
			<path fill="none" stroke="#333333" stroke-width="4.5407" stroke-miterlimit="10" d="M136.053,250.63l-0.355-8.381
				c-0.075-1.782-0.137-4.699-0.137-6.483v-44.948c0-1.783,0.827-4.446,1.837-5.916l7.627-11.101c1.01-1.47,0.801-3.701-0.465-4.958
				l-17.424-17.299c-1.266-1.257-1.968-3.706-1.56-5.442l7.226-30.737c0.408-1.736,1.466-1.89,2.35-0.341l21.85,38.284
				c0.884,1.549,2.873,2.09,4.42,1.201l11.719-6.729c1.547-0.889,4.077-0.886,5.622,0.006l11.635,6.717
				c1.545,0.892,3.369,0.273,4.054-1.374l15.764-37.927c0.685-1.647,1.696-1.607,2.249,0.089l10.05,30.884
				c0.552,1.696-0.008,4.136-1.245,5.421l-16.541,17.195c-1.237,1.285-1.337,3.477-0.223,4.87l8.738,10.932
				c1.114,1.394,2.025,2.534,2.025,2.534c0,0.003,0,1.464,0,3.247v45.392c0,1.784,0.004,4.702,0.009,6.486l0.022,8.165"/>
		</g>
		<g>
			<path fill="#333333" d="M215.937,173.361c0.214-1.049-0.452-2.153-1.479-2.454l-18.317-5.358
				c-1.027-0.301-1.319,0.136-0.648,0.97l16.202,20.158c0.67,0.834,1.394,0.658,1.608-0.391L215.937,173.361z"/>
		</g>
		<g>
			<path fill="#333333" d="M132.901,175.144c-0.283-1.032,0.307-2.18,1.312-2.549l17.901-6.585c1.005-0.369,1.325,0.046,0.712,0.924
				l-14.806,21.202c-0.613,0.878-1.346,0.751-1.629-0.281L132.901,175.144z"/>
		</g>
		
			<line fill="none" stroke="#333333" stroke-width="3.2433" stroke-linecap="round" stroke-miterlimit="10" x1="143.163" y1="171.067" x2="126.54" y2="177.324"/>
		
			<line fill="none" stroke="#333333" stroke-width="3.2433" stroke-linecap="round" stroke-miterlimit="10" x1="221.638" y1="174.998" x2="204.634" y2="169.89"/>
		<polyline fill="none" stroke="#333333" stroke-width="4.5407" stroke-linecap="round" stroke-miterlimit="10" points="
			155.571,205.661 161.412,211.501 175.471,205.661 189.671,211.501 195.076,206.096 		"/>
	</g>
	<g display="inline">
		<g>
			<path fill="#333333" d="M36.439,87.795c-0.278,0.915-1.288,1.663-2.244,1.663H26.29c-0.956,0-1.966-0.748-2.244-1.663
				l-1.394-4.582c-0.278-0.915,0.276-1.663,1.232-1.663h12.715c0.956,0,1.511,0.748,1.232,1.663L36.439,87.795z"/>
		</g>
		<g>
			
				<path fill="none" stroke="#333333" stroke-width="1.7383" stroke-linecap="round" stroke-linejoin="round" stroke-miterlimit="10" d="
				M19.237,109.763l3.411,4.293c0.595,0.749,1.864,1.361,2.82,1.361h9.55c0.956,0,2.225-0.612,2.819-1.361l3.411-4.293"/>
		</g>
		<g>
			
				<path fill="none" stroke="#333333" stroke-width="1.1589" stroke-linecap="round" stroke-linejoin="round" stroke-miterlimit="10" d="
				M10.253,96.726l8.091,6.713c0.491,0.407,1.414,0.74,2.051,0.74h19.693c0.637,0,1.56-0.333,2.051-0.74l8.091-6.713"/>
		</g>
	</g>
	<g display="inline">
		<g>
			
				<path fill="none" stroke="#333333" stroke-width="2.9853" stroke-linecap="round" stroke-linejoin="round" stroke-miterlimit="10" d="
				M413.555,135.212c0,5.262-6.099,7.193-22.711,7.193"/>
			
				<path fill="none" stroke="#333333" stroke-width="2.9853" stroke-linecap="round" stroke-linejoin="round" stroke-miterlimit="10" d="
				M409.483,132.845c1.596,4.418-2.797,8.197-16.362,14.066"/>
		</g>
		<g>
			
				<path fill="none" stroke="#333333" stroke-width="2.9853" stroke-linecap="round" stroke-linejoin="round" stroke-miterlimit="10" d="
				M347.101,135.212c0,5.262,6.099,7.193,22.71,7.193"/>
			
				<path fill="none" stroke="#333333" stroke-width="2.9853" stroke-linecap="round" stroke-linejoin="round" stroke-miterlimit="10" d="
				M351.172,132.845c-1.597,4.418,2.797,8.197,16.362,14.066"/>
		</g>
		<path fill="#FFFFFF" stroke="#333333" stroke-miterlimit="10" d="M401.323,140.331c-2.66,0-5.033,1.221-6.592,3.133h-7.488v7.593
			h5.878c0.978,3.619,4.274,6.285,8.202,6.285c4.696,0,8.505-3.809,8.505-8.505C409.828,144.139,406.02,140.331,401.323,140.331z"/>
		<path fill="#FFFFFF" stroke="#333333" stroke-miterlimit="10" d="M359.749,140.331c2.66,0,5.032,1.221,6.592,3.133h7.487v7.593
			h-5.878c-0.977,3.619-4.274,6.285-8.202,6.285c-4.697,0-8.505-3.809-8.505-8.505C351.243,144.139,355.052,140.331,359.749,140.331
			z"/>
		<g>
			<path fill="#FFFFFF" d="M354.496,217.215c-1.549-0.272-2.884-1.78-2.967-3.351l-2.435-46.012
				c-0.083-1.57,0.666-3.851,1.663-5.066l3.586-4.369c0.998-1.216,2.837-2.991,4.087-3.945l8.862-6.76
				c1.25-0.954,1.007-1.965-0.541-2.246l-12.518-2.274c-1.547-0.281-2.379-1.723-1.849-3.204l1.941-5.417
				c0.531-1.481,0.687-3.948,0.346-5.484l-4.364-19.689c-0.34-1.536,0.185-3.797,1.167-5.025l12.801-16.005
				c0.982-1.229,1.715-0.948,1.627,0.622l-2.229,39.744c-0.088,1.57,0.953,2.212,2.316,1.426l10.258-5.921
				c1.363-0.786,3.332-1.43,4.377-1.43s3.015,0.644,4.377,1.43l10.258,5.921c1.363,0.786,2.404,0.145,2.316-1.426l-2.228-39.744
				c-0.088-1.57,0.644-1.851,1.626-0.622l12.801,16.005c0.982,1.229,1.508,3.489,1.168,5.025l-4.364,19.689
				c-0.341,1.536-0.185,4.003,0.347,5.483l1.941,5.418c0.53,1.481-0.302,2.923-1.85,3.204l-12.518,2.274
				c-1.548,0.281-1.791,1.292-0.541,2.246l8.861,6.76c1.251,0.954,3.09,2.729,4.088,3.945l3.586,4.369
				c0.998,1.216,1.771,3.497,1.718,5.069l-1.549,46.006c-0.053,1.572-1.362,3.089-2.909,3.37l-23.315,4.237
				c-1.548,0.281-4.081,0.289-5.63,0.017L354.496,217.215z"/>
			<path fill="none" stroke="#333333" stroke-width="3" stroke-miterlimit="10" d="M354.496,217.215
				c-1.549-0.272-2.884-1.78-2.967-3.351l-2.435-46.012c-0.083-1.57,0.666-3.851,1.663-5.066l3.586-4.369
				c0.998-1.216,2.837-2.991,4.087-3.945l8.862-6.76c1.25-0.954,1.007-1.965-0.541-2.246l-12.518-2.274
				c-1.547-0.281-2.379-1.723-1.849-3.204l1.941-5.417c0.531-1.481,0.687-3.948,0.346-5.484l-4.364-19.689
				c-0.34-1.536,0.185-3.797,1.167-5.025l12.801-16.005c0.982-1.229,1.715-0.948,1.627,0.622l-2.229,39.744
				c-0.088,1.57,0.953,2.212,2.316,1.426l10.258-5.921c1.363-0.786,3.332-1.43,4.377-1.43s3.015,0.644,4.377,1.43l10.258,5.921
				c1.363,0.786,2.404,0.145,2.316-1.426l-2.228-39.744c-0.088-1.57,0.644-1.851,1.626-0.622l12.801,16.005
				c0.982,1.229,1.508,3.489,1.168,5.025l-4.364,19.689c-0.341,1.536-0.185,4.003,0.347,5.483l1.941,5.418
				c0.53,1.481-0.302,2.923-1.85,3.204l-12.518,2.274c-1.548,0.281-1.791,1.292-0.541,2.246l8.861,6.76
				c1.251,0.954,3.09,2.729,4.088,3.945l3.586,4.369c0.998,1.216,1.771,3.497,1.718,5.069l-1.549,46.006
				c-0.053,1.572-1.362,3.089-2.909,3.37l-23.315,4.237c-1.548,0.281-4.081,0.289-5.63,0.017L354.496,217.215z"/>
		</g>
		<circle fill="#333333" cx="400.075" cy="147.588" r="4"/>
		<circle fill="#333333" cx="360.848" cy="147.588" r="4"/>
		<g>
			<path fill="#333333" d="M382.11,81.759c38.333,0,69.52,31.185,69.52,69.517c0,38.335-31.187,69.522-69.52,69.522
				c-38.333,0-69.52-31.188-69.52-69.522C312.59,112.943,343.777,81.759,382.11,81.759 M382.11,77.778
				c-40.592,0-73.5,32.905-73.5,73.497c0,40.596,32.908,73.503,73.5,73.503c40.596,0,73.5-32.907,73.5-73.503
				C455.61,110.684,422.706,77.778,382.11,77.778L382.11,77.778z"/>
		</g>
	</g>
	<g display="inline">
		<polyline fill="none" stroke="#333333" stroke-width="4.0232" stroke-linecap="round" stroke-miterlimit="10" points="
			19.85,82.913 30.312,90.653 40.077,82.913 		"/>
		<path fill="#333333" d="M20.469,92.469c3.582,2.921,8.541,2.771,11.076-0.337L18.577,81.55
			C16.041,84.657,16.888,89.546,20.469,92.469z"/>
		<path fill="#333333" d="M39.362,92.469c-3.582,2.921-8.541,2.771-11.076-0.337L41.254,81.55
			C43.791,84.657,42.943,89.546,39.362,92.469z"/>
	</g>
	<g display="inline">
		<polyline fill="none" stroke="#333333" stroke-width="4.0232" stroke-linecap="round" stroke-miterlimit="10" points="
			165.371,184.984 175.833,192.725 185.598,184.984 		"/>
		<path fill="#333333" d="M165.727,194.54c3.582,2.921,8.541,2.771,11.076-0.337l-12.969-10.582
			C161.298,186.729,162.146,191.617,165.727,194.54z"/>
		<path fill="#333333" d="M185.234,194.54c-3.582,2.921-8.541,2.771-11.076-0.337l12.969-10.582
			C189.663,186.729,188.816,191.617,185.234,194.54z"/>
		<ellipse fill="#333333" cx="175.481" cy="187.104" rx="13.097" ry="7.652"/>
	</g>
	<g display="inline">
		<polyline fill="none" stroke="#333333" stroke-width="4.0232" stroke-linecap="round" stroke-miterlimit="10" points="
			370.517,166.83 380.979,174.57 390.743,166.83 		"/>
		<path fill="#333333" d="M370.872,176.386c3.582,2.921,8.541,2.771,11.076-0.337l-12.969-10.582
			C366.444,168.574,367.291,173.463,370.872,176.386z"/>
		<path fill="#333333" d="M390.38,176.386c-3.582,2.921-8.541,2.771-11.076-0.337l12.969-10.582
			C394.809,168.574,393.962,173.463,390.38,176.386z"/>
		<ellipse fill="#333333" cx="380.627" cy="168.95" rx="13.097" ry="7.652"/>
	</g>
	
		<polyline display="inline" fill="none" stroke="#333333" stroke-width="2" stroke-linecap="round" stroke-linejoin="round" stroke-miterlimit="10" points="
		365.878,185.273 370.257,191.113 380.798,185.273 391.445,191.113 395.497,185.708 	"/>
	<g display="inline">
		
			<polyline fill="none" stroke="#000000" stroke-width="2" stroke-linecap="round" stroke-linejoin="round" stroke-miterlimit="10" points="
			492.597,72.629 497.747,77.778 510.142,72.629 522.662,77.778 527.427,73.012 		"/>
		<polyline fill="none" stroke="#000000" stroke-width="2" stroke-linecap="round" stroke-miterlimit="10" points="499.601,53.568 
			510.012,61.271 519.728,53.568 		"/>
		
			<line fill="none" stroke="#000000" stroke-width="2" stroke-linecap="round" stroke-miterlimit="10" x1="510.142" y1="72.629" x2="510.142" y2="61.271"/>
	</g>
	
		<line display="inline" fill="none" stroke="#333333" stroke-width="2" stroke-linecap="round" stroke-linejoin="round" stroke-miterlimit="10" x1="380.63" y1="185.273" x2="380.63" y2="181.426"/>
</g>
</svg>
