<?xml version="1.0" encoding="utf-8"?>
<!-- Generator: Adobe Illustrator 16.0.0, SVG Export Plug-In . SVG Version: 6.00 Build 0)  -->
<!DOCTYPE svg PUBLIC "-//W3C//DTD SVG 1.1//EN" "http://www.w3.org/Graphics/SVG/1.1/DTD/svg11.dtd">
<svg version="1.1" id="Layer_1" xmlns="http://www.w3.org/2000/svg" xmlns:xlink="http://www.w3.org/1999/xlink" x="0px" y="0px"
	 width="1920px" height="1080px" viewBox="0 0 1920 1080" enable-background="new 0 0 1920 1080" xml:space="preserve">
<rect x="-0.001" fill="#51AC27" width="1920" height="1080"/>
<g>
	<g>
		<g>
			<path fill="#51AC27" d="M991.219,632.974c-1.377,0-2.498-1.12-2.498-2.498v-13.591c0-1.377,1.121-2.498,2.498-2.498h167.015
				c1.376,0,2.497,1.121,2.497,2.498v13.591c0,1.378-1.12,2.498-2.497,2.498H991.219z"/>
			<path fill="#FFFFFF" d="M1158.232,615.388c0.826,0,1.496,0.67,1.496,1.498v13.591c0,0.827-0.671,1.498-1.496,1.498H991.219
				c-0.826,0-1.498-0.67-1.498-1.498v-13.591c0-0.827,0.67-1.498,1.498-1.498H1158.232 M1158.232,613.388H991.219
				c-1.929,0-3.498,1.569-3.498,3.498v13.591c0,1.931,1.569,3.498,3.498,3.498h167.015c1.928,0,3.495-1.567,3.495-3.498v-13.591
				C1161.729,614.957,1160.16,613.388,1158.232,613.388L1158.232,613.388z"/>
		</g>
		<g>
			<g>
				<path fill="#51AC27" d="M990.92,919.517c-6.064,0-11.002-4.935-11.002-11.001V636.297c0-6.065,4.938-11.002,11.002-11.002
					h170.606c6.064,0,11.002,4.936,11.002,11.002v272.219c0,6.066-4.938,11.001-11.002,11.001H990.92L990.92,919.517z"/>
				<path fill="#FFFFFF" d="M1161.526,626.295c5.5,0,10.002,4.5,10.002,10v272.22c0,5.501-4.501,10.001-10.002,10.001H990.92
					c-5.5,0-10.002-4.5-10.002-10.001v-272.22c0-5.5,4.5-10,10.002-10H1161.526 M1161.526,624.295H990.92
					c-6.617,0-12.002,5.384-12.002,12v272.22c0,6.618,5.385,12.001,12.002,12.001h170.606c6.618,0,12.002-5.385,12.002-12.001
					v-272.22C1173.528,629.679,1168.145,624.295,1161.526,624.295L1161.526,624.295z"/>
			</g>
		</g>
		<g id="logotype">
			<g>
				<path fill="none" stroke="#FFFFFF" stroke-width="1.6062" stroke-miterlimit="10" d="M1119.023,834.214
					c0,23.636-19.16,42.797-42.799,42.797s-42.8-19.161-42.8-42.797c0-23.64,19.162-42.8,42.8-42.8
					C1099.863,791.414,1119.023,810.574,1119.023,834.214z"/>
				<g>
					<g>
						<defs>
							<path id="SVGID_1_" d="M1119.023,834.214c0,23.636-19.16,42.797-42.799,42.797s-42.8-19.161-42.8-42.797
								c0-23.64,19.162-42.8,42.8-42.8C1099.863,791.414,1119.023,810.574,1119.023,834.214z"/>
						</defs>
						<clipPath id="SVGID_2_">
							<use xlink:href="#SVGID_1_"  overflow="visible"/>
						</clipPath>
						<g clip-path="url(#SVGID_2_)">
							<path fill="#FFFFFF" d="M1095.497,822.917c0.567-3.645,0.811-11.418-1.376-17.978c-1.366-4.1-3.207-4.34-4.396-3.943
								c-0.657,0.219-1.202,0.689-1.562,1.282c-0.255,0.419-0.574,0.927-0.628,1.624c-0.044,0.57-0.135,5.329-0.621,6.301
								c-0.485,0.972-2.267,7.369-2.267,8.746h-0.018c-0.002-0.018-0.002-0.035-0.011-0.053c-1.087-2.211-4.021-2.788-5.114-2.929
								c-0.15-0.02-0.201-0.21-0.082-0.303l2.071-1.604c0.122-0.096,0.063-0.294-0.092-0.306c-4.592-0.333-7.656,1.354-8.534,1.913
								c-0.113,0.072-0.26-0.011-0.26-0.145v-2.146c0-0.121-0.122-0.2-0.236-0.157c-2.224,0.832-4.029,4.679-4.468,5.678
								c-0.007,0.017-0.006,0.032-0.008,0.049h-0.094c0-1.376-1.781-7.773-2.268-8.745c-0.485-0.972-0.576-5.73-0.62-6.302
								c-0.054-0.696-0.373-1.204-0.628-1.624c-0.36-0.592-0.904-1.062-1.563-1.282c-1.188-0.396-3.029-0.155-4.396,3.944
								c-2.187,6.559-1.943,14.333-1.376,17.978c0.566,3.643,3.157,8.664,4.049,11.579c0.806,2.641,0.948,9.265,0.968,10.492
								c-0.963,0.811-5.018,4.551-5.018,10.118c0,6.315,0,21.904,0,21.904h19.274h19.272c0,0,0-15.589,0-21.904
								c0-5.567-4.055-9.308-5.018-10.118c0.02-1.228,0.163-7.852,0.969-10.492C1092.34,831.581,1094.931,826.561,1095.497,822.917z
								"/>
							<path fill="#51AC27" d="M1062.611,828.556c0.04-1.477,0.526-4.003,2.961-6.485c0.098-0.1,0.158-0.229,0.166-0.368
								c0.051-0.927,0.159-4.664-1.202-7.666c-1.423-3.14-1.415-5.633-1.459-6.353c-0.079-1.301,0.489-3.52-0.47-4.066
								c-1.04-0.595-2.822,2.104-3.362,4.696s-1.08,9.502,0,13.982c0.69,2.863,1.909,5.154,2.699,6.435
								C1062.134,829.034,1062.602,828.912,1062.611,828.556z"/>
							<path fill="#51AC27" d="M1089.838,828.556c-0.04-1.477-0.526-4.003-2.961-6.485c-0.098-0.1-0.158-0.229-0.166-0.368
								c-0.051-0.927-0.159-4.664,1.201-7.666c1.424-3.14,1.416-5.633,1.46-6.353c0.079-1.301-0.49-3.52,0.469-4.066
								c1.041-0.595,2.822,2.104,3.362,4.696c0.541,2.592,1.08,9.502,0,13.982c-0.689,2.863-1.909,5.154-2.699,6.435
								C1090.315,829.034,1089.847,828.912,1089.838,828.556z"/>
							<path fill="#51AC27" d="M1067.938,835.9c0,0-0.864,3.239-3.78,5.237c-2.915,1.997-1.08-3.618-1.08-3.618l-2.591,0.595
								C1060.487,838.114,1063.349,833.957,1067.938,835.9z"/>
							<path fill="#51AC27" d="M1084.674,835.9c0,0,0.863,3.239,3.778,5.237c2.916,1.997,1.08-3.618,1.08-3.618l2.592,0.595
								C1092.123,838.114,1089.262,833.957,1084.674,835.9z"/>
							<g>
								<path fill="#51AC27" d="M1080.272,839.786c-0.009-0.111-0.068-0.299-0.108-0.401c-0.168-0.423-0.689-1.528-1.761-1.886
									c-1.312-0.437-1.917,0-1.917,0s-0.269,0.211-0.471,0.202c-0.202,0.009-0.471-0.202-0.471-0.202s-0.605-0.437-1.917,0
									c-1.071,0.357-1.593,1.463-1.761,1.886c-0.04,0.103-0.099,0.29-0.108,0.401c-0.025,0.331-0.017,1.044,0.523,1.076
									c0.632,0.038,0.673-0.403,0.673-0.403s0.135-1.042,0.707-1.042c0.571,0,0.772,0.303,0.907,1.445
									c0.135,1.144,1.446,1.043,1.446,1.043s1.312,0.101,1.446-1.043c0.135-1.143,0.336-1.445,0.907-1.445
									c0.572,0,0.707,1.042,0.707,1.042s0.042,0.441,0.672,0.403C1080.289,840.829,1080.298,840.117,1080.272,839.786z"/>
								<g>
									
										<path fill="none" stroke="#51AC27" stroke-width="0.9637" stroke-linecap="round" stroke-linejoin="round" stroke-miterlimit="10" d="
										M1082.765,844.33c0,0-0.27,2.712-2.602,3.183c-2.331,0.471-4.147-1.995-4.147-1.995V841.5"/>
									
										<path fill="none" stroke="#51AC27" stroke-width="0.9637" stroke-linecap="round" stroke-linejoin="round" stroke-miterlimit="10" d="
										M1069.268,844.33c0,0,0.269,2.712,2.601,3.183s4.148-1.995,4.148-1.995V841.5"/>
								</g>
								<path fill="#51AC27" d="M1079.249,847.573c0,0-2.968,3.499-6.467,0c0,0,1.569,0.016,3.234-2.056
									C1076.017,845.518,1077.254,847.232,1079.249,847.573z"/>
							</g>
						</g>
					</g>
				</g>
			</g>
		</g>
	</g>
	<g>
		<g>
			<rect x="753.792" y="573.658" fill="#51AC27" width="174.65" height="314.885"/>
			<path fill="#FFFFFF" d="M927.441,574.658v312.885h-172.65V574.658H927.441 M929.441,572.658h-2h-172.65h-2v2v312.885v2h2h172.65
				h2v-2V574.658V572.658L929.441,572.658z"/>
		</g>
		<g>
			<path fill="#51AC27" d="M775.676,920.402c-15.553,0-28.207-12.654-28.207-28.209V573.596c0-15.553,12.654-28.207,28.207-28.207
				h134.368c15.529,0,28.205,12.652,28.257,28.204v318.602c0,15.555-12.653,28.209-28.207,28.209L775.676,920.402L775.676,920.402z
				 M924.215,875.568V581.879H759.938v293.689H924.215z"/>
			<path fill="#FFFFFF" d="M910.045,546.39c14.969,0,27.207,12.237,27.257,27.207v318.6c0,14.969-12.237,27.207-27.207,27.207
				H775.677c-14.969,0-27.207-12.238-27.207-27.207v-318.6c0-14.97,12.238-27.207,27.207-27.207H910.045 M758.938,876.568h166.277
				V580.879H758.938V876.568 M910.045,544.39H775.677c-16.104,0-29.207,13.104-29.207,29.207v318.6
				c0,16.104,13.103,29.207,29.207,29.207h134.418c16.105,0,29.207-13.104,29.207-29.207v-318.6
				C939.248,557.488,926.123,544.39,910.045,544.39L910.045,544.39z M760.938,582.879h162.277v291.689H760.938V582.879
				L760.938,582.879z"/>
		</g>
		<g>
			<rect x="884.618" y="854.824" fill="#51AC27" width="9.737" height="9.482"/>
			<path fill="#FFFFFF" d="M893.356,855.824v7.482h-7.738v-7.482H893.356 M895.356,853.824h-2h-7.738h-2v2v7.482v2h2h7.738h2v-2
				v-7.482V853.824L895.356,853.824z"/>
		</g>
		<g>
			<path fill="#51AC27" d="M841.774,864.512c-2.728,0-4.945-2.219-4.945-4.944c0-2.727,2.218-4.943,4.945-4.943
				c2.726,0,4.943,2.217,4.943,4.943C846.718,862.293,844.5,864.512,841.774,864.512z"/>
			<path fill="#FFFFFF" d="M841.774,855.621c2.178,0,3.943,1.767,3.943,3.945c0,2.178-1.767,3.943-3.943,3.943
				c-2.18,0-3.945-1.767-3.945-3.943C837.829,857.388,839.595,855.621,841.774,855.621 M841.774,853.621
				c-3.278,0-5.945,2.668-5.945,5.945c0,3.276,2.667,5.943,5.945,5.943c3.277,0,5.943-2.667,5.943-5.943
				C847.718,856.287,845.052,853.621,841.774,853.621L841.774,853.621z"/>
		</g>
		<g>
			<polygon fill="#51AC27" points="793.381,862.859 787.777,859.676 798.979,853.178 798.979,866.107 			"/>
			<path fill="#FFFFFF" d="M797.979,854.914v4.752v4.703l-4.096-2.377l-4.096-2.326l4.096-2.377L797.979,854.914 M799.979,851.441
				l-3.004,1.742l-4.096,2.376l-4.096,2.377l-3.014,1.749l3.029,1.723l4.096,2.325l4.08,2.367l3.004,1.742v-3.473v-4.703v-4.752
				V851.441L799.979,851.441z"/>
		</g>
	</g>
	<g>
		
			<text transform="matrix(1 0 0 1 800.5938 790.9795)" fill="#FFFFFF" font-family="'Helvetica-Light'" font-size="13.6145" letter-spacing="1">savehome</text>
		<g>
			<path fill="#FFFFFF" d="M880.438,755.337h2.39v10.525c0.055,4.509,4.258,8.164,9.42,8.164c5.164,0,9.365-3.655,9.419-8.164
				v-10.525h2.389v10.525c-0.053,5.823-5.329,10.55-11.809,10.55c-6.478,0-11.757-4.727-11.811-10.55v-10.525H880.438z
				 M784.105,776.34h-2.389v-10.583c0.053-5.825,5.328-10.55,11.809-10.55c6.479,0,11.755,4.725,11.81,10.55v10.583h-2.389v-10.583
				c-0.057-4.512-4.257-8.164-9.421-8.164s-9.365,3.652-9.42,8.164V776.34z M819.318,774.076c3.938-0.026,6.501-1.609,8.53-4.744
				l2.616,0.003c-2.052,4.893-6.838,7.128-11.146,7.128c-6.513,0-11.811-4.829-11.811-10.695c0-0.336,0.021-0.696,0.057-1.026
				c0.589-5.373,5.638-9.611,11.754-9.611c6.077,0,11.759,4.32,11.759,10.933h-21.178
				C810.077,770.477,814.232,774.111,819.318,774.076z M868.309,775.06c-0.352,0.694-0.916,1.414-2.943,1.414
				c-1.703,0-2.457-0.72-2.941-1.414c-0.279-0.402-5.518-7.922-5.63-8.099c-0.673,5.294-5.656,9.513-11.708,9.513
				c-6.514,0-11.812-4.773-11.812-10.641s5.297-10.638,11.812-10.638c4.533,0,8.12,1.896,10.546,5.594l6.86,9.873
				c0.773,1.127,2.031,2.922,2.031,2.922c0.224,0.322,0.695,0.322,0.843,0.322s0.569,0.009,0.736-0.322
				c0.188-0.363,9.066-18.084,9.147-18.247c0,0,2.878-0.002,2.879,0C878.128,755.337,868.573,774.56,868.309,775.06z
				 M845.085,757.58c-5.2,0-9.428,3.702-9.428,8.253c0,4.552,4.228,8.254,9.428,8.254c5.195,0,9.424-3.702,9.424-8.254
				C854.509,761.282,850.28,757.58,845.085,757.58z M819.318,757.515c-4.373,0-8.059,2.62-9.118,6.16h18.241
				C827.382,760.088,823.685,757.515,819.318,757.515z"/>
		</g>
	</g>
</g>
<g>
	<g enable-background="new    ">
		<path fill="#FFFFFF" d="M481.229,270.966h3.31v24.368h34.295v-24.368h3.309v53.699h-3.309v-26.474h-34.295v26.474h-3.309
			L481.229,270.966L481.229,270.966z"/>
		<path fill="#FFFFFF" d="M529.287,305.337c0-2.757,0.388-5.352,1.166-7.784c0.777-2.432,1.918-4.575,3.422-6.431
			c1.504-1.854,3.358-3.321,5.565-4.399c2.206-1.078,4.737-1.617,7.596-1.617s5.389,0.539,7.596,1.617
			c2.206,1.078,4.062,2.545,5.565,4.399c1.504,1.855,2.644,3.999,3.422,6.431c0.777,2.433,1.166,5.027,1.166,7.784
			c0,2.758-0.389,5.365-1.166,7.821c-0.778,2.457-1.917,4.601-3.422,6.431s-3.36,3.284-5.565,4.361
			c-2.207,1.078-4.737,1.617-7.596,1.617s-5.39-0.539-7.596-1.617c-2.207-1.077-4.062-2.531-5.565-4.361
			c-1.504-1.83-2.646-3.974-3.422-6.431C529.675,310.703,529.287,308.095,529.287,305.337z M532.145,305.337
			c0,2.307,0.326,4.525,0.979,6.655c0.651,2.132,1.604,4.023,2.858,5.679c1.253,1.654,2.808,2.971,4.663,3.948
			c1.854,0.978,3.985,1.467,6.393,1.467s4.537-0.489,6.393-1.467c1.854-0.978,3.409-2.294,4.663-3.948
			c1.253-1.655,2.206-3.547,2.858-5.679c0.65-2.13,0.978-4.349,0.978-6.655c0-2.306-0.327-4.524-0.978-6.656
			c-0.652-2.131-1.605-4.023-2.858-5.679c-1.254-1.654-2.809-2.971-4.663-3.948c-1.855-0.978-3.985-1.467-6.393-1.467
			s-4.538,0.489-6.393,1.467c-1.855,0.978-3.41,2.294-4.663,3.948c-1.255,1.655-2.207,3.548-2.858,5.679
			C532.471,300.813,532.145,303.032,532.145,305.337z"/>
		<path fill="#FFFFFF" d="M581.104,321.356h0.15l10.529-35.348h3.835l10.604,35.348h0.15l10.83-35.348h3.159l-12.409,38.657h-3.535
			l-10.604-35.047h-0.151l-10.679,35.047h-3.61l-12.259-38.657h3.083L581.104,321.356z"/>
		<path fill="#FFFFFF" d="M654.959,321.356h0.15l10.528-35.348h3.835l10.604,35.348h0.149l10.83-35.348h3.159l-12.409,38.657h-3.534
			l-10.604-35.047h-0.15l-10.68,35.047h-3.609l-12.26-38.657h3.083L654.959,321.356z"/>
		<path fill="#FFFFFF" d="M696.474,305.337c0-2.757,0.389-5.352,1.166-7.784c0.777-2.432,1.918-4.575,3.423-6.431
			c1.504-1.854,3.357-3.321,5.564-4.399c2.206-1.078,4.738-1.617,7.596-1.617c2.858,0,5.39,0.539,7.597,1.617
			c2.206,1.078,4.061,2.545,5.564,4.399c1.504,1.855,2.645,3.999,3.422,6.431c0.777,2.433,1.166,5.027,1.166,7.784
			c0,2.758-0.389,5.365-1.166,7.821c-0.777,2.457-1.917,4.601-3.422,6.431s-3.359,3.284-5.564,4.361
			c-2.207,1.078-4.738,1.617-7.597,1.617c-2.857,0-5.39-0.539-7.596-1.617c-2.207-1.077-4.062-2.531-5.564-4.361
			c-1.505-1.83-2.646-3.974-3.423-6.431C696.861,310.703,696.474,308.095,696.474,305.337z M699.332,305.337
			c0,2.307,0.326,4.525,0.978,6.655c0.651,2.132,1.604,4.023,2.858,5.679c1.253,1.654,2.808,2.971,4.663,3.948
			c1.854,0.978,3.986,1.467,6.393,1.467c2.407,0,4.537-0.489,6.394-1.467c1.854-0.978,3.409-2.294,4.663-3.948
			c1.253-1.655,2.206-3.547,2.857-5.679c0.651-2.13,0.979-4.349,0.979-6.655c0-2.306-0.327-4.524-0.979-6.656
			c-0.651-2.131-1.604-4.023-2.857-5.679c-1.254-1.654-2.81-2.971-4.663-3.948c-1.856-0.978-3.986-1.467-6.394-1.467
			c-2.406,0-4.538,0.489-6.393,1.467c-1.855,0.978-3.41,2.294-4.663,3.948c-1.254,1.655-2.207,3.548-2.858,5.679
			C699.657,300.813,699.332,303.032,699.332,305.337z"/>
		<path fill="#FFFFFF" d="M741.523,294.583h0.226c0.35-1.253,0.989-2.432,1.917-3.535c0.927-1.103,2.056-2.056,3.385-2.858
			c1.328-0.801,2.808-1.416,4.438-1.842c1.629-0.426,3.32-0.614,5.077-0.564v2.858c-1.505-0.2-3.223-0.05-5.152,0.451
			c-1.931,0.501-3.773,1.604-5.528,3.309c-0.703,0.752-1.315,1.479-1.843,2.182c-0.526,0.702-0.966,1.479-1.315,2.331
			c-0.353,0.854-0.628,1.805-0.827,2.858c-0.201,1.053-0.327,2.307-0.376,3.76v21.134h-2.858V286.01h2.858V294.583L741.523,294.583z
			"/>
		<path fill="#FFFFFF" d="M759.723,270.966h2.858v35.574l23.841-20.532h4.136l-16.921,14.44l18.125,24.217h-3.911l-16.471-22.036
			l-8.799,7.445v14.591h-2.858V270.966L759.723,270.966z"/>
		<path fill="#FFFFFF" d="M795.748,311.805c0.1,1.805,0.501,3.397,1.203,4.775c0.702,1.38,1.617,2.558,2.745,3.535
			c1.128,0.977,2.443,1.718,3.947,2.219c1.506,0.501,3.135,0.752,4.89,0.752c1.253,0,2.595-0.113,4.023-0.339
			c1.43-0.226,2.758-0.639,3.985-1.241c1.229-0.602,2.243-1.44,3.046-2.52c0.802-1.077,1.203-2.443,1.203-4.099
			c0-2.155-0.651-3.785-1.955-4.889c-1.305-1.102-2.946-1.955-4.926-2.557c-1.981-0.602-4.112-1.091-6.394-1.467
			s-4.413-0.94-6.394-1.692c-1.981-0.752-3.622-1.816-4.926-3.196c-1.306-1.378-1.955-3.396-1.955-6.054
			c0-1.905,0.425-3.497,1.277-4.776c0.853-1.278,1.942-2.294,3.271-3.046c1.328-0.752,2.82-1.29,4.475-1.617
			c1.655-0.325,3.311-0.488,4.964-0.488c2.005,0,3.886,0.226,5.642,0.677c1.755,0.451,3.271,1.179,4.551,2.181
			c1.278,1.004,2.28,2.282,3.008,3.836c0.728,1.555,1.091,3.435,1.091,5.641h-2.857c0-1.754-0.289-3.259-0.864-4.513
			c-0.577-1.252-1.38-2.268-2.407-3.046c-1.027-0.776-2.244-1.354-3.646-1.729c-1.404-0.376-2.908-0.564-4.513-0.564
			c-1.305,0-2.62,0.126-3.948,0.376c-1.329,0.252-2.521,0.678-3.572,1.279c-1.052,0.601-1.918,1.379-2.595,2.331
			c-0.678,0.953-1.017,2.105-1.017,3.46c0,1.555,0.376,2.809,1.128,3.76c0.754,0.953,1.742,1.719,2.972,2.294
			c1.229,0.577,2.605,1.041,4.137,1.392c1.529,0.352,3.071,0.703,4.626,1.053c1.904,0.352,3.696,0.766,5.377,1.241
			c1.68,0.477,3.133,1.128,4.362,1.955c1.228,0.827,2.191,1.894,2.896,3.196c0.701,1.305,1.054,2.959,1.054,4.964
			c0,2.106-0.479,3.836-1.43,5.189c-0.953,1.354-2.155,2.444-3.609,3.271c-1.455,0.827-3.071,1.403-4.852,1.73
			c-1.78,0.325-3.522,0.488-5.228,0.488c-2.207,0-4.249-0.289-6.129-0.864c-1.882-0.576-3.523-1.454-4.928-2.633
			c-1.403-1.178-2.508-2.619-3.309-4.324c-0.803-1.704-1.229-3.686-1.279-5.941H795.748z"/>
		<path fill="#FFFFFF" d="M851.476,286.008h2.857v8.273h0.15c0.501-1.454,1.216-2.745,2.144-3.874
			c0.928-1.128,2.005-2.093,3.234-2.896c1.228-0.801,2.567-1.402,4.022-1.805c1.454-0.4,2.935-0.602,4.438-0.602
			c2.256,0,4.174,0.276,5.753,0.827c1.58,0.553,2.87,1.278,3.874,2.181c1.002,0.903,1.792,1.918,2.368,3.046
			c0.575,1.129,0.989,2.27,1.24,3.423c0.25,1.153,0.4,2.269,0.451,3.347c0.05,1.078,0.075,2.02,0.075,2.82v23.916h-2.857v-24.442
			c0-0.952-0.074-2.155-0.226-3.61c-0.15-1.454-0.59-2.845-1.315-4.174c-0.729-1.328-1.831-2.469-3.311-3.422
			c-1.479-0.952-3.521-1.43-6.129-1.43c-2.207,0-4.162,0.402-5.866,1.204c-1.705,0.802-3.159,1.917-4.362,3.347
			c-1.202,1.429-2.118,3.134-2.744,5.114c-0.629,1.98-0.94,4.149-0.94,6.505v20.908h-2.857V286.008z"/>
		<path fill="#FFFFFF" d="M891.562,305.713v0.451c0,2.256,0.301,4.412,0.904,6.468c0.604,2.057,1.494,3.861,2.678,5.415
			c1.181,1.555,2.663,2.782,4.448,3.685c1.783,0.903,3.857,1.354,6.222,1.354c3.87,0,6.938-1.016,9.199-3.046
			c2.263-2.031,3.82-4.852,4.677-8.461h2.857c-0.854,4.512-2.696,7.972-5.528,10.379c-2.832,2.406-6.58,3.609-11.243,3.609
			c-2.857,0-5.354-0.515-7.482-1.542c-2.132-1.026-3.911-2.431-5.34-4.211c-1.43-1.779-2.495-3.886-3.196-6.318
			c-0.703-2.431-1.054-5.05-1.054-7.858c0-2.708,0.363-5.303,1.091-7.784c0.727-2.482,1.816-4.663,3.271-6.543
			c1.453-1.881,3.271-3.385,5.452-4.513c2.182-1.129,4.75-1.692,7.709-1.692c2.707,0,5.102,0.502,7.183,1.504
			c2.08,1.004,3.823,2.369,5.228,4.099c1.403,1.73,2.47,3.736,3.196,6.017c0.727,2.282,1.091,4.727,1.091,7.333
			c0,0.252-0.014,0.54-0.038,0.865c-0.024,0.326-0.037,0.59-0.037,0.79L891.562,305.713L891.562,305.713z M919.991,303.231
			c-0.102-2.105-0.452-4.099-1.057-5.979c-0.604-1.881-1.494-3.535-2.677-4.964c-1.182-1.43-2.614-2.569-4.299-3.422
			c-1.685-0.853-3.607-1.279-5.769-1.279c-2.312,0-4.35,0.439-6.108,1.316c-1.76,0.878-3.243,2.03-4.448,3.46
			c-1.207,1.429-2.137,3.096-2.79,5.001c-0.652,1.906-1.057,3.861-1.207,5.866L919.991,303.231L919.991,303.231z"/>
		<path fill="#FFFFFF" d="M927.737,305.337c0-2.757,0.389-5.352,1.166-7.784c0.776-2.432,1.918-4.575,3.422-6.431
			c1.505-1.854,3.357-3.321,5.564-4.399c2.206-1.078,4.738-1.617,7.598-1.617c2.856,0,5.389,0.539,7.596,1.617
			c2.206,1.078,4.062,2.545,5.565,4.399c1.504,1.855,2.643,3.999,3.422,6.431c0.774,2.433,1.166,5.027,1.166,7.784
			c0,2.758-0.392,5.365-1.166,7.821c-0.779,2.457-1.918,4.601-3.422,6.431s-3.359,3.284-5.565,4.361
			c-2.207,1.078-4.738,1.617-7.596,1.617c-2.858,0-5.392-0.539-7.598-1.617c-2.207-1.077-4.061-2.531-5.564-4.361
			s-2.646-3.974-3.422-6.431C928.125,310.703,927.737,308.095,927.737,305.337z M930.595,305.337c0,2.307,0.325,4.525,0.979,6.655
			c0.65,2.132,1.604,4.023,2.857,5.679c1.252,1.654,2.808,2.971,4.662,3.948c1.854,0.978,3.986,1.467,6.395,1.467
			c2.405,0,4.536-0.489,6.393-1.467c1.854-0.978,3.409-2.294,4.663-3.948c1.252-1.655,2.205-3.547,2.857-5.679
			c0.65-2.13,0.978-4.349,0.978-6.655c0-2.306-0.326-4.524-0.978-6.656c-0.652-2.131-1.605-4.023-2.857-5.679
			c-1.254-1.654-2.809-2.971-4.663-3.948c-1.854-0.978-3.986-1.467-6.393-1.467c-2.407,0-4.539,0.489-6.395,1.467
			c-1.854,0.978-3.41,2.294-4.662,3.948c-1.254,1.655-2.207,3.548-2.857,5.679C930.92,300.813,930.595,303.032,930.595,305.337z"/>
		<path fill="#FFFFFF" d="M984.668,324.666h-3.533l-15.567-38.657h3.309l13.988,35.348h0.149l13.086-35.348h3.16L984.668,324.666z"
			/>
		<path fill="#FFFFFF" d="M1033.93,324.666h-2.856v-8.272h-0.15c-0.502,1.454-1.217,2.745-2.145,3.873
			c-0.929,1.128-2.007,2.094-3.234,2.896c-1.229,0.803-2.568,1.404-4.022,1.805c-1.455,0.401-2.935,0.602-4.438,0.602
			c-2.256,0-4.174-0.276-5.752-0.827c-1.58-0.551-2.871-1.278-3.875-2.181c-1.002-0.903-1.793-1.918-2.367-3.046
			c-0.578-1.129-0.992-2.269-1.242-3.423c-0.252-1.152-0.401-2.268-0.451-3.347c-0.051-1.077-0.073-2.018-0.073-2.82V286.01h2.856
			v24.442c0,1.004,0.074,2.219,0.226,3.648c0.149,1.429,0.59,2.809,1.315,4.136c0.728,1.329,1.816,2.471,3.271,3.422
			c1.455,0.953,3.51,1.43,6.168,1.43c2.153,0,4.098-0.401,5.828-1.203c1.729-0.802,3.196-1.918,4.399-3.348
			c1.203-1.429,2.117-3.133,2.744-5.114c0.627-1.979,0.941-4.147,0.941-6.505V286.01h2.856L1033.93,324.666L1033.93,324.666z"/>
		<path fill="#FFFFFF" d="M1085.523,311.805c0.1,1.805,0.5,3.397,1.202,4.775c0.701,1.38,1.617,2.558,2.744,3.535
			c1.129,0.978,2.445,1.718,3.949,2.219s3.133,0.752,4.889,0.752c1.252,0,2.595-0.113,4.023-0.339s2.758-0.639,3.985-1.241
			c1.229-0.602,2.242-1.44,3.046-2.52c0.803-1.077,1.202-2.443,1.202-4.099c0-2.155-0.649-3.785-1.954-4.889
			c-1.306-1.102-2.945-1.955-4.927-2.557c-1.98-0.602-4.11-1.091-6.393-1.467s-4.412-0.94-6.393-1.692
			c-1.981-0.752-3.623-1.816-4.927-3.196c-1.305-1.378-1.954-3.396-1.954-6.054c0-1.905,0.424-3.497,1.276-4.776
			c0.853-1.278,1.943-2.294,3.271-3.046c1.327-0.752,2.819-1.29,4.475-1.617c1.656-0.325,3.312-0.488,4.965-0.488
			c2.004,0,3.885,0.226,5.642,0.677c1.754,0.451,3.271,1.179,4.551,2.181c1.276,1.004,2.279,2.282,3.008,3.836
			c0.727,1.555,1.09,3.435,1.09,5.641h-2.857c0-1.754-0.288-3.259-0.864-4.513c-0.576-1.252-1.379-2.268-2.406-3.046
			c-1.029-0.776-2.244-1.354-3.647-1.729c-1.404-0.375-2.908-0.564-4.513-0.564c-1.305,0-2.621,0.126-3.948,0.376
			c-1.328,0.252-2.521,0.678-3.572,1.279c-1.053,0.601-1.918,1.379-2.594,2.331c-0.679,0.953-1.017,2.105-1.017,3.46
			c0,1.555,0.375,2.809,1.127,3.76c0.754,0.953,1.742,1.719,2.971,2.294c1.229,0.577,2.607,1.041,4.138,1.392
			c1.528,0.352,3.071,0.703,4.627,1.053c1.903,0.352,3.694,0.766,5.377,1.241c1.68,0.477,3.133,1.128,4.36,1.955
			c1.229,0.827,2.193,1.894,2.896,3.196c0.701,1.305,1.053,2.959,1.053,4.964c0,2.106-0.479,3.836-1.43,5.189
			c-0.953,1.354-2.156,2.444-3.609,3.271c-1.455,0.827-3.072,1.403-4.853,1.73c-1.778,0.325-3.522,0.488-5.227,0.488
			c-2.207,0-4.25-0.289-6.129-0.864c-1.881-0.576-3.523-1.454-4.928-2.633c-1.404-1.178-2.509-2.619-3.31-4.324
			c-0.803-1.704-1.229-3.686-1.278-5.941H1085.523z"/>
		<path fill="#FFFFFF" d="M1145.988,316.995h-0.15c-0.451,1.153-1.104,2.244-1.955,3.271c-0.854,1.028-1.893,1.943-3.121,2.745
			c-1.229,0.803-2.621,1.429-4.174,1.88c-1.555,0.451-3.26,0.677-5.113,0.677c-4.112,0-7.297-0.891-9.553-2.67
			s-3.385-4.524-3.385-8.235c0-2.256,0.453-4.099,1.355-5.527c0.901-1.43,2.041-2.558,3.422-3.385
			c1.377-0.827,2.905-1.416,4.588-1.768c1.678-0.35,3.295-0.602,4.85-0.752l4.438-0.376c2.055-0.15,3.672-0.388,4.852-0.715
			c1.178-0.325,2.068-0.776,2.67-1.354c0.603-0.575,0.978-1.316,1.127-2.219c0.15-0.903,0.228-2.03,0.228-3.384
			c0-1.053-0.201-2.031-0.603-2.934c-0.401-0.902-1.028-1.704-1.881-2.406c-0.854-0.702-1.955-1.253-3.309-1.655
			c-1.354-0.4-3.009-0.602-4.965-0.602c-3.459,0-6.255,0.854-8.386,2.558c-2.131,1.705-3.297,4.287-3.498,7.746h-2.856
			c0.198-4.261,1.565-7.457,4.1-9.589c2.531-2.131,6.129-3.196,10.791-3.196c4.664,0,8.062,0.915,10.191,2.745
			c2.131,1.831,3.196,4.225,3.196,7.183v22.487c0,0.552,0.013,1.104,0.037,1.654c0.025,0.553,0.113,1.053,0.265,1.504
			c0.15,0.451,0.399,0.815,0.752,1.091c0.35,0.276,0.852,0.414,1.504,0.414c0.5,0,1.203-0.075,2.104-0.226v2.406
			c-0.752,0.201-1.528,0.301-2.332,0.301c-1.151,0-2.067-0.15-2.744-0.451c-0.678-0.301-1.19-0.701-1.541-1.203
			c-0.352-0.501-0.592-1.091-0.715-1.768c-0.127-0.677-0.188-1.416-0.188-2.219L1145.988,316.995L1145.988,316.995z
			 M1145.988,302.705c-0.701,0.854-1.767,1.429-3.195,1.729c-1.429,0.3-3.021,0.526-4.775,0.677l-4.813,0.452
			c-1.404,0.15-2.809,0.364-4.211,0.639c-1.404,0.276-2.67,0.74-3.799,1.392c-1.127,0.652-2.043,1.542-2.744,2.67
			c-0.703,1.128-1.053,2.595-1.053,4.399c0,2.858,0.901,4.977,2.707,6.355c1.805,1.38,4.286,2.068,7.444,2.068
			c3.26,0,5.84-0.589,7.746-1.768c1.906-1.178,3.359-2.531,4.363-4.062c1.002-1.528,1.641-3.008,1.918-4.438
			c0.272-1.429,0.412-2.394,0.412-2.896V302.705z"/>
		<path fill="#FFFFFF" d="M1172.688,324.666h-3.532l-15.568-38.657h3.31l13.987,35.348h0.15l13.086-35.348h3.16L1172.688,324.666z"
			/>
		<path fill="#FFFFFF" d="M1192.393,305.713v0.451c0,2.256,0.302,4.412,0.904,6.468c0.604,2.057,1.494,3.861,2.678,5.415
			c1.181,1.555,2.664,2.782,4.449,3.685c1.783,0.903,3.857,1.354,6.221,1.354c3.871,0,6.938-1.016,9.199-3.046
			c2.262-2.031,3.82-4.852,4.676-8.461h2.859c-0.854,4.512-2.697,7.972-5.529,10.379c-2.832,2.406-6.58,3.609-11.244,3.609
			c-2.856,0-5.352-0.515-7.481-1.542c-2.131-1.026-3.91-2.431-5.34-4.211c-1.431-1.779-2.494-3.886-3.195-6.318
			c-0.703-2.431-1.055-5.05-1.055-7.858c0-2.708,0.362-5.303,1.092-7.784c0.727-2.482,1.815-4.663,3.271-6.543
			c1.453-1.881,3.271-3.385,5.453-4.513c2.181-1.129,4.75-1.692,7.709-1.692c2.707,0,5.101,0.502,7.183,1.504
			c2.079,1.004,3.821,2.369,5.227,4.099c1.404,1.73,2.469,3.736,3.197,6.017c0.727,2.282,1.09,4.727,1.09,7.333
			c0,0.252-0.014,0.54-0.037,0.865c-0.024,0.326-0.037,0.59-0.037,0.79L1192.393,305.713L1192.393,305.713z M1220.82,303.231
			c-0.101-2.105-0.451-4.099-1.056-5.979c-0.604-1.881-1.496-3.535-2.678-4.964c-1.182-1.43-2.613-2.569-4.299-3.422
			c-1.685-0.853-3.607-1.279-5.769-1.279c-2.312,0-4.35,0.439-6.108,1.316c-1.76,0.878-3.242,2.03-4.447,3.46
			c-1.207,1.429-2.137,3.096-2.791,5.001c-0.651,1.906-1.057,3.861-1.207,5.866L1220.82,303.231L1220.82,303.231z"/>
		<path fill="#FFFFFF" d="M1233.23,270.966v23.315h0.149c0.5-1.454,1.215-2.745,2.144-3.874c0.928-1.128,2.006-2.093,3.233-2.896
			c1.229-0.801,2.568-1.402,4.023-1.805c1.454-0.4,2.934-0.602,4.438-0.602c2.256,0,4.174,0.276,5.754,0.827
			c1.58,0.553,2.869,1.278,3.873,2.181c1.002,0.903,1.793,1.918,2.369,3.046c0.576,1.129,0.99,2.27,1.24,3.423
			c0.25,1.153,0.399,2.269,0.451,3.347c0.051,1.078,0.076,2.02,0.076,2.82v23.916h-2.857v-24.442c0-0.952-0.076-2.155-0.228-3.61
			c-0.149-1.454-0.59-2.845-1.315-4.174c-0.728-1.328-1.83-2.469-3.31-3.422c-1.479-0.952-3.522-1.43-6.129-1.43
			c-2.207,0-4.162,0.402-5.866,1.204c-1.705,0.802-3.158,1.917-4.361,3.347c-1.203,1.429-2.119,3.134-2.746,5.114
			s-0.938,4.149-0.938,6.505v20.908h-2.857v-53.699L1233.23,270.966L1233.23,270.966z"/>
		<path fill="#FFFFFF" d="M1267.6,305.337c0-2.757,0.39-5.352,1.166-7.784c0.777-2.432,1.918-4.575,3.422-6.431
			c1.505-1.854,3.357-3.321,5.564-4.399c2.207-1.078,4.738-1.617,7.598-1.617c2.857,0,5.39,0.539,7.597,1.617
			c2.204,1.078,4.061,2.545,5.563,4.399c1.504,1.855,2.646,3.999,3.422,6.431c0.777,2.433,1.166,5.027,1.166,7.784
			c0,2.758-0.389,5.365-1.166,7.821c-0.776,2.457-1.918,4.601-3.422,6.431s-3.359,3.284-5.563,4.361
			c-2.207,1.078-4.738,1.617-7.597,1.617s-5.391-0.539-7.598-1.617c-2.207-1.077-4.061-2.531-5.564-4.361
			c-1.502-1.83-2.645-3.974-3.422-6.431C1267.988,310.703,1267.6,308.095,1267.6,305.337z M1270.457,305.337
			c0,2.307,0.326,4.525,0.979,6.655c0.65,2.132,1.604,4.023,2.857,5.679c1.252,1.654,2.807,2.971,4.662,3.948
			s3.986,1.467,6.395,1.467c2.406,0,4.537-0.489,6.394-1.467c1.854-0.978,3.408-2.294,4.662-3.948
			c1.252-1.655,2.205-3.547,2.856-5.679c0.652-2.13,0.979-4.349,0.979-6.655c0-2.306-0.326-4.524-0.979-6.656
			c-0.651-2.131-1.604-4.023-2.856-5.679c-1.254-1.654-2.81-2.971-4.662-3.948c-1.855-0.978-3.986-1.467-6.394-1.467
			s-4.538,0.489-6.395,1.467s-3.41,2.294-4.662,3.948c-1.254,1.655-2.207,3.548-2.857,5.679
			C1270.783,300.813,1270.457,303.032,1270.457,305.337z"/>
		<path fill="#FFFFFF" d="M1309.867,286.008h2.856v7.896h0.15c0.301-1.203,0.826-2.343,1.58-3.422
			c0.752-1.077,1.666-2.018,2.744-2.82c1.078-0.801,2.28-1.429,3.608-1.88c1.328-0.451,2.722-0.677,4.174-0.677
			c1.855,0,3.462,0.238,4.814,0.715s2.506,1.103,3.459,1.88c0.953,0.777,1.705,1.654,2.256,2.632
			c0.553,0.979,0.928,1.969,1.129,2.971h0.15c1.152-2.707,2.695-4.75,4.625-6.129s4.475-2.068,7.635-2.068
			c1.754,0,3.371,0.263,4.85,0.79c1.479,0.526,2.759,1.329,3.837,2.406c1.077,1.079,1.918,2.444,2.52,4.099
			c0.603,1.655,0.902,3.61,0.902,5.866v26.398h-2.857v-26.474c0-2.456-0.377-4.387-1.129-5.791c-0.752-1.403-1.643-2.469-2.67-3.196
			s-2.058-1.178-3.082-1.354c-1.029-0.175-1.818-0.264-2.369-0.264c-1.756,0-3.373,0.301-4.853,0.903
			c-1.479,0.602-2.758,1.504-3.836,2.707c-1.078,1.203-1.918,2.695-2.52,4.475c-0.603,1.78-0.902,3.824-0.902,6.13v22.863h-2.856
			V298.19c0-2.406-0.365-4.324-1.093-5.753c-0.727-1.43-1.578-2.494-2.557-3.196c-0.977-0.702-1.98-1.153-3.008-1.354
			c-1.027-0.199-1.842-0.301-2.445-0.301c-1.354,0-2.758,0.276-4.211,0.827c-1.455,0.553-2.783,1.404-3.986,2.558
			c-1.203,1.154-2.18,2.632-2.934,4.438c-0.752,1.805-1.127,3.937-1.127,6.393v22.863h-2.857v-38.657H1309.867z"/>
		<path fill="#FFFFFF" d="M1370.709,305.713v0.451c0,2.256,0.301,4.412,0.906,6.468c0.602,2.057,1.494,3.861,2.676,5.415
			c1.182,1.555,2.664,2.782,4.449,3.685c1.783,0.903,3.856,1.354,6.221,1.354c3.871,0,6.939-1.016,9.201-3.046
			c2.262-2.031,3.82-4.852,4.676-8.461h2.857c-0.854,4.512-2.695,7.972-5.527,10.379c-2.834,2.406-6.582,3.609-11.244,3.609
			c-2.856,0-5.354-0.515-7.481-1.542c-2.134-1.026-3.912-2.431-5.341-4.211c-1.43-1.779-2.495-3.886-3.196-6.318
			c-0.703-2.431-1.054-5.05-1.054-7.858c0-2.708,0.363-5.303,1.091-7.784c0.727-2.482,1.815-4.663,3.271-6.543
			c1.455-1.881,3.271-3.385,5.453-4.513c2.182-1.129,4.75-1.692,7.709-1.692c2.707,0,5.102,0.502,7.182,1.504
			c2.08,1.004,3.824,2.369,5.229,4.099c1.401,1.73,2.469,3.736,3.194,6.017c0.728,2.282,1.093,4.727,1.093,7.333
			c0,0.252-0.015,0.54-0.039,0.865c-0.025,0.326-0.037,0.59-0.037,0.79L1370.709,305.713L1370.709,305.713z M1399.139,303.231
			c-0.102-2.105-0.453-4.099-1.057-5.979c-0.604-1.881-1.494-3.535-2.676-4.964c-1.183-1.43-2.615-2.569-4.299-3.422
			c-1.687-0.853-3.607-1.279-5.771-1.279c-2.312,0-4.348,0.439-6.106,1.316c-1.761,0.878-3.244,2.03-4.449,3.46
			c-1.207,1.429-2.137,3.096-2.789,5.001c-0.654,1.906-1.057,3.861-1.207,5.866L1399.139,303.231L1399.139,303.231z"/>
		<path fill="#FFFFFF" d="M1422.227,311.053c0-2.005,0.175-3.772,0.525-5.303c0.353-1.528,0.828-2.896,1.43-4.099
			c0.603-1.203,1.304-2.294,2.105-3.271s1.654-1.893,2.557-2.745c0.904-0.853,1.808-1.742,2.709-2.67
			c0.902-0.928,1.703-1.893,2.406-2.896c0.701-1.003,1.266-2.08,1.691-3.234c0.426-1.152,0.641-2.381,0.641-3.685
			c0-1.854-0.34-3.447-1.016-4.776c-0.678-1.328-1.58-2.432-2.707-3.309c-1.129-0.877-2.42-1.517-3.875-1.918
			c-1.453-0.401-2.959-0.602-4.512-0.602c-2.257,0-4.238,0.376-5.941,1.128c-1.705,0.752-3.121,1.805-4.25,3.158
			c-1.127,1.354-1.98,2.946-2.557,4.776c-0.576,1.831-0.865,3.823-0.865,5.979h-2.857c0-2.656,0.363-5.088,1.09-7.295
			c0.728-2.206,1.793-4.099,3.197-5.678c1.402-1.58,3.146-2.795,5.227-3.648c2.08-0.852,4.476-1.278,7.185-1.278
			c2.004,0,3.896,0.276,5.678,0.827c1.779,0.553,3.346,1.38,4.699,2.482c1.354,1.104,2.42,2.508,3.197,4.211
			c0.776,1.706,1.166,3.686,1.166,5.942c0,1.604-0.188,3.021-0.564,4.249c-0.375,1.229-0.877,2.344-1.504,3.347
			c-0.627,1.004-1.342,1.918-2.146,2.745c-0.801,0.827-1.629,1.643-2.479,2.444c-0.854,0.752-1.719,1.542-2.596,2.369
			c-0.877,0.827-1.666,1.817-2.369,2.971c-0.701,1.153-1.277,2.52-1.729,4.099c-0.451,1.579-0.678,3.473-0.678,5.679h-2.857V311.053
			z M1421.85,316.919h3.836v7.746h-3.836V316.919z"/>
	</g>
	<g>
		<path fill="#FFFFFF" d="M1050.601,302.332c-4.687,0-8.5-3.813-8.5-8.5s3.813-8.5,8.5-8.5c4.688,0,8.5,3.813,8.5,8.5
			S1055.287,302.332,1050.601,302.332z M1050.601,286.332c-4.136,0-7.5,3.364-7.5,7.5s3.364,7.5,7.5,7.5c4.137,0,7.5-3.364,7.5-7.5
			S1054.736,286.332,1050.601,286.332z"/>
	</g>
	<g>
		<path fill="#FFFFFF" d="M1051.234,290.264c0.815,0,1.453,0.2,1.914,0.6c0.459,0.4,0.689,0.948,0.689,1.644
			c0,0.521-0.118,0.977-0.354,1.368c-0.235,0.392-0.614,0.66-1.135,0.804v0.024c0.248,0.048,0.45,0.128,0.606,0.24
			c0.155,0.112,0.278,0.246,0.371,0.402c0.093,0.156,0.159,0.33,0.204,0.522c0.043,0.192,0.077,0.392,0.103,0.6
			c0.016,0.208,0.027,0.42,0.036,0.636c0.008,0.216,0.027,0.428,0.06,0.636c0.033,0.208,0.078,0.406,0.139,0.594
			s0.149,0.354,0.271,0.498h-1.271c-0.08-0.088-0.135-0.208-0.161-0.36c-0.028-0.152-0.047-0.322-0.056-0.51
			c-0.008-0.188-0.016-0.39-0.022-0.606c-0.009-0.216-0.032-0.428-0.072-0.636c-0.032-0.208-0.072-0.406-0.12-0.594
			s-0.124-0.352-0.228-0.492c-0.104-0.14-0.24-0.252-0.408-0.336s-0.393-0.126-0.672-0.126h-2.784v3.66h-1.141v-8.568H1051.234z
			 M1051.475,294.151c0.24-0.04,0.45-0.118,0.631-0.234c0.18-0.116,0.323-0.272,0.432-0.468c0.107-0.196,0.162-0.45,0.162-0.762
			c0-0.432-0.12-0.784-0.359-1.056c-0.24-0.271-0.628-0.408-1.164-0.408h-2.832v2.988h2.376
			C1050.982,294.211,1051.234,294.192,1051.475,294.151z"/>
	</g>
</g>
<g>
	<text transform="matrix(1 0 0 1 505.4653 -439.334)" fill="#FFFFFF" font-family="'HelveticaNeue-Thin'" font-size="75.2085">How works neovu  savehome?</text>
	<circle fill="none" stroke="#FFFFFF" stroke-miterlimit="10" cx="1079.575" cy="-470.168" r="8"/>
	<text transform="matrix(1 0 0 1 1075.2412 -465.168)" fill="#FFFFFF" font-family="'HelveticaNeue'" font-size="12">R</text>
</g>
<g id="logotype_1_">
	<g>
		<path fill="none" stroke="#FFFFFF" stroke-width="1.6062" stroke-miterlimit="10" d="M885.688,698.269
			c0,23.636-19.16,42.797-42.799,42.797s-42.8-19.161-42.8-42.797c0-23.64,19.162-42.8,42.8-42.8
			C866.527,655.469,885.688,674.629,885.688,698.269z"/>
		<g>
			<g>
				<defs>
					<path id="SVGID_3_" d="M885.688,698.269c0,23.636-19.16,42.797-42.799,42.797s-42.8-19.161-42.8-42.797
						c0-23.64,19.162-42.8,42.8-42.8C866.527,655.469,885.688,674.629,885.688,698.269z"/>
				</defs>
				<clipPath id="SVGID_4_">
					<use xlink:href="#SVGID_3_"  overflow="visible"/>
				</clipPath>
				<g clip-path="url(#SVGID_4_)">
					<path fill="#FFFFFF" d="M862.161,686.972c0.567-3.645,0.811-11.418-1.376-17.978c-1.366-4.1-3.207-4.34-4.396-3.943
						c-0.657,0.219-1.202,0.689-1.562,1.282c-0.255,0.419-0.574,0.927-0.628,1.624c-0.044,0.57-0.135,5.329-0.621,6.301
						c-0.485,0.972-2.267,7.369-2.267,8.746h-0.018c-0.002-0.018-0.002-0.035-0.011-0.053c-1.087-2.211-4.021-2.788-5.114-2.929
						c-0.15-0.02-0.201-0.21-0.082-0.303l2.071-1.604c0.122-0.096,0.063-0.294-0.092-0.306c-4.592-0.333-7.656,1.354-8.534,1.913
						c-0.113,0.072-0.26-0.011-0.26-0.145v-2.146c0-0.121-0.122-0.2-0.236-0.157c-2.224,0.832-4.029,4.679-4.468,5.678
						c-0.007,0.017-0.006,0.032-0.008,0.049h-0.094c0-1.376-1.781-7.773-2.268-8.745c-0.485-0.972-0.576-5.73-0.62-6.302
						c-0.054-0.696-0.373-1.204-0.628-1.624c-0.36-0.592-0.904-1.062-1.563-1.282c-1.188-0.396-3.029-0.155-4.396,3.944
						c-2.187,6.559-1.943,14.333-1.376,17.978c0.566,3.643,3.157,8.664,4.049,11.579c0.806,2.641,0.948,9.265,0.968,10.492
						c-0.963,0.811-5.018,4.551-5.018,10.118c0,6.315,0,21.904,0,21.904h19.274h19.272c0,0,0-15.589,0-21.904
						c0-5.567-4.055-9.308-5.018-10.118c0.02-1.228,0.163-7.852,0.969-10.492C859.004,695.636,861.595,690.615,862.161,686.972z"/>
					<path fill="#51AC27" d="M829.275,692.61c0.04-1.477,0.526-4.003,2.961-6.485c0.098-0.1,0.158-0.229,0.166-0.368
						c0.051-0.927,0.159-4.664-1.202-7.666c-1.423-3.14-1.415-5.633-1.459-6.353c-0.079-1.301,0.489-3.52-0.47-4.066
						c-1.04-0.595-2.822,2.104-3.362,4.696s-1.08,9.502,0,13.982c0.69,2.863,1.909,5.154,2.699,6.435
						C828.798,693.089,829.266,692.967,829.275,692.61z"/>
					<path fill="#51AC27" d="M856.502,692.61c-0.04-1.477-0.526-4.003-2.961-6.485c-0.098-0.1-0.158-0.229-0.166-0.368
						c-0.051-0.927-0.159-4.664,1.201-7.666c1.424-3.14,1.416-5.633,1.46-6.353c0.079-1.301-0.49-3.52,0.469-4.066
						c1.041-0.595,2.822,2.104,3.362,4.696c0.541,2.592,1.08,9.502,0,13.982c-0.689,2.863-1.909,5.154-2.699,6.435
						C856.979,693.089,856.511,692.967,856.502,692.61z"/>
					<path fill="#51AC27" d="M834.603,699.955c0,0-0.864,3.239-3.78,5.237c-2.915,1.997-1.08-3.618-1.08-3.618l-2.591,0.595
						C827.151,702.169,830.013,698.012,834.603,699.955z"/>
					<path fill="#51AC27" d="M851.338,699.955c0,0,0.863,3.239,3.778,5.237c2.916,1.997,1.08-3.618,1.08-3.618l2.592,0.595
						C858.787,702.169,855.926,698.012,851.338,699.955z"/>
					<g>
						<path fill="#51AC27" d="M846.937,703.841c-0.009-0.111-0.068-0.299-0.108-0.401c-0.168-0.423-0.689-1.528-1.761-1.886
							c-1.312-0.437-1.917,0-1.917,0s-0.269,0.211-0.471,0.202c-0.202,0.009-0.471-0.202-0.471-0.202s-0.605-0.437-1.917,0
							c-1.071,0.357-1.593,1.463-1.761,1.886c-0.04,0.103-0.099,0.29-0.108,0.401c-0.025,0.331-0.017,1.044,0.523,1.076
							c0.632,0.038,0.673-0.403,0.673-0.403s0.135-1.042,0.707-1.042c0.571,0,0.772,0.303,0.907,1.445
							c0.135,1.144,1.446,1.043,1.446,1.043s1.312,0.101,1.446-1.043c0.135-1.143,0.336-1.445,0.907-1.445
							c0.572,0,0.707,1.042,0.707,1.042s0.042,0.441,0.672,0.403C846.953,704.884,846.962,704.172,846.937,703.841z"/>
						<g>
							
								<path fill="none" stroke="#51AC27" stroke-width="0.9637" stroke-linecap="round" stroke-linejoin="round" stroke-miterlimit="10" d="
								M849.429,708.385c0,0-0.27,2.712-2.602,3.183c-2.331,0.471-4.147-1.995-4.147-1.995v-4.018"/>
							
								<path fill="none" stroke="#51AC27" stroke-width="0.9637" stroke-linecap="round" stroke-linejoin="round" stroke-miterlimit="10" d="
								M835.932,708.385c0,0,0.269,2.712,2.601,3.183s4.148-1.995,4.148-1.995v-4.018"/>
						</g>
						<path fill="#51AC27" d="M845.913,711.628c0,0-2.968,3.499-6.467,0c0,0,1.569,0.016,3.234-2.056
							C842.681,709.572,843.918,711.287,845.913,711.628z"/>
					</g>
				</g>
			</g>
		</g>
	</g>
</g>
</svg>
