<?xml version="1.0" encoding="utf-8"?>
<!-- Generator: Adobe Illustrator 16.0.0, SVG Export Plug-In . SVG Version: 6.00 Build 0)  -->
<!DOCTYPE svg PUBLIC "-//W3C//DTD SVG 1.1//EN" "http://www.w3.org/Graphics/SVG/1.1/DTD/svg11.dtd">
<svg version="1.1" id="Layer_1" xmlns="http://www.w3.org/2000/svg" xmlns:xlink="http://www.w3.org/1999/xlink" x="0px" y="0px"
	 width="1920px" height="1080px" viewBox="0 0 1920 1080" enable-background="new 0 0 1920 1080" xml:space="preserve">
<rect x="-0.001" fill="#51AC27" width="1920" height="1080"/>
<g>
	<g>
		<g>
			<path fill="#51AC27" d="M991.219,632.974c-1.377,0-2.498-1.12-2.498-2.498v-13.591c0-1.377,1.121-2.498,2.498-2.498h167.016
				c1.376,0,2.496,1.121,2.496,2.498v13.591c0,1.378-1.119,2.498-2.496,2.498H991.219z"/>
			<path fill="#FFFFFF" d="M1158.232,615.388c0.826,0,1.496,0.67,1.496,1.498v13.591c0,0.827-0.672,1.498-1.496,1.498H991.219
				c-0.826,0-1.498-0.67-1.498-1.498v-13.591c0-0.827,0.67-1.498,1.498-1.498H1158.232 M1158.232,613.388H991.219
				c-1.929,0-3.498,1.569-3.498,3.498v13.591c0,1.932,1.569,3.498,3.498,3.498h167.016c1.928,0,3.494-1.566,3.494-3.498v-13.591
				C1161.729,614.957,1160.16,613.388,1158.232,613.388L1158.232,613.388z"/>
		</g>
		<g>
			<g>
				<path fill="#51AC27" d="M990.92,919.517c-6.064,0-11.002-4.935-11.002-11.001V636.297c0-6.064,4.938-11.002,11.002-11.002
					h170.606c6.063,0,11.002,4.936,11.002,11.002v272.219c0,6.066-4.938,11.001-11.002,11.001H990.92L990.92,919.517z"/>
				<path fill="#FFFFFF" d="M1161.526,626.295c5.5,0,10.002,4.5,10.002,10v272.22c0,5.501-4.501,10.001-10.002,10.001H990.92
					c-5.5,0-10.002-4.5-10.002-10.001v-272.22c0-5.5,4.5-10,10.002-10H1161.526 M1161.526,624.295H990.92
					c-6.617,0-12.002,5.384-12.002,12v272.22c0,6.618,5.385,12.001,12.002,12.001h170.606c6.618,0,12.002-5.385,12.002-12.001
					v-272.22C1173.528,629.679,1168.145,624.295,1161.526,624.295L1161.526,624.295z"/>
			</g>
		</g>
		<g id="logotype">
			<g>
				<path fill="none" stroke="#FFFFFF" stroke-width="1.6062" stroke-miterlimit="10" d="M1119.023,834.214
					c0,23.636-19.16,42.797-42.8,42.797c-23.639,0-42.8-19.161-42.8-42.797c0-23.64,19.162-42.8,42.8-42.8
					C1099.863,791.414,1119.023,810.574,1119.023,834.214z"/>
				<g>
					<g>
						<g>
							<defs>
								<path id="SVGID_1_" d="M1119.023,834.214c0,23.636-19.16,42.797-42.8,42.797c-23.639,0-42.8-19.161-42.8-42.797
									c0-23.64,19.162-42.8,42.8-42.8C1099.863,791.414,1119.023,810.574,1119.023,834.214z"/>
							</defs>
							<clipPath id="SVGID_2_">
								<use xlink:href="#SVGID_1_"  overflow="visible"/>
							</clipPath>
							<g clip-path="url(#SVGID_2_)">
								<path fill="#FFFFFF" d="M1095.497,822.917c0.567-3.646,0.811-11.418-1.376-17.978c-1.366-4.101-3.207-4.341-4.396-3.943
									c-0.656,0.219-1.201,0.688-1.562,1.282c-0.255,0.419-0.574,0.927-0.628,1.624c-0.044,0.569-0.135,5.328-0.621,6.301
									c-0.485,0.972-2.268,7.369-2.268,8.746h-0.018c-0.002-0.019-0.002-0.035-0.011-0.053c-1.087-2.212-4.021-2.788-5.114-2.93
									c-0.15-0.02-0.201-0.21-0.082-0.303l2.071-1.604c0.122-0.096,0.062-0.294-0.092-0.306c-4.593-0.333-7.656,1.354-8.534,1.913
									c-0.113,0.072-0.26-0.011-0.26-0.146v-2.146c0-0.121-0.122-0.2-0.236-0.157c-2.225,0.832-4.029,4.68-4.468,5.678
									c-0.007,0.018-0.007,0.032-0.009,0.05h-0.094c0-1.376-1.781-7.773-2.268-8.745c-0.485-0.973-0.576-5.73-0.62-6.302
									c-0.054-0.696-0.373-1.204-0.628-1.624c-0.36-0.593-0.904-1.062-1.563-1.282c-1.188-0.396-3.028-0.155-4.396,3.943
									c-2.188,6.56-1.943,14.333-1.376,17.979c0.565,3.643,3.157,8.664,4.049,11.579c0.806,2.641,0.948,9.265,0.968,10.492
									c-0.963,0.811-5.018,4.551-5.018,10.117c0,6.315,0,21.904,0,21.904h19.273h19.272c0,0,0-15.589,0-21.904
									c0-5.566-4.056-9.308-5.019-10.117c0.021-1.229,0.163-7.853,0.97-10.492C1092.34,831.581,1094.931,826.561,1095.497,822.917
									z"/>
								<path fill="#51AC27" d="M1062.611,828.556c0.04-1.477,0.525-4.003,2.961-6.484c0.098-0.101,0.158-0.229,0.166-0.368
									c0.051-0.927,0.159-4.664-1.202-7.666c-1.423-3.14-1.415-5.633-1.459-6.354c-0.079-1.301,0.489-3.52-0.47-4.065
									c-1.04-0.595-2.822,2.104-3.362,4.696c-0.54,2.592-1.08,9.502,0,13.981c0.689,2.863,1.909,5.154,2.699,6.436
									C1062.134,829.034,1062.602,828.912,1062.611,828.556z"/>
								<path fill="#51AC27" d="M1089.838,828.556c-0.04-1.477-0.525-4.003-2.961-6.484c-0.098-0.101-0.158-0.229-0.166-0.368
									c-0.051-0.927-0.159-4.664,1.201-7.666c1.424-3.14,1.416-5.633,1.46-6.354c0.079-1.301-0.49-3.52,0.469-4.065
									c1.041-0.595,2.822,2.104,3.362,4.696c0.541,2.592,1.08,9.502,0,13.981c-0.689,2.863-1.909,5.154-2.699,6.436
									C1090.314,829.034,1089.847,828.912,1089.838,828.556z"/>
								<path fill="#51AC27" d="M1067.938,835.9c0,0-0.863,3.238-3.779,5.236c-2.915,1.997-1.08-3.617-1.08-3.617l-2.591,0.595
									C1060.487,838.114,1063.349,833.957,1067.938,835.9z"/>
								<path fill="#51AC27" d="M1084.674,835.9c0,0,0.863,3.238,3.778,5.236c2.916,1.997,1.08-3.617,1.08-3.617l2.592,0.595
									C1092.123,838.114,1089.262,833.957,1084.674,835.9z"/>
								<g>
									<path fill="#51AC27" d="M1080.271,839.786c-0.009-0.111-0.067-0.299-0.107-0.401c-0.168-0.423-0.689-1.527-1.761-1.886
										c-1.312-0.437-1.917,0-1.917,0s-0.27,0.211-0.472,0.202c-0.202,0.009-0.471-0.202-0.471-0.202s-0.604-0.437-1.917,0
										c-1.071,0.357-1.593,1.463-1.761,1.886c-0.04,0.104-0.099,0.29-0.108,0.401c-0.024,0.331-0.017,1.044,0.523,1.076
										c0.632,0.038,0.673-0.403,0.673-0.403s0.135-1.042,0.707-1.042c0.571,0,0.771,0.303,0.907,1.445
										c0.135,1.144,1.445,1.043,1.445,1.043s1.312,0.101,1.446-1.043c0.135-1.144,0.336-1.445,0.907-1.445
										c0.572,0,0.707,1.042,0.707,1.042s0.042,0.441,0.672,0.403C1080.289,840.829,1080.298,840.117,1080.271,839.786z"/>
									<g>
										
											<path fill="none" stroke="#51AC27" stroke-width="0.9637" stroke-linecap="round" stroke-linejoin="round" stroke-miterlimit="10" d="
											M1082.765,844.33c0,0-0.27,2.712-2.602,3.183c-2.331,0.472-4.147-1.995-4.147-1.995V841.5"/>
										
											<path fill="none" stroke="#51AC27" stroke-width="0.9637" stroke-linecap="round" stroke-linejoin="round" stroke-miterlimit="10" d="
											M1069.268,844.33c0,0,0.27,2.712,2.602,3.183c2.332,0.472,4.147-1.995,4.147-1.995V841.5"/>
									</g>
									<path fill="#51AC27" d="M1079.249,847.573c0,0-2.968,3.499-6.467,0c0,0,1.568,0.016,3.233-2.057
										C1076.017,845.518,1077.254,847.232,1079.249,847.573z"/>
								</g>
							</g>
						</g>
					</g>
				</g>
			</g>
		</g>
	</g>
	<g>
		<g>
			<rect x="753.792" y="573.658" fill="#51AC27" width="174.65" height="314.885"/>
			<path fill="#FFFFFF" d="M927.441,574.658v312.885h-172.65V574.658H927.441 M929.441,572.658h-2h-172.65h-2v2v312.885v2h2h172.65
				h2v-2V574.658V572.658L929.441,572.658z"/>
		</g>
		<g>
			<path fill="#51AC27" d="M775.676,920.402c-15.553,0-28.207-12.654-28.207-28.209V573.596c0-15.553,12.654-28.207,28.207-28.207
				h134.368c15.529,0,28.205,12.652,28.257,28.204v318.603c0,15.555-12.652,28.209-28.207,28.209L775.676,920.402L775.676,920.402z
				 M924.215,875.568V581.879H759.938v293.689H924.215z"/>
			<path fill="#FFFFFF" d="M910.045,546.39c14.969,0,27.207,12.237,27.257,27.207v318.601c0,14.969-12.236,27.207-27.207,27.207
				H775.677c-14.969,0-27.207-12.238-27.207-27.207V573.597c0-14.97,12.238-27.207,27.207-27.207H910.045 M758.938,876.568h166.277
				V580.879H758.938V876.568 M910.045,544.39H775.677c-16.104,0-29.207,13.104-29.207,29.207v318.601
				c0,16.104,13.104,29.207,29.207,29.207h134.418c16.105,0,29.207-13.104,29.207-29.207V573.597
				C939.248,557.488,926.123,544.39,910.045,544.39L910.045,544.39z M760.938,582.879h162.277v291.689H760.938V582.879
				L760.938,582.879z"/>
		</g>
		<g>
			<rect x="884.618" y="854.824" fill="#51AC27" width="9.737" height="9.481"/>
			<path fill="#FFFFFF" d="M893.356,855.824v7.481h-7.738v-7.481H893.356 M895.356,853.824h-2h-7.738h-2v2v7.481v2h2h7.738h2v-2
				v-7.481V853.824L895.356,853.824z"/>
		</g>
		<g>
			<path fill="#51AC27" d="M841.774,864.512c-2.729,0-4.945-2.219-4.945-4.943c0-2.728,2.218-4.943,4.945-4.943
				c2.726,0,4.942,2.217,4.942,4.943C846.718,862.293,844.5,864.512,841.774,864.512z"/>
			<path fill="#FFFFFF" d="M841.774,855.621c2.178,0,3.942,1.767,3.942,3.945c0,2.178-1.767,3.942-3.942,3.942
				c-2.181,0-3.945-1.767-3.945-3.942C837.829,857.388,839.595,855.621,841.774,855.621 M841.774,853.621
				c-3.278,0-5.945,2.668-5.945,5.945c0,3.275,2.667,5.942,5.945,5.942c3.276,0,5.942-2.667,5.942-5.942
				C847.718,856.287,845.052,853.621,841.774,853.621L841.774,853.621z"/>
		</g>
		<g>
			<polygon fill="#51AC27" points="793.381,862.859 787.777,859.676 798.979,853.178 798.979,866.107 			"/>
			<path fill="#FFFFFF" d="M797.979,854.914v4.752v4.703l-4.096-2.377l-4.096-2.326l4.096-2.377L797.979,854.914 M799.979,851.441
				l-3.004,1.741l-4.096,2.376l-4.096,2.377l-3.015,1.749l3.029,1.724l4.096,2.325l4.08,2.366l3.005,1.742v-3.473v-4.703v-4.752
				V851.441L799.979,851.441z"/>
		</g>
	</g>
	<g>
		<text transform="matrix(1 0 0 1 800.5938 790.9795)" fill="#FFFFFF" font-family="'Helvetica-Light'" font-size="13.6145">savehome</text>
		<g>
			<path fill="#FFFFFF" d="M880.438,755.337h2.391v10.525c0.055,4.509,4.258,8.164,9.42,8.164c5.164,0,9.365-3.655,9.419-8.164
				v-10.525h2.389v10.525c-0.053,5.822-5.329,10.55-11.809,10.55c-6.479,0-11.757-4.728-11.812-10.55v-10.525H880.438z
				 M784.105,776.34h-2.39v-10.583c0.053-5.825,5.328-10.55,11.81-10.55c6.479,0,11.755,4.725,11.81,10.55v10.583h-2.389v-10.583
				c-0.058-4.512-4.257-8.164-9.421-8.164s-9.365,3.652-9.42,8.164V776.34L784.105,776.34z M819.318,774.076
				c3.938-0.026,6.501-1.609,8.529-4.744l2.616,0.003c-2.052,4.893-6.838,7.128-11.146,7.128c-6.514,0-11.812-4.829-11.812-10.695
				c0-0.336,0.021-0.695,0.058-1.025c0.589-5.373,5.638-9.611,11.754-9.611c6.077,0,11.759,4.32,11.759,10.933h-21.178
				C810.077,770.477,814.232,774.111,819.318,774.076z M868.309,775.06c-0.352,0.694-0.916,1.414-2.942,1.414
				c-1.703,0-2.457-0.72-2.941-1.414c-0.278-0.401-5.518-7.922-5.63-8.099c-0.673,5.294-5.656,9.513-11.708,9.513
				c-6.514,0-11.812-4.772-11.812-10.641s5.297-10.638,11.812-10.638c4.533,0,8.12,1.896,10.546,5.594l6.86,9.873
				c0.772,1.127,2.031,2.922,2.031,2.922c0.224,0.322,0.694,0.322,0.843,0.322c0.147,0,0.568,0.009,0.736-0.322
				c0.188-0.363,9.065-18.084,9.146-18.247c0,0,2.878-0.002,2.879,0C878.128,755.337,868.573,774.56,868.309,775.06z
				 M845.085,757.58c-5.2,0-9.428,3.702-9.428,8.253c0,4.552,4.228,8.254,9.428,8.254c5.195,0,9.424-3.702,9.424-8.254
				C854.509,761.282,850.28,757.58,845.085,757.58z M819.318,757.515c-4.373,0-8.06,2.62-9.118,6.16h18.241
				C827.382,760.088,823.685,757.515,819.318,757.515z"/>
		</g>
	</g>
</g>
<g>
	<text transform="matrix(1 0 0 1 505.4653 -439.334)" fill="#FFFFFF" font-family="'HelveticaNeue-Thin'" font-size="75.2085">How works neovu  savehome?</text>
	<circle fill="none" stroke="#FFFFFF" stroke-miterlimit="10" cx="1079.575" cy="-470.168" r="8"/>
	<text transform="matrix(1 0 0 1 1075.2412 -465.168)" fill="#FFFFFF" font-family="'HelveticaNeue'" font-size="12">R</text>
</g>
<g id="logotype_1_">
	<g>
		<path fill="none" stroke="#FFFFFF" stroke-width="1.6062" stroke-miterlimit="10" d="M885.688,698.269
			c0,23.637-19.159,42.798-42.799,42.798c-23.639,0-42.8-19.161-42.8-42.798c0-23.64,19.162-42.8,42.8-42.8
			C866.527,655.469,885.688,674.629,885.688,698.269z"/>
		<g>
			<g>
				<g>
					<defs>
						<path id="SVGID_3_" d="M885.688,698.269c0,23.637-19.159,42.798-42.799,42.798c-23.639,0-42.8-19.161-42.8-42.798
							c0-23.64,19.162-42.8,42.8-42.8C866.527,655.469,885.688,674.629,885.688,698.269z"/>
					</defs>
					<clipPath id="SVGID_4_">
						<use xlink:href="#SVGID_3_"  overflow="visible"/>
					</clipPath>
					<g clip-path="url(#SVGID_4_)">
						<path fill="#FFFFFF" d="M862.161,686.972c0.567-3.645,0.811-11.418-1.376-17.978c-1.366-4.101-3.207-4.34-4.396-3.943
							c-0.656,0.219-1.201,0.689-1.562,1.282c-0.255,0.419-0.574,0.927-0.628,1.624c-0.044,0.57-0.135,5.329-0.621,6.301
							c-0.485,0.973-2.268,7.369-2.268,8.746h-0.018c-0.002-0.018-0.002-0.035-0.011-0.053c-1.087-2.211-4.021-2.788-5.114-2.93
							c-0.15-0.02-0.201-0.21-0.082-0.303l2.071-1.604c0.122-0.097,0.062-0.294-0.092-0.307c-4.593-0.333-7.656,1.354-8.534,1.913
							c-0.113,0.072-0.26-0.011-0.26-0.145v-2.146c0-0.121-0.122-0.2-0.236-0.156c-2.225,0.831-4.029,4.679-4.468,5.678
							c-0.008,0.017-0.007,0.032-0.009,0.049h-0.094c0-1.376-1.781-7.773-2.268-8.745c-0.485-0.972-0.576-5.729-0.62-6.302
							c-0.054-0.696-0.373-1.204-0.628-1.624c-0.36-0.592-0.904-1.062-1.563-1.282c-1.188-0.396-3.028-0.155-4.396,3.944
							c-2.188,6.559-1.943,14.333-1.376,17.978c0.565,3.644,3.157,8.664,4.049,11.579c0.806,2.641,0.948,9.266,0.968,10.492
							c-0.963,0.811-5.018,4.551-5.018,10.118c0,6.314,0,21.903,0,21.903h19.273h19.272c0,0,0-15.589,0-21.903
							c0-5.567-4.055-9.309-5.019-10.118c0.021-1.229,0.163-7.852,0.97-10.492C859.004,695.636,861.595,690.615,862.161,686.972z"/>
						<path fill="#51AC27" d="M829.275,692.61c0.04-1.478,0.525-4.003,2.961-6.485c0.098-0.1,0.158-0.229,0.166-0.368
							c0.051-0.927,0.158-4.664-1.202-7.666c-1.423-3.14-1.415-5.633-1.459-6.353c-0.079-1.302,0.489-3.521-0.47-4.066
							c-1.04-0.595-2.822,2.104-3.362,4.696s-1.08,9.502,0,13.981c0.689,2.863,1.909,5.154,2.699,6.436
							C828.798,693.089,829.266,692.967,829.275,692.61z"/>
						<path fill="#51AC27" d="M856.502,692.61c-0.04-1.478-0.526-4.003-2.961-6.485c-0.098-0.1-0.158-0.229-0.166-0.368
							c-0.051-0.927-0.159-4.664,1.201-7.666c1.424-3.14,1.416-5.633,1.46-6.353c0.079-1.302-0.49-3.521,0.469-4.066
							c1.041-0.595,2.822,2.104,3.362,4.696c0.541,2.592,1.08,9.502,0,13.981c-0.689,2.863-1.909,5.154-2.699,6.436
							C856.979,693.089,856.511,692.967,856.502,692.61z"/>
						<path fill="#51AC27" d="M834.604,699.955c0,0-0.864,3.239-3.78,5.237c-2.915,1.997-1.08-3.618-1.08-3.618l-2.591,0.595
							C827.151,702.169,830.013,698.012,834.604,699.955z"/>
						<path fill="#51AC27" d="M851.338,699.955c0,0,0.863,3.239,3.778,5.237c2.916,1.997,1.08-3.618,1.08-3.618l2.592,0.595
							C858.787,702.169,855.926,698.012,851.338,699.955z"/>
						<g>
							<path fill="#51AC27" d="M846.938,703.841c-0.01-0.11-0.068-0.299-0.108-0.4c-0.168-0.424-0.689-1.528-1.761-1.887
								c-1.312-0.437-1.917,0-1.917,0s-0.27,0.211-0.472,0.202c-0.201,0.009-0.471-0.202-0.471-0.202s-0.604-0.437-1.917,0
								c-1.071,0.357-1.593,1.463-1.761,1.887c-0.04,0.103-0.1,0.29-0.108,0.4c-0.024,0.331-0.017,1.044,0.523,1.076
								c0.632,0.038,0.673-0.403,0.673-0.403s0.135-1.042,0.707-1.042c0.571,0,0.771,0.304,0.907,1.445
								c0.135,1.144,1.445,1.043,1.445,1.043s1.312,0.101,1.446-1.043c0.135-1.143,0.336-1.445,0.907-1.445s0.707,1.042,0.707,1.042
								s0.042,0.441,0.672,0.403C846.953,704.884,846.962,704.172,846.938,703.841z"/>
							<g>
								
									<path fill="none" stroke="#51AC27" stroke-width="0.9637" stroke-linecap="round" stroke-linejoin="round" stroke-miterlimit="10" d="
									M849.429,708.385c0,0-0.27,2.712-2.602,3.184c-2.331,0.471-4.147-1.995-4.147-1.995v-4.019"/>
								
									<path fill="none" stroke="#51AC27" stroke-width="0.9637" stroke-linecap="round" stroke-linejoin="round" stroke-miterlimit="10" d="
									M835.932,708.385c0,0,0.27,2.712,2.602,3.184c2.332,0.471,4.147-1.995,4.147-1.995v-4.019"/>
							</g>
							<path fill="#51AC27" d="M845.913,711.628c0,0-2.968,3.499-6.467,0c0,0,1.568,0.016,3.233-2.056
								C842.681,709.572,843.918,711.287,845.913,711.628z"/>
						</g>
					</g>
				</g>
			</g>
		</g>
	</g>
</g>
<g>
	<text transform="matrix(1 0 0 1 482.062 378.25)" fill="#FFFFFF" font-family="'HelveticaNeue-Thin'" font-size="75.9847">How neovu savehome works?</text>
	<text transform="matrix(0.583 0 0 0.583 839.6865 351.895)" fill="#FFFFFF" font-family="'HelveticaNeue-Thin'" font-size="32">®</text>
</g>
</svg>
